<?xml version="1.0" encoding="UTF-8"?>
<svg id="Layer_1" data-name="Layer 1" xmlns="http://www.w3.org/2000/svg" viewBox="0 0 1500 1500">
  <defs>
    <style>
      .cls-1 {
        fill: #014959;
      }

      .cls-1, .cls-2, .cls-3 {
        stroke-width: 0px;
      }

      .cls-2 {
        fill: #f2ca04;
      }

      .cls-3 {
        fill: #abe5f2;
      }
    </style>
  </defs>
  <g>
    <g>
      <path class="cls-1" d="M246.82,911.62c-48.8-34.37-81-90.73-82.18-154.68.24,1.15,1.73,1.65,2.77,2.3,4.48,2.77,9.57,4.55,13.77,7.94-1.81,2.26-4.2,1.48-6.21,1.99-1.64.42-3.78.64-3.78,2.71,0,2.38,2.29,2.01,3.89,2.11,2.61.17,5.24.4,7.84.24,5.51-.35,9.18,2.36,12.54,6.36,4.94,5.86,8.34,12.53,10.76,19.63,4.14,12.15,10.17,23.29,16.88,34.17,3.26,5.29,6.5,10.87,4.28,17.69-.35,1.07.08,2.43.28,3.63,2.1,12.29,5.39,24.03,11.93,34.97,3.75,6.25,6.21,13.25,7.2,20.95Z"/>
      <path class="cls-1" d="M551.65,753.3c0,106.88-86.64,193.52-193.52,193.52-2.49,0-4.97-.05-7.44-.14.21-4.62.54-9.1-.1-13.6-.7-4.94-1.6-10.14-.16-15.1,2.35-8.08,3.69-16.53,8.39-23.79,1.25-1.93.3-5.2,2.64-6.14,4.15-1.67,4.88-5.17,5.93-8.7.78-2.64,1.1-5.71,2.7-7.74,4.53-5.78,5.29-11.57,1.51-17.82-2.67-4.43-1.71-8.11,1.95-11.42,3.71-3.37,6.3-7.54,8.4-12.03,1.87-3.99,3.75-7.98,5.62-11.98,5.11-10.89,10.11-21.82,14.43-33.05.55-1.44,1.04-2.95,2.31-3.93,3.82-2.94,6.71-6.74,9.78-10.39,2.04-2.43,4.52-4.13,7.71-4.73,2.94-.56,5.49-1.99,7.87-3.73.91-.66,1.6-1.56,1.12-2.76-.59-1.48-1.88-1.44-3.12-1.09-1.33.37-2.58,1.02-3.92,1.37-1.3.34-3.03,1.01-3.76-.5-.68-1.42,1.14-1.91,2-2.67,2.75-2.41,5.43-4.89,7.96-7.52,1.2-1.24,2.37-2.53,3.49-3.85,1.24-1.46,2.36-3.18.68-4.9-1.76-1.8-3.48-.38-4.88.75-1.94,1.56-3.79,3.23-5.66,4.89-.61.55-1.22,1.1-1.84,1.64-.41-.31-.81-.61-1.22-.92.41-.57.81-1.14,1.22-1.72,2.31-3.23,4.64-6.47,6.88-9.75,1.23-1.8,2.56-4.07.18-5.68-2.21-1.5-3.52.64-4.8,2.21-2.65,3.27-5.34,6.5-8.06,9.71-.26.31-.53.62-.79.93-.69.82-1.21,2.27-2.79,1.47-.42-1.26.33-2.16.8-3.08.15-.3.3-.59.45-.89,1.8-3.54,3.67-7.04,5.44-10.59.64-1.28.92-2.76-.46-3.76-1.42-1.03-2.62-.07-3.73.79-2,1.54-3.18,3.72-4.57,5.75-.81,1.18-1.54,2.41-2.26,3.64-2.49,4.33-4.71,8.82-8.64,12.24-4.15,3.6-7.08,3-8.74-2.32-.64-2.04-.8-4.25-2.22-5.99-1.22-1.5-2.68-2.8-4.73-1.98-2.25.9-2.16,3.04-1.38,4.73,3.33,7.21,3.3,15.28,6.04,22.65,1.23,3.29,1.38,6.93-.3,10.33-3.9,7.87-8.33,15.37-14.1,22.09-3.94,4.59-8.31,8.85-11.88,13.72h0c-1.77,2.41-3.35,4.97-4.59,7.78-1.48,3.37-3.29,6.41-5.53,9.42-2.53,3.4-5.89,6.59-7.39,10.33-2.11,5.27-7.05,7.94-9.54,12.65-.56,1.06-1.66,2.26-3.77,1.98,1.16-4.47,2.34-8.84,3.41-13.24.84-3.42.36-6.41-3.91-6.64-2.84-.15-2.31-1.73-2.15-3.42.13-1.37.18-2.76.27-4.14,1.42-19.59-17.06-35.87-36.65-32.27-19.73,3.63-31.29,20.55-27.51,40.25.2,1.06.41,2.11.55,3.17.13.97-.14,1.66-1.12,2.25-5.64,3.4-5.93,4.67-2.87,10.72.74,1.47,2.35,2.87.99,5.11-6.65-4.7-8.63-12.35-12.71-18.44-2.73-4.09-4.44-9.02-7.23-13.27-8.4-12.84-16.74-25.72-25.02-38.63-3.66-5.7-3.31-11.87.35-17.22,1.67-2.44,4.21-2.91,6.58-3.92,1.38-.6,3.09-1.15,2.74-3.17-.29-1.68-1.61-2.62-3.14-3.06-3.02-.88-5.87.05-8.41,1.53-2.79,1.62-5.61,1.56-8.49.84-3.66-.91-6.03-3.48-7.92-6.6-2.87-4.75-6.27-9.11-10.21-13.01-1.17-1.16-2.9-2.37-4.53-1.18-1.96,1.42-.24,3.01.43,4.45.84,1.83,2.58,3.28,2.67,6.41-2.92-2.5-5.18-4.5-7.51-6.43-1.7-1.41-3.84-3.02-5.72-1.12-2.23,2.26.47,3.73,1.78,5.25,2.81,3.27,5.67,6.51,7.4,11.57-5.3-1.87-9.61-3.42-13.96-4.88-1.68-.56-3.67-.71-4.52,1.1-.12.27-.2.51-.24.73-.02-1-.03-2.02-.03-3.02,0-97.59,72.24-178.31,166.16-191.6,8.94-1.26,18.07-1.92,27.36-1.92,23.05,0,45.16,4.03,65.66,11.42,63.73,22.98,111.92,78.46,124.58,146.44.08.43.16.87.24,1.3,2,11.15,3.04,22.63,3.04,34.35Z"/>
      <path class="cls-3" d="M548.37,717.64c-.25.87-.5,1.74-.77,2.6-17.87,58.01-71.9,100.17-135.77,100.17-8.27,0-16.37-.71-24.25-2.07,5.11-10.89,10.11-21.82,14.43-33.05.55-1.44,1.04-2.95,2.31-3.93,3.82-2.94,6.71-6.74,9.78-10.39,2.04-2.43,4.52-4.13,7.71-4.73,2.94-.56,5.49-1.99,7.87-3.73.91-.66,1.6-1.56,1.12-2.76-.59-1.48-1.88-1.44-3.12-1.09-1.33.37-2.58,1.02-3.92,1.37-1.3.34-3.03,1.01-3.76-.5-.68-1.42,1.14-1.91,2-2.67,2.75-2.41,5.43-4.89,7.96-7.52,1.2-1.24,2.37-2.53,3.49-3.85,1.24-1.46,2.36-3.18.68-4.9-1.76-1.8-3.48-.38-4.88.75-1.94,1.56-3.79,3.23-5.66,4.89-.61.55-1.22,1.1-1.84,1.64-.41-.31-.81-.61-1.22-.92.41-.57.81-1.14,1.22-1.72,2.31-3.23,4.64-6.47,6.88-9.75,1.23-1.8,2.56-4.07.18-5.68-2.21-1.5-3.52.64-4.8,2.21-2.65,3.27-5.34,6.5-8.06,9.71-.26.31-.53.62-.79.93-.69.82-1.21,2.27-2.79,1.47-.42-1.26.33-2.16.8-3.08.15-.3.3-.59.45-.89,1.8-3.54,3.67-7.04,5.44-10.59.64-1.28.92-2.76-.46-3.76-1.42-1.03-2.62-.07-3.73.79-2,1.54-3.18,3.72-4.57,5.75-.81,1.18-1.54,2.41-2.26,3.64-2.49,4.33-4.71,8.82-8.64,12.24-4.15,3.6-7.08,3-8.74-2.32-.64-2.04-.8-4.25-2.22-5.99-1.22-1.5-2.68-2.8-4.73-1.98-2.25.9-2.16,3.04-1.38,4.73,3.33,7.21,3.3,15.28,6.04,22.65,1.23,3.29,1.38,6.93-.3,10.33-3.9,7.87-8.33,15.37-14.1,22.09-3.94,4.59-8.31,8.85-11.88,13.72h0c-53.92-20.16-92.31-72.14-92.31-133.09,0-48.32,24.13-91.01,61-116.67,8.94-1.26,18.07-1.92,27.36-1.92,23.05,0,45.16,4.03,65.66,11.42,63.73,22.98,111.92,78.46,124.58,146.44Z"/>
      <path class="cls-2" d="M548.61,718.95c-.33.43-.67.87-1.01,1.3-18.13,22.87-46.16,37.53-77.61,37.53-14.25,0-27.8-3.01-40.04-8.43,1.2-1.24,2.37-2.53,3.49-3.85,1.24-1.46,2.36-3.18.68-4.9-1.76-1.8-3.48-.38-4.88.75-1.94,1.56-3.79,3.23-5.66,4.89-.62-.32-1.23-.66-1.84-1,2.31-3.23,4.64-6.47,6.88-9.75,1.23-1.8,2.56-4.07.18-5.68-2.21-1.5-3.52.64-4.8,2.21-2.65,3.27-5.34,6.5-8.06,9.71-.78-.51-1.56-1.03-2.33-1.57,1.8-3.54,3.67-7.04,5.44-10.59.64-1.28.92-2.76-.46-3.76-1.42-1.03-2.62-.07-3.73.79-2,1.54-3.18,3.72-4.57,5.75-.81,1.18-1.54,2.41-2.26,3.64-22.59-18.14-37.05-45.99-37.05-77.22,0-37.98,21.39-70.98,52.79-87.58,63.73,22.98,111.92,78.46,124.58,146.44.08.43.16.87.24,1.3Z"/>
    </g>
    <circle class="cls-2" cx="538.89" cy="578.38" r="31.47"/>
    <circle class="cls-1" cx="483.87" cy="568.13" r="16.87"/>
    <circle class="cls-1" cx="564.85" cy="642.19" r="24.42"/>
    <circle class="cls-3" cx="583.51" cy="602.68" r="13.09"/>
    <circle class="cls-3" cx="532.85" cy="623.54" r="8.31"/>
  </g>
  <g>
    <g>
      <path class="cls-1" d="M599.82,811.06c0-.23.23-.44.7-.62.47-.18,1-.26,1.58-.26,4.38.12,8.19.04,11.43-.23,6.64-.62,12.04-.94,16.18-.94,8.24,0,14.65,1.58,19.23,4.75,4.57,3.17,6.86,7.82,6.86,13.95,0,2.42-.54,4.68-1.61,6.77-1.08,2.09-2.55,3.8-4.42,5.13-1.41,1.09-3.05,2.01-4.92,2.75-.31.2-.46.41-.44.65.02.23.17.39.44.47,3.52,1.09,6.68,2.78,9.5,5.04,4.26,3.56,6.39,8.4,6.39,14.54,0,4.3-1.27,8.13-3.81,11.49-2.54,3.36-6,5.96-10.38,7.8-3.83,1.76-9.67,2.64-17.53,2.64-.82,0-2.75-.05-5.77-.15-3.03-.1-5.34-.17-6.95-.21-3.83-.08-7.52-.12-11.08-.12l-4.51.12c-1.52,0-2.29-.31-2.29-.94,0-.59.68-1,2.05-1.23,4.14-.35,6.45-2.62,6.92-6.8.23-3.13.35-14.15.35-33.06,0-9.42-.08-17.33-.23-23.74-.04-2.15-.37-3.57-1-4.25-.63-.68-2.13-1.44-4.51-2.26-1.45-.23-2.17-.66-2.17-1.29ZM644.25,865.05c0-6.1-1.88-11.14-5.63-15.12-2.85-2.97-5.86-4.45-9.03-4.45-2.93,0-4.73.1-5.39.29-.98.23-1.47.67-1.47,1.29-.27,1.95-.36,5.7-.26,11.23.1,5.53.28,9.64.56,12.34.12,1.72.21,2.96.29,3.72.08.76.27,1.7.59,2.81.31,1.11.72,1.93,1.23,2.43.7.82,1.79,1.54,3.25,2.17,1.47.63,2.71.94,3.72.94,1.17,0,2.34-.2,3.52-.59,5.74-3.32,8.62-9.01,8.62-17.06ZM640.79,828.35c0-2.77-.46-5.31-1.38-7.59-.92-2.29-2.08-4.08-3.49-5.39-1.41-1.31-2.85-2.31-4.34-3.02-1.49-.7-2.87-1.06-4.16-1.06-.27,0-1.5.16-3.69.47-.12.04-.26.3-.44.79-.18.49-.26.83-.26,1.03-.2,1.37-.33,6.04-.41,14.01-.08,7.97-.04,12.78.12,14.42.04.47.22.78.56.94.33.16.99.29,1.96.41.74.04,2.72-.18,5.92-.64,2.54-.62,4.78-2.14,6.71-4.54s2.9-5.68,2.9-9.82Z"/>
      <path class="cls-1" d="M668.7,810.71c0-.59.76-.88,2.29-.88,1.05,0,3.25.1,6.59.29,3.34.2,5.34.29,6.01.29,3.52,0,8.62-.06,15.3-.18,6.68-.12,10.63-.18,11.84-.18,1.84,0,3.56-.04,5.16-.12l2.4-.12c.24,0,.52.23.85.7.33.47.54.88.62,1.23l1.29,9.85c0,1.21-.2,1.82-.59,1.82-.7,0-1.27-.53-1.7-1.58-.78-2.07-1.91-3.97-3.37-5.69-1.46-1.72-2.75-2.7-3.84-2.93-1.72-.27-7.56-.41-17.53-.41-.31,0-.55.1-.7.29-.16.2-.3.71-.44,1.55-.14.84-.23,2.08-.26,3.72v25.67c0,.16.09.35.26.59.18.23.36.35.56.35h11.2c4.06,0,6.62-.31,7.68-.94.94-.55,2.01-2.38,3.22-5.51.31-.98.74-1.47,1.29-1.47.2,0,.35.19.47.56.12.37.18.67.18.91,0,.08-.21,2.6-.64,7.56-.04.55,0,1.9.12,4.04.12,2.15.18,3.24.18,3.28,0,1.45-.25,2.17-.76,2.17-.39,0-.82-.65-1.29-1.93,0-.04-.09-.27-.26-.7-.18-.43-.3-.73-.38-.91-.08-.18-.21-.46-.38-.85-.18-.39-.35-.68-.53-.88-.18-.2-.38-.42-.62-.67-.23-.25-.48-.45-.73-.59-.25-.14-.54-.21-.85-.21-4.3-.31-10.34-.47-18.11-.47-.12,0-.25.13-.38.38-.14.25-.21.44-.21.56,0,2.34.06,7.3.18,14.86.12,7.56.18,11.54.18,11.93,0,.82.29,1.81.88,2.96.59,1.15,1.29,1.81,2.11,1.96,2.93.47,6.37.7,10.32.7h3.6c.21,0,.74-.02,1.58-.06.84-.04,1.4-.1,1.67-.18.27-.08.73-.19,1.38-.32.64-.14,1.14-.3,1.5-.5.35-.19.75-.45,1.2-.76.45-.31.85-.66,1.2-1.06.59-.51,1.2-1.15,1.85-1.93.64-.78,1.32-1.64,2.02-2.58.7-.94,1.13-1.52,1.29-1.76.86-1.25,1.54-1.88,2.05-1.88.23,0,.37.23.41.7s-.02,1.04-.18,1.7c-.23.86-.73,2.57-1.49,5.13-.76,2.56-1.26,4.07-1.5,4.54-.23.59-.62,1.06-1.14,1.41s-1.07.53-1.61.53c-4.49,0-10.83-.08-19.02-.23-8.19-.16-13.75-.23-16.68-.23-1.6,0-4.28.1-8.03.29-3.75.2-5.74.29-5.98.29-1.52,0-2.29-.27-2.29-.82,0-.51.72-.96,2.17-1.35,1.99-.35,3.48-.99,4.46-1.91.98-.92,1.52-2.63,1.64-5.13.31-9.73.47-28.06.47-54.98,0-3.13-.43-5.28-1.29-6.45-.86-1.17-2.42-1.91-4.69-2.23-1.45-.23-2.17-.66-2.17-1.29Z"/>
      <path class="cls-1" d="M744.19,810.59c0-.59.84-.88,2.52-.88,1.17,0,3.43.12,6.77.35,3.34.23,5.6.35,6.77.35,1.33,0,3.49-.08,6.48-.23,2.99-.16,5.27-.23,6.83-.23,1.37,0,2.05.25,2.05.76,0,.47-.53.9-1.58,1.29-2.46.59-3.69,1.39-3.69,2.4,0,.7.64,2.11,1.93,4.22.24.39,1.08,1.9,2.55,4.54,1.47,2.64,2.82,5.06,4.07,7.27,1.25,2.21,2.59,4.48,4.02,6.83,1.43,2.34,2.47,3.93,3.14,4.75.47.47.8.55,1,.23,2.77-4.45,6.72-11.33,11.84-20.63,1.88-3.17,2.81-5.33,2.81-6.51,0-.74-.53-1.44-1.58-2.08-1.05-.65-2.23-1.1-3.52-1.38-1.17-.35-1.76-.7-1.76-1.06,0-.51.64-.76,1.93-.76,1.17,0,2.65.1,4.43.29,1.78.2,3.21.29,4.31.29s3.08-.14,5.83-.41c2.75-.27,4.25-.41,4.48-.41,1.45,0,2.17.23,2.17.7,0,.59-.8,1.04-2.4,1.35-2.23.47-4.09,1.14-5.6,2.02-1.5.88-2.6,1.72-3.28,2.52-.68.8-1.65,2.12-2.9,3.96-5,7.23-10.16,15.67-15.47,25.32l-.18.59c-.16.39-.29.87-.41,1.44-.12.57-.16,1.07-.12,1.5v26.26c0,.67,0,1.24.03,1.73.02.49.1.95.24,1.38.14.43.22.77.26,1.03.04.25.21.52.53.79.31.27.51.47.59.59.08.12.36.27.85.47.49.2.79.31.91.35.12.04.53.16,1.23.35.7.2,1.15.33,1.35.41.08.04.25.09.53.15.27.06.5.13.67.21.18.08.38.17.62.26.24.1.41.22.53.35.12.14.18.3.18.5,0,.55-.84.82-2.52.82-2.54,0-4.72-.06-6.54-.18s-4.43-.18-7.83-.18c-2.27,0-4.95.1-8.06.29-3.11.2-5.11.29-6.01.29-1.68,0-2.52-.31-2.52-.94,0-.23.26-.49.79-.76.53-.27,1.1-.47,1.73-.59,2.46-.39,4.17-1.05,5.13-1.96.96-.92,1.53-2.29,1.73-4.13.31-3.05.47-8.13.47-15.24v-10.96c-.12-1.52-.45-2.56-1-3.11-.82-2.11-3.28-6.67-7.39-13.69-4.1-7.01-7.07-11.69-8.91-14.04-.39-.55-.94-1.31-1.64-2.29-.7-.98-1.16-1.6-1.38-1.88-.22-.27-.56-.67-1.03-1.2-.47-.53-.88-.88-1.23-1.05s-.79-.37-1.32-.59c-.53-.21-1.16-.4-1.9-.56-1.68-.35-2.52-.78-2.52-1.29Z"/>
      <path class="cls-1" d="M856.27,808.31c7.5,0,14.34,1.75,20.52,5.25,6.17,3.5,11.02,8.3,14.54,14.42,3.52,6.12,5.28,12.89,5.28,20.31,0,3.67-.48,7.19-1.44,10.55-.96,3.36-2.19,6.26-3.69,8.7-1.5,2.44-3.26,4.7-5.28,6.77-2.01,2.07-3.99,3.76-5.92,5.07-1.93,1.31-3.9,2.41-5.89,3.31-5.51,2.5-11.31,3.75-17.41,3.75-5.59,0-10.88-1.03-15.88-3.08-5-2.05-9.29-4.82-12.87-8.29-3.58-3.48-6.42-7.63-8.53-12.46-2.11-4.83-3.17-9.94-3.17-15.33,0-13.32,5.28-23.88,15.83-31.65,3.09-2.34,6.79-4.15,11.11-5.42,4.32-1.27,8.59-1.9,12.81-1.9ZM855.21,810.3c-5.12,0-10.08,2.93-14.89,8.79-2.03,2.74-3.7,6.4-5.01,10.99-1.31,4.59-1.96,9.6-1.96,15.04,0,5.98.9,11.68,2.7,17.12,1.8,5.43,4.42,10.06,7.85,13.89,4.57,5.43,9.57,8.15,15,8.15,1.92,0,4.02-.51,6.3-1.52,2.29-1.02,4.27-2.64,5.95-4.87,5.43-7.27,8.15-17.17,8.15-29.72,0-5.98-.47-10.96-1.41-14.95-.94-3.99-2.66-8.05-5.16-12.19-1.92-3.01-4.35-5.55-7.3-7.62-2.95-2.07-6.36-3.11-10.23-3.11Z"/>
      <path class="cls-1" d="M922.15,810.42c2.07,0,4.32-.08,6.74-.23,2.42-.16,4.22-.23,5.39-.23,1.33,0,1.99.29,1.99.88,0,.47-.67.86-1.99,1.17-2.11.55-3.48,1.29-4.1,2.23-.63.94-.94,2.75-.94,5.45-.2,9.18-.29,20.48-.29,33.88,0,9.81,1.93,16.96,5.8,21.45,3.36,3.79,8.48,5.69,15.36,5.69,2.93,0,5.52-.47,7.77-1.41s4.33-2.52,6.24-4.75c1.91-2.23,3.42-5.43,4.51-9.61,1.09-4.18,1.72-9.26,1.88-15.24.23-4.34.35-8.34.35-12.02,0-7.11-.19-12.44-.56-15.97-.37-3.54-.81-5.74-1.32-6.62-.51-.88-1.33-1.63-2.46-2.26-.9-.31-2.13-.59-3.69-.82-1.68-.23-2.52-.62-2.52-1.17,0-.66.84-1,2.52-1,1.13,0,2.61.1,4.43.29,1.82.2,3.35.29,4.6.29,1.02,0,2.56-.08,4.63-.23,2.07-.16,3.63-.23,4.69-.23,1.68,0,2.52.25,2.52.76,0,.59-.84,1.06-2.52,1.41-2.46.39-4.07,1.12-4.83,2.2-.76,1.08-1.26,3.06-1.5,5.95-.12,2.07-.27,6.1-.47,12.08-.2,5.98-.33,9.52-.41,10.61-.12,9.07-.81,16.46-2.08,22.19-1.27,5.73-3.45,10.19-6.54,13.39-5.16,5.35-12.49,8.03-21.98,8.03-3.67,0-7.34-.5-10.99-1.49-3.65-1-6.56-2.3-8.7-3.9-3.99-3.05-6.69-6.63-8.12-10.76-1.43-4.12-2.2-10.66-2.32-19.61-.08-3.4-.16-8.82-.23-16.27-.08-7.44-.16-12.44-.23-14.98-.08-2.66-.4-4.46-.97-5.42-.57-.96-1.85-1.67-3.84-2.14-1.52-.39-2.29-.82-2.29-1.29,0-.59.72-.88,2.17-.88,1.6,0,3.93.1,6.98.29,3.05.2,5.49.29,7.33.29Z"/>
      <path class="cls-1" d="M1021.27,809.6c6.84,0,12.49,1.52,16.94,4.57,4.92,3.6,7.39,8.48,7.39,14.65,0,5-2.23,9.2-6.68,12.6-1.92,1.21-3.75,2.13-5.51,2.75-.23.08-.42.26-.56.56-.14.29-.09.75.15,1.38,2.81,5.94,6.47,12.82,10.96,20.63,3.17,5.47,6.08,9.59,8.73,12.37,1.29,1.41,2.48,2.32,3.58,2.73,1.09.41,2.46.69,4.1.85.9.23,1.35.53,1.35.88,0,.47-.37.86-1.11,1.17-.86.39-3.62.59-8.27.59-2.34,0-4.34-.1-5.98-.29-1.64-.2-3.41-.61-5.3-1.23-1.9-.62-3.62-1.61-5.19-2.96-1.56-1.35-3.03-3.08-4.4-5.19-1.6-2.46-5.61-9.67-12.02-21.63-1.17-2.11-2.24-3.56-3.2-4.34-.96-.78-1.96-1.21-3.02-1.29-.43,0-1,.12-1.7.35-.39.2-.59.74-.59,1.64-.16,3.24-.12,8.25.12,15.01,0,6.88.31,11.37.94,13.48.08.63.56,1.29,1.44,1.99.88.7,2.2,1.23,3.96,1.58.51.16.96.4,1.35.73.39.33.59.62.59.85,0,.55-.76.82-2.29.82-.12,0-1.01-.05-2.67-.15-1.66-.1-3.63-.2-5.92-.29-2.29-.1-4.23-.15-5.83-.15s-4.09.12-7.47.35-5.33.35-5.83.35c-1.52,0-2.29-.35-2.29-1.06,0-.59.68-1,2.05-1.23,2.23-.39,3.71-1.02,4.46-1.88.74-.86,1.17-2.38,1.29-4.57.47-6.96.7-15.47.7-25.56,0-13.56-.2-24.44-.59-32.65-.16-2.07-.39-3.4-.7-3.99-.63-1.09-2.07-1.86-4.34-2.29-.55-.08-1.07-.21-1.55-.41-.49-.19-.73-.41-.73-.64,0-.59.72-.88,2.17-.88.35,0,1.91.04,4.69.12,2.77.08,4.87.12,6.27.12,1.91,0,4.5-.08,7.77-.23,3.26-.16,7.51-.23,12.75-.23ZM1015.35,812.12c-1.49,0-2.56.27-3.22.82-.55.35-.86,1.52-.94,3.52-.08.9-.15,5.5-.21,13.8-.06,8.3-.07,13.02-.03,14.16,0,1.13.31,1.74.94,1.82.39.16.96.23,1.7.23,4.77-.27,8.36-1.23,10.79-2.87,3.36-2.42,5.04-6.7,5.04-12.84s-1.41-10.47-4.22-13.72c-2.78-3.28-6.06-4.92-9.85-4.92Z"/>
      <path class="cls-1" d="M1078.07,811.06c0-.23.23-.44.7-.62.47-.18,1-.26,1.58-.26,4.38.12,8.19.04,11.43-.23,6.64-.62,12.04-.94,16.18-.94,8.24,0,14.65,1.58,19.23,4.75,4.57,3.17,6.86,7.82,6.86,13.95,0,2.42-.54,4.68-1.61,6.77-1.08,2.09-2.55,3.8-4.42,5.13-1.41,1.09-3.05,2.01-4.92,2.75-.31.2-.46.41-.44.65.02.23.17.39.44.47,3.52,1.09,6.68,2.78,9.5,5.04,4.26,3.56,6.39,8.4,6.39,14.54,0,4.3-1.27,8.13-3.81,11.49-2.54,3.36-6,5.96-10.38,7.8-3.83,1.76-9.67,2.64-17.53,2.64-.82,0-2.75-.05-5.77-.15-3.03-.1-5.34-.17-6.95-.21-3.83-.08-7.52-.12-11.08-.12l-4.51.12c-1.52,0-2.29-.31-2.29-.94,0-.59.68-1,2.05-1.23,4.14-.35,6.45-2.62,6.92-6.8.23-3.13.35-14.15.35-33.06,0-9.42-.08-17.33-.23-23.74-.04-2.15-.37-3.57-1-4.25-.63-.68-2.13-1.44-4.51-2.26-1.45-.23-2.17-.66-2.17-1.29ZM1122.5,865.05c0-6.1-1.88-11.14-5.63-15.12-2.85-2.97-5.86-4.45-9.03-4.45-2.93,0-4.73.1-5.39.29-.98.23-1.47.67-1.47,1.29-.27,1.95-.36,5.7-.26,11.23.1,5.53.28,9.64.56,12.34.12,1.72.21,2.96.29,3.72.08.76.27,1.7.59,2.81.31,1.11.72,1.93,1.23,2.43.7.82,1.79,1.54,3.25,2.17,1.47.63,2.71.94,3.72.94,1.17,0,2.34-.2,3.52-.59,5.74-3.32,8.62-9.01,8.62-17.06ZM1119.04,828.35c0-2.77-.46-5.31-1.38-7.59-.92-2.29-2.08-4.08-3.49-5.39-1.41-1.31-2.85-2.31-4.34-3.02-1.49-.7-2.87-1.06-4.16-1.06-.27,0-1.5.16-3.69.47-.12.04-.26.3-.44.79-.18.49-.26.83-.26,1.03-.2,1.37-.33,6.04-.41,14.01-.08,7.97-.04,12.78.12,14.42.04.47.22.78.56.94.33.16.99.29,1.96.41.74.04,2.72-.18,5.92-.64,2.54-.62,4.78-2.14,6.71-4.54s2.9-5.68,2.9-9.82Z"/>
      <path class="cls-1" d="M1146.94,810.71c0-.59.76-.88,2.29-.88,1.05,0,3.25.1,6.59.29,3.34.2,5.34.29,6.01.29,3.52,0,8.62-.06,15.3-.18,6.68-.12,10.63-.18,11.84-.18,1.84,0,3.56-.04,5.16-.12l2.4-.12c.24,0,.52.23.85.7.33.47.54.88.62,1.23l1.29,9.85c0,1.21-.2,1.82-.59,1.82-.7,0-1.27-.53-1.7-1.58-.78-2.07-1.91-3.97-3.37-5.69-1.46-1.72-2.75-2.7-3.84-2.93-1.72-.27-7.56-.41-17.53-.41-.31,0-.55.1-.7.29-.16.2-.3.71-.44,1.55-.14.84-.23,2.08-.26,3.72v25.67c0,.16.09.35.26.59.18.23.36.35.56.35h11.2c4.06,0,6.62-.31,7.68-.94.94-.55,2.01-2.38,3.22-5.51.31-.98.74-1.47,1.29-1.47.2,0,.35.19.47.56.12.37.18.67.18.91,0,.08-.21,2.6-.64,7.56-.04.55,0,1.9.12,4.04.12,2.15.18,3.24.18,3.28,0,1.45-.25,2.17-.76,2.17-.39,0-.82-.65-1.29-1.93,0-.04-.09-.27-.26-.7-.18-.43-.3-.73-.38-.91-.08-.18-.21-.46-.38-.85-.18-.39-.35-.68-.53-.88-.18-.2-.38-.42-.62-.67-.23-.25-.48-.45-.73-.59-.25-.14-.54-.21-.85-.21-4.3-.31-10.34-.47-18.11-.47-.12,0-.25.13-.38.38-.14.25-.21.44-.21.56,0,2.34.06,7.3.18,14.86.12,7.56.18,11.54.18,11.93,0,.82.29,1.81.88,2.96.59,1.15,1.29,1.81,2.11,1.96,2.93.47,6.37.7,10.32.7h3.6c.21,0,.74-.02,1.58-.06.84-.04,1.4-.1,1.67-.18.27-.08.73-.19,1.38-.32.64-.14,1.14-.3,1.5-.5.35-.19.75-.45,1.2-.76.45-.31.85-.66,1.2-1.06.59-.51,1.2-1.15,1.85-1.93.64-.78,1.32-1.64,2.02-2.58.7-.94,1.13-1.52,1.29-1.76.86-1.25,1.54-1.88,2.05-1.88.23,0,.37.23.41.7s-.02,1.04-.18,1.7c-.23.86-.73,2.57-1.49,5.13-.76,2.56-1.26,4.07-1.5,4.54-.23.59-.62,1.06-1.14,1.41s-1.07.53-1.61.53c-4.49,0-10.83-.08-19.02-.23-8.19-.16-13.75-.23-16.68-.23-1.6,0-4.28.1-8.03.29-3.75.2-5.74.29-5.98.29-1.52,0-2.29-.27-2.29-.82,0-.51.72-.96,2.17-1.35,1.99-.35,3.48-.99,4.46-1.91.98-.92,1.52-2.63,1.64-5.13.31-9.73.47-28.06.47-54.98,0-3.13-.43-5.28-1.29-6.45-.86-1.17-2.42-1.91-4.69-2.23-1.45-.23-2.17-.66-2.17-1.29Z"/>
      <path class="cls-1" d="M1239.5,808.31c6.13,0,11.57.88,16.3,2.64.27.04.49.24.64.62.16.37.23.67.23.91,0,2.78.23,5.63.7,8.56.27,1.6.04,2.4-.7,2.4-.31,0-.72-.65-1.23-1.93-.78-1.8-1.5-3.24-2.17-4.34-.67-1.09-1.58-2.13-2.75-3.11-1.25-1.02-2.79-1.88-4.63-2.58-1.84-.7-3.5-1.05-4.98-1.05-1.64,0-3.22.21-4.75.64-1.52.43-2.99,1.09-4.4,1.99-1.41.9-2.53,2.19-3.37,3.87-.84,1.68-1.26,3.63-1.26,5.86,0,2.34.55,4.48,1.64,6.39,1.09,1.92,2.99,3.87,5.69,5.86,1.25.9,3.15,2.19,5.69,3.87,2.54,1.68,4.43,2.95,5.69,3.81.12.08.31.22.59.41,1.25.86,2.23,1.56,2.93,2.11.7.55,1.67,1.35,2.9,2.4,1.23,1.05,2.2,2.08,2.9,3.08.7,1,1.45,2.18,2.23,3.55.78,1.37,1.36,2.88,1.73,4.54.37,1.66.56,3.43.56,5.3,0,4.65-1.33,8.7-3.99,12.16-2.66,3.46-6.04,6.02-10.14,7.68-4.1,1.66-8.56,2.49-13.37,2.49-3.32,0-6.61-.33-9.88-1-3.26-.67-5.89-1.5-7.88-2.52-.74-.55-1.19-1.13-1.35-1.76-.04-.39-.31-2.09-.82-5.1-.51-3.01-.76-5.04-.76-6.1,0-1.68.25-2.52.76-2.52.59,0,1.09.84,1.52,2.52.98,4.22,3.18,7.62,6.62,10.2,3.44,2.58,7.11,3.87,11.02,3.87,4.22,0,7.7-1.24,10.43-3.72,2.74-2.48,4.1-5.72,4.1-9.7,0-5.59-4.2-11-12.6-16.24-6.68-4.26-11.41-8.27-14.19-12.02-2.77-3.75-4.16-8.34-4.16-13.77,0-2.66.73-5.41,2.2-8.27,1.46-2.85,3.33-5.14,5.6-6.86,4.84-3.44,10.41-5.16,16.71-5.16Z"/>
      <path class="cls-1" d="M1300.17,810.42h14.3c6.72,0,11.02-.08,12.9-.23,1.88-.16,3.32-.51,4.34-1.05.7-.51,1.11-.7,1.23-.59.35.55.47,1.09.35,1.64-.43,1.45-.55,5.18-.35,11.2.04.55,0,1.01-.12,1.38-.12.37-.23.62-.32.73-.1.12-.19.18-.26.18-.23,0-.48-.19-.73-.56-.25-.37-.42-.71-.5-1.03-.74-3.09-1.66-5.24-2.75-6.45-1.52-1.52-4.36-2.29-8.5-2.29-6.56,0-10.38.12-11.43.35-.63.39-.94,1.23-.94,2.52,0,1.56-.06,8.3-.18,20.22-.12,11.92-.18,18.89-.18,20.93,0,10.2.27,16.92.82,20.16.2,1.6.65,2.75,1.38,3.46.72.7,2.18,1.31,4.37,1.82,1.37.31,2.05.76,2.05,1.35,0,.55-.68.82-2.05.82-.55,0-2.64-.12-6.27-.35-3.63-.23-6.62-.35-8.97-.35-3.6,0-6.96.1-10.08.29l-4.69.29c-.74,0-1.31-.11-1.7-.32-.39-.22-.59-.46-.59-.73,0-.55.8-.96,2.4-1.23,2.97-.47,4.84-1.18,5.63-2.14.78-.96,1.27-2.92,1.47-5.89.2-3.71.33-10.63.41-20.75.08-10.12.12-18.73.12-25.82s-.02-11.5-.06-13.22c-.12-.94-.31-1.41-.59-1.41-2.19-.27-5.14-.41-8.85-.41-2.93,0-5.41.18-7.44.53-1.41.23-2.6.87-3.58,1.9-.98,1.04-1.88,2.71-2.7,5.01-.31.98-.62,1.62-.91,1.93-.29.31-.64.47-1.03.47-.43,0-.59-.66-.47-1.99.08-.59.32-2.19.73-4.81.41-2.62.65-4.63.73-6.04.16-1.02.51-1.64,1.05-1.88.08-.04.15-.06.21-.06s.12.02.18.06c.06.04.12.08.18.12.06.04.15.11.26.21.12.1.21.19.29.26.55.67,1.66,1.06,3.34,1.17,5.28.39,14.44.59,27.49.59Z"/>
    </g>
    <g>
      <path class="cls-1" d="M617.84,905.51c2.29,0,4.37.36,6.23,1.07,1.86.71,3.32,1.54,4.39,2.47,1.53,1.27,2.7,2.88,3.53,4.83.82,1.94,1.24,3.92,1.24,5.92,0,1.63-.2,3.21-.6,4.73-.4,1.52-.9,2.86-1.51,4.01s-1.33,2.23-2.15,3.22c-.82.99-1.63,1.82-2.41,2.47-.78.65-1.57,1.2-2.37,1.64-3.74,2.19-8.27,3.29-13.6,3.29-.53,0-1.98-.03-4.36-.1-2.38-.07-3.95-.1-4.71-.1-.56,0-1.53.03-2.9.1-1.38.07-2.24.1-2.6.1-.31,0-.59-.06-.85-.18-.26-.12-.39-.25-.39-.38,0-.41.44-.64,1.32-.69.54-.08.97-.16,1.29-.23.31-.07.63-.21.94-.43.31-.22.56-.42.73-.59.17-.17.39-.52.65-1.04.26-.53.48-1,.66-1.43.18-.42.45-1.13.83-2.11.71-1.87,1.72-4.9,3.03-9.11,1.31-4.2,2.4-7.92,3.29-11.14.46-1.56.62-2.67.5-3.31-.13-.65-.59-1.02-1.39-1.12-.2-.03-1-.1-2.39-.2-.8-.08-1.2-.31-1.2-.69,0-.12.14-.24.41-.37s.54-.19.79-.19c.61,0,2.1-.06,4.48-.18,3.4-.17,6.44-.25,9.14-.25ZM616.41,906.81c-.19,0-.45.12-.79.36-.34.24-.58.53-.71.87-.7,1.63-2.16,6.23-4.38,13.81-.36,1.22-.77,2.61-1.25,4.16s-.83,2.74-1.07,3.55c-.24.82-.48,1.65-.73,2.5-.25.85-.42,1.48-.52,1.9-.1.42-.15.71-.15.88,0,.27.06.61.18,1.01.12.4.24.66.36.78.25.31.74.6,1.46.88.72.28,1.33.42,1.82.42,1.04,0,2.31-.25,3.82-.74,1.51-.49,2.96-1.19,4.36-2.09.87-.58,1.74-1.35,2.61-2.32s1.72-2.11,2.53-3.43c.82-1.32,1.48-2.84,1.99-4.58.51-1.74.76-3.51.76-5.31,0-1.41-.2-2.95-.61-4.64-.41-1.68-1.01-3.06-1.81-4.13-2.02-2.58-4.64-3.87-7.87-3.87Z"/>
      <path class="cls-1" d="M645.73,917.61c.32,0,.62.15.88.45.26.3.4.66.42,1.08,0,.54-.2,1.36-.59,2.45-.44,1.21-1.03,2.66-1.77,4.36-.74,1.7-1.6,3.63-2.57,5.79s-1.54,3.43-1.69,3.78c-.07.14-.06.27.01.41.08.14.17.2.29.2.32,0,.94-.33,1.85-.99.91-.66,1.74-1.37,2.48-2.11.08-.05.17-.09.24-.13.08-.03.15-.06.22-.08.07-.02.12,0,.15.04.03.04.04.11.03.22,0,.34-.18.79-.54,1.35-1.07,1.51-2.45,2.77-4.15,3.77-1.7,1-3.13,1.5-4.3,1.5-.34,0-.69-.18-1.04-.54-.36-.36-.56-.82-.61-1.4,0-1.09.47-2.69,1.4-4.81,2.68-6.13,4.21-9.62,4.58-10.47.08-.2.11-.38.09-.53s-.08-.27-.17-.34c-.08-.08-.16-.1-.23-.06-.65.24-1.67,1-3.08,2.29-.59.48-.93.57-1.02.28-.02-.02-.03-.04-.03-.08,0-.29.16-.64.48-1.04,1.41-1.66,2.89-2.98,4.43-3.94,1.54-.96,2.96-1.44,4.23-1.44ZM647.03,907.86c.75,0,1.28.26,1.6.78.32.52.48,1.07.48,1.64-.02.98-.34,1.76-.97,2.33-.63.57-1.27.85-1.91.85s-1.19-.24-1.59-.71c-.4-.48-.58-1.06-.55-1.76,0-.8.28-1.52.84-2.17.56-.65,1.26-.97,2.09-.97Z"/>
      <path class="cls-1" d="M659.23,917.61c1.12,0,2.07.44,2.85,1.32.32.39.48.81.48,1.25.03.39-.21.88-.73,1.46-.52.59-.97.88-1.36.88s-.81-.25-1.3-.74c-.41-.46-.92-.87-1.53-1.25s-1.09-.56-1.45-.56c-.41,0-.77.17-1.1.5-.32.33-.48.73-.48,1.21,0,.53.26,1.24.79,2.14.53.9,1.32,2.11,2.39,3.64,1.17,1.83,1.78,3.46,1.83,4.86.02.93-.34,1.88-1.08,2.85-.74.97-1.69,1.83-2.84,2.57-1.97,1.29-3.74,1.94-5.32,1.94-1.07,0-1.94-.3-2.62-.9-.68-.6-1.04-1.36-1.07-2.28,0-.39.11-.85.33-1.39.22-.53.48-.91.76-1.13.37-.37.76-.31,1.15.18,1.88,2.12,3.45,3.18,4.69,3.18.63,0,1.13-.2,1.52-.6s.56-.91.52-1.54c0-.42-.2-1.02-.6-1.78-.4-.76-1.13-1.98-2.2-3.64-1.16-1.82-1.73-3.37-1.73-4.66,0-.82.27-1.69.8-2.61.53-.93,1.28-1.77,2.23-2.53.75-.65,1.6-1.2,2.56-1.67.96-.47,1.8-.7,2.51-.7Z"/>
      <path class="cls-1" d="M676.91,917.61c1.12,0,2,.23,2.65.69.87.66,1.3,1.34,1.3,2.04,0,.54-.28,1.12-.84,1.73s-1.01.92-1.35.92c-.51,0-1.08-.54-1.71-1.6-.49-.78-.9-1.36-1.24-1.73-.33-.37-.67-.56-1.01-.56-.51,0-1.01.24-1.49.71-.48.48-1.03,1.27-1.64,2.37-.85,1.49-1.53,3.35-2.05,5.58s-.78,4.22-.78,5.99c0,.68.19,1.32.56,1.92.37.6.83.9,1.38.9.68,0,1.49-.26,2.43-.79.94-.53,1.91-1.36,2.89-2.5.41-.41.7-.52.87-.33.05.05.08.13.08.23,0,.32-.18.82-.53,1.5-1.99,3.35-4.73,5.02-8.23,5.02-.42,0-.89-.12-1.4-.36-.51-.24-1.02-.59-1.53-1.04-.51-.46-.93-1.1-1.27-1.92-.34-.82-.51-1.74-.51-2.74,0-2.38.54-4.78,1.63-7.21.97-2.02,2.06-3.67,3.29-4.94,1.07-1.05,2.41-1.96,4.02-2.73,1.61-.76,3.11-1.15,4.48-1.15Z"/>
      <path class="cls-1" d="M693.44,917.61c.95,0,1.81.22,2.57.65.76.43,1.37.99,1.82,1.68.45.69.79,1.43,1.03,2.23.24.8.36,1.6.36,2.39,0,1.48-.2,2.92-.61,4.33-.41,1.41-.94,2.66-1.59,3.74-.65,1.09-1.32,2.03-2,2.83-.68.8-1.36,1.46-2.04,1.99-1.92,1.49-4.12,2.24-6.6,2.24-.59,0-1.19-.12-1.8-.36s-1.18-.6-1.75-1.1c-.56-.49-1.01-1.19-1.36-2.1-.35-.91-.52-1.95-.52-3.12,0-1.61.33-3.4,1.01-5.36s1.63-3.72,2.87-5.29c1.26-1.54,2.67-2.73,4.24-3.54,1.57-.81,3.03-1.22,4.37-1.22ZM693.8,918.71c-.56,0-1.21.33-1.96.98-.75.65-1.5,1.58-2.27,2.79-1.04,1.68-1.97,3.85-2.8,6.5-.83,2.65-1.25,4.87-1.25,6.65,0,1,.13,1.74.39,2.22.26.48.58.71.96.71.76,0,1.71-.73,2.83-2.19,1.17-1.58,2.36-4.07,3.55-7.46,1.2-3.4,1.8-6.06,1.8-8,0-.73-.13-1.28-.4-1.64-.26-.37-.55-.55-.85-.55Z"/>
      <path class="cls-1" d="M701.97,925.56c.07-.95.45-1.96,1.16-3.03.71-1.07,1.49-2,2.36-2.78.58-.49,1.18-.9,1.81-1.22.63-.32,1.15-.48,1.58-.48.59,0,1.47.02,2.64.05,1.16.03,1.86.05,2.1.05,1.15,0,1.85-.02,2.09-.05.15-.03.26.03.33.2.07.17.04.34-.08.51-.15.24-.62.86-1.39,1.87s-1.34,1.81-1.69,2.41c-1.99,3.31-3.01,6.01-3.08,8.1-.02,1.14.25,2.04.8,2.7.55.66,1.29.99,2.23.99,1.46,0,2.94-.56,4.44-1.67,1.5-1.11,2.73-2.45,3.67-4s1.44-3,1.49-4.34c.03-.58-.12-1.18-.46-1.82s-.7-1.18-1.07-1.64c-.37-.46-.56-.71-.56-.76-.08-.54-.02-.98.2-1.3.37-.56.83-1.05,1.38-1.46.54-.42,1.06-.62,1.55-.62s.83.31,1.06.94c.23.63.33,1.34.29,2.14-.17,3.55-1.22,6.95-3.15,10.21-1.93,3.26-4.23,5.73-6.92,7.41-1.77,1.09-3.59,1.63-5.48,1.63-1.02,0-1.94-.42-2.76-1.26s-1.21-2.01-1.16-3.5c.05-1.65.75-3.56,2.09-5.73.82-1.34,2.35-3.55,4.61-6.62.1-.2.13-.36.08-.47-.05-.11-.14-.17-.25-.17-1.27-.19-3.25-.2-5.94-.05-1.15.05-1.73.54-1.73,1.48-.02.41.22,1,.7,1.78.48.78.73,1.19.73,1.22-.05.39-.3.74-.74,1.06-.44.31-.88.47-1.3.47s-.82-.24-1.15-.73-.48-.99-.48-1.52Z"/>
      <path class="cls-1" d="M739.64,917.61c1.27,0,2.27.33,2.98.98.71.65,1.07,1.37,1.07,2.15,0,1.94-1.08,3.66-3.23,5.17-.78.54-1.95,1.05-3.49,1.52-1.54.47-3.02.73-4.43.78-.03.02-.08.06-.15.13s-.14.14-.2.23l-.1.13c-.53,1.55-.79,3.12-.79,4.74,0,.9.21,1.6.62,2.09.42.49.97.74,1.67.74.76,0,1.65-.33,2.66-.98,1.01-.65,2.03-1.55,3.07-2.69.03-.03.08-.04.15-.03.07.02.13.06.19.13.06.07.09.15.09.25,0,.58-.31,1.35-.94,2.32-1.04,1.48-2.26,2.59-3.68,3.32-1.42.74-2.81,1.11-4.19,1.11-1.26,0-2.37-.56-3.35-1.67s-1.46-2.56-1.46-4.34.38-3.74,1.15-5.6c.76-1.87,1.67-3.49,2.73-4.87,1.32-1.71,2.85-3.08,4.58-4.09,1.73-1.01,3.42-1.52,5.07-1.52ZM739.16,918.66c-1.02,0-2.14.78-3.38,2.33-1.23,1.55-2.28,3.49-3.15,5.82-.05.07-.05.14,0,.2.05.07.12.1.2.1,1.53-.27,3.12-1.18,4.78-2.74,1.66-1.55,2.48-3,2.48-4.34,0-.92-.31-1.38-.94-1.38Z"/>
      <path class="cls-1" d="M761.83,917.46c.76,0,1.33.25,1.69.76s.55,1.11.55,1.81c0,1.31-.4,2.37-1.21,3.2-.81.82-1.58,1.24-2.33,1.24-.2,0-.39-.12-.55-.36s-.24-.5-.24-.79c.05-1.85-.2-2.78-.74-2.78-.27,0-.53.09-.78.27-.25.18-.64.69-1.18,1.53-.54.84-1.21,2.07-1.99,3.68-3.72,7.54-5.86,11.78-6.42,12.74-.32.63-.72.94-1.2.94-.39,0-.82-.09-1.29-.28-.47-.19-.83-.49-1.08-.92-.24-.37-.29-.9-.15-1.58.02-.07.64-1.8,1.86-5.2,1.22-3.4,2.12-6.01,2.7-7.84.53-1.53.48-2.29-.13-2.29-.68,0-1.63.5-2.85,1.5-.53.53-.88.79-1.04.79-.1,0-.18-.05-.23-.15-.05-.1-.06-.22-.03-.36.24-1.15,1.07-2.36,2.5-3.6,1.43-1.25,2.99-1.87,4.69-1.87.59,0,1.11.2,1.55.61.44.41.65.97.64,1.68,0,.27-.57,2.1-1.71,5.48,0,.1.05.18.15.23.1.05.2,0,.31-.13.14-.2.39-.59.76-1.16.37-.57.67-1.02.89-1.35.22-.33.52-.75.9-1.26.38-.51.76-.99,1.13-1.45,1.66-2.05,3.27-3.08,4.81-3.08Z"/>
      <path class="cls-1" d="M779.38,917.61c1.94,0,3.26,1.62,3.97,4.86.2.88.33,1.92.39,3.09.06,1.18.07,2.19.04,3.02-.04.83-.09,1.88-.15,3.16-.07,1.27-.11,2.13-.13,2.57-.03.66.03.98.18.97.1-.02.25-.2.43-.56,1.31-2.34,2.42-5.03,3.34-8.05s1.43-5.82,1.53-8.38c0-.14.06-.28.18-.45.12-.16.23-.24.33-.24.49,0,.94.25,1.34.74.4.49.6,1.04.6,1.63,0,1.73-.67,4.16-2.02,7.28-1.35,3.12-2.87,6.17-4.55,9.14-.37.63-.75,1.22-1.12,1.78-.37.56-.72,1.05-1.03,1.48-.31.42-.52.72-.62.89-1.07,1.72-2.28,3.43-3.64,5.16-1.36,1.72-2.67,3.09-3.92,4.09-1.27,1.04-2.36,1.73-3.25,2.08-.89.35-1.79.52-2.69.52-.78,0-1.43-.25-1.95-.74-.52-.49-.78-1.06-.78-1.71,0-.85.29-1.58.88-2.2.59-.62,1.13-.93,1.64-.93.42,0,.72.3.89.89.32,1.15,1.07,1.73,2.24,1.73,1.41,0,2.82-.79,4.23-2.37,1.38-1.72,2.36-4.04,2.95-6.98.29-1.43.51-3.11.66-5.04.15-1.94.18-3.96.09-6.09-.09-2.12-.34-3.85-.75-5.2-.25-.78-.5-1.33-.74-1.66-.24-.32-.51-.48-.82-.48-.76,0-1.71,1.1-2.83,3.29-.22.49-.39.74-.51.74-.1,0-.2-.08-.29-.25-.09-.17-.14-.35-.14-.53,0-.98.25-2.03.74-3.13s1.22-2.07,2.18-2.89c.96-.82,1.99-1.24,3.09-1.24Z"/>
      <path class="cls-1" d="M806.02,917.61c.95,0,1.81.22,2.57.65.76.43,1.37.99,1.82,1.68.45.69.79,1.43,1.03,2.23.24.8.36,1.6.36,2.39,0,1.48-.2,2.92-.61,4.33-.41,1.41-.94,2.66-1.59,3.74-.65,1.09-1.32,2.03-2,2.83-.68.8-1.36,1.46-2.04,1.99-1.92,1.49-4.12,2.24-6.6,2.24-.59,0-1.19-.12-1.8-.36s-1.18-.6-1.75-1.1c-.56-.49-1.01-1.19-1.36-2.1-.35-.91-.52-1.95-.52-3.12,0-1.61.33-3.4,1.01-5.36s1.63-3.72,2.87-5.29c1.26-1.54,2.67-2.73,4.24-3.54,1.57-.81,3.03-1.22,4.37-1.22ZM806.38,918.71c-.56,0-1.21.33-1.96.98-.75.65-1.5,1.58-2.27,2.79-1.04,1.68-1.97,3.85-2.8,6.5-.83,2.65-1.25,4.87-1.25,6.65,0,1,.13,1.74.39,2.22.26.48.58.71.96.71.76,0,1.71-.73,2.83-2.19,1.17-1.58,2.36-4.07,3.55-7.46,1.2-3.4,1.8-6.06,1.8-8,0-.73-.13-1.28-.4-1.64-.26-.37-.55-.55-.85-.55Z"/>
      <path class="cls-1" d="M824.84,917.66c.44,0,.82.24,1.13.71.31.48.32,1.15.01,2.01-.27.85-1.29,3.24-3.06,7.18-1.77,3.94-2.82,6.36-3.16,7.26-.17.58-.19.99-.06,1.25.13.25.33.38.6.38s.82-.36,1.63-1.07c.82-.71,1.7-1.63,2.65-2.75.92-1.02,1.92-2.29,3.01-3.82,1.09-1.53,1.99-2.87,2.71-4.04.72-1.16,1.46-2.39,2.23-3.67.76-1.28,1.19-1.99,1.27-2.13.24-.34.6-.66,1.09-.97s1.05-.46,1.68-.46c.34,0,.59.14.74.42.15.28.23.56.23.83,0,.22-.02.46-.06.73-.04.26-.09.5-.14.7s-.13.47-.24.79c-.11.32-.2.56-.25.73-.06.16-.16.42-.29.78-.14.36-.22.59-.25.69-2.17,5.62-3.58,9.21-4.23,10.77-.07.12-.05.25.04.41.09.15.19.23.29.23.97,0,2.56-1.15,4.79-3.44.1-.08.22-.1.34-.05.13.05.19.12.19.2,0,.31-.21.82-.64,1.55-.93,1.6-2.41,3.13-4.43,4.6-2.02,1.47-3.69,2.2-5.02,2.2-.31,0-.59-.14-.85-.43-.26-.29-.39-.59-.39-.89,0-.59.18-1.36.54-2.29.15-.42.93-2.42,2.34-5.99.03-.1.03-.2,0-.31-.03-.1-.09-.18-.17-.23-.08-.05-.15-.05-.22,0-1.14,1.49-2.51,3.05-4.11,4.67-1.61,1.62-2.94,2.83-4.01,3.63-1.7,1.22-3.24,1.83-4.64,1.83-.48,0-.88-.2-1.22-.6-.34-.4-.51-.86-.51-1.39,0-.66.21-1.62.64-2.88.66-1.92,2.31-5.93,4.94-12.05.07-.15.07-.29,0-.42-.07-.13-.15-.19-.25-.19-.22,0-.75.24-1.59.73s-1.6.97-2.28,1.46c-.08.08-.17.13-.27.14-.09,0-.17,0-.24-.05-.07-.04-.1-.09-.1-.14,0-.37.26-.87.79-1.48,1.02-1.17,2.36-2.33,4.04-3.46,1.67-1.14,3.26-1.71,4.78-1.71Z"/>
      <path class="cls-1" d="M856.86,917.46c.76,0,1.33.25,1.69.76s.55,1.11.55,1.81c0,1.31-.4,2.37-1.21,3.2-.81.82-1.58,1.24-2.33,1.24-.2,0-.39-.12-.55-.36s-.24-.5-.24-.79c.05-1.85-.2-2.78-.74-2.78-.27,0-.53.09-.78.27-.25.18-.64.69-1.18,1.53-.54.84-1.21,2.07-1.99,3.68-3.72,7.54-5.86,11.78-6.42,12.74-.32.63-.72.94-1.2.94-.39,0-.82-.09-1.29-.28-.47-.19-.83-.49-1.08-.92-.24-.37-.29-.9-.15-1.58.02-.07.64-1.8,1.86-5.2,1.22-3.4,2.12-6.01,2.7-7.84.53-1.53.48-2.29-.13-2.29-.68,0-1.63.5-2.85,1.5-.53.53-.88.79-1.04.79-.1,0-.18-.05-.23-.15-.05-.1-.06-.22-.03-.36.24-1.15,1.07-2.36,2.5-3.6,1.43-1.25,2.99-1.87,4.69-1.87.59,0,1.11.2,1.55.61.44.41.65.97.64,1.68,0,.27-.57,2.1-1.71,5.48,0,.1.05.18.15.23.1.05.2,0,.31-.13.14-.2.39-.59.76-1.16.37-.57.67-1.02.89-1.35.22-.33.52-.75.9-1.26.38-.51.76-.99,1.13-1.45,1.66-2.05,3.27-3.08,4.81-3.08Z"/>
      <path class="cls-1" d="M881.77,917.61c1.99,0,3.55.35,4.69,1.04.7.41,1.22,1.04,1.57,1.9.35.86.52,1.63.52,2.33,0,3.06-1.02,6.1-3.07,9.12-2.05,3.02-4.67,5.34-7.88,6.95-1.02.49-1.89.74-2.62.74-.12,0-.24-.02-.36-.06-.12-.04-.28-.12-.47-.23-.2-.11-.33-.19-.42-.24-.14-.07-.29-.02-.46.15-.39.51-.71,1.33-.94,2.47-.04.15-.24,1.06-.62,2.73-.38,1.66-.64,2.87-.78,3.62-.15.87-.1,1.49.17,1.88.26.39.99.65,2.18.79.29.02.53.09.74.22s.31.26.31.4c0,.12-.11.25-.33.38-.22.14-.51.2-.87.2-5.35,0-9,.15-10.95.46-.8.12-1.2-.05-1.2-.51,0-.22.38-.47,1.15-.74.97-.25,1.67-.57,2.1-.94.43-.37.81-.99,1.13-1.86.44-1.22,2.98-10.43,7.62-27.61,0-.1-.02-.21-.06-.32-.04-.11-.1-.16-.17-.14-.78.17-2.08.53-3.9,1.1-.46.15-.69.12-.69-.1,0-.32.3-.67.89-1.04.37-.24,1-.54,1.88-.92.88-.37,1.65-.66,2.29-.87.27-.08.46-.25.56-.51.08-.34.53-1.68,1.33-4.02.07-.22.21-.43.42-.64.21-.2.39-.31.55-.31.81,0,1.57.23,2.25.7.69.47,1.03.93,1.03,1.39,0,.03-.14.78-.41,2.24,0,.09.03.18.09.28.06.1.12.15.17.15,1.61-.12,2.47-.18,2.57-.18ZM880.09,919.24c-.29,0-.74.05-1.35.15-.08.02-.19.1-.31.25s-.2.28-.23.38c-.07.19-.32,1.12-.76,2.8s-.98,3.71-1.6,6.1c-.63,2.39-1.14,4.28-1.53,5.69-.25.87-.38,1.61-.38,2.24-.03.25.03.55.2.89.17.34.35.51.54.51.24,0,.6-.14,1.08-.42.48-.28.98-.66,1.49-1.13,1.49-1.38,2.87-3.47,4.11-6.29s1.87-5.1,1.87-6.85c0-1.22-.25-2.25-.76-3.08-.51-.83-1.3-1.25-2.37-1.25Z"/>
      <path class="cls-1" d="M905.79,918.4c.22,0,.43.04.62.13s.38.2.55.33c.17.14.28.21.33.23.15.07.27.02.36-.15.39-.58.75-1.01,1.09-1.3.34-.29.6-.43.79-.43.36,0,.77.11,1.24.32.47.21.85.44,1.16.68.19.19.28.36.28.51-.05.46-.77,2.67-2.15,6.62-1.38,3.96-2.44,6.92-3.17,8.89-.07.17-.05.32.05.46.1.14.22.2.36.2,1.12,0,2.73-1.11,4.84-3.34.08-.12.19-.08.31.1.05.08.08.18.08.28,0,.24-.21.74-.64,1.5-1.04,1.66-2.45,3.12-4.25,4.38-1.8,1.26-3.57,1.88-5.3,1.88-.53,0-.91-.14-1.15-.43-.24-.29-.36-.56-.36-.81,0-.14.04-.36.13-.68.08-.31.22-.73.41-1.24.19-.51.37-1.02.56-1.53.19-.51.44-1.17.75-1.97.31-.81.58-1.52.8-2.15.07-.15.02-.24-.15-.25-.14-.02-.25.03-.36.13-5.6,5.96-9.57,8.94-11.9,8.94-.51,0-.98-.27-1.43-.81-.44-.54-.66-1.21-.66-2.01s.31-1.84.93-3.17c.62-1.33,1.37-2.59,2.25-3.76,2.24-3.04,4.9-5.79,7.97-8.25,1.24-.92,2.4-1.69,3.48-2.33,1.08-.64,1.8-.96,2.18-.96ZM904.11,921.54c-1.65,0-3.28.83-4.89,2.5-1.14,1.19-2.19,2.76-3.16,4.7-.97,1.94-1.45,3.58-1.45,4.9,0,.22.08.51.23.87.15.36.39.54.71.54,1.05,0,2.53-.88,4.43-2.65,2.09-2.09,4.09-5.39,6.01-9.91.05-.08.07-.17.06-.27,0-.09-.03-.17-.05-.23-.03-.06-.05-.09-.06-.09-.34-.24-.95-.36-1.83-.36Z"/>
      <path class="cls-1" d="M926.65,911.83c.08,0,.17.04.24.11.08.08.13.22.17.42s0,.48-.1.81c-.27,1.12-.72,2.66-1.35,4.61-.03.1-.04.22-.03.36.02.14.06.2.13.2.27,0,.99-.03,2.17-.08,1.17-.05,1.88-.08,2.11-.08.17,0,.32.06.46.18.14.12.2.23.2.33,0,.15-.14.34-.41.55s-.65.36-1.15.45c-.49.08-1.2.17-2.11.24-.92.08-1.46.12-1.63.14-.36.07-.59.24-.69.51-.75,2.04-2.17,6.44-4.28,13.19-.07.22-.06.42.01.61.08.19.19.28.34.28.34,0,.94-.29,1.81-.88.87-.59,1.74-1.3,2.62-2.15.05-.07.17-.1.36-.09.19,0,.28.11.28.29,0,.48-.26,1.05-.79,1.73-1.22,1.68-2.83,3.12-4.83,4.32-2,1.2-3.57,1.8-4.72,1.8-.27,0-.57-.2-.9-.61-.33-.41-.5-.75-.5-1.02,0-.66.23-1.64.69-2.93.14-.41.5-1.49,1.08-3.26.59-1.77,1.22-3.69,1.91-5.77s1.3-3.9,1.85-5.46c.05-.1.05-.21,0-.33-.05-.12-.12-.18-.2-.18-.25-.02-.66-.03-1.21-.05-.55-.02-.93-.03-1.13-.05-.15-.02-.29-.09-.41-.23-.12-.14-.18-.24-.18-.31,0-.2.13-.39.38-.55.25-.16.48-.26.66-.29.42-.08,1.25-.15,2.47-.2.27-.05.44-.17.51-.36,1.09-2.51,1.75-3.94,1.99-4.28.27-.37.86-.8,1.77-1.27.91-.48,1.71-.71,2.41-.71Z"/>
      <path class="cls-1" d="M948.17,917.61c1.1,0,1.94.4,2.52,1.18s.87,1.77.87,2.94c0,2.24-.53,4.72-1.58,7.42s-2.07,4.63-3.06,5.77c-.92,1.1-2.03,2.06-3.34,2.88-.42.29-1.28.73-2.57,1.34-1.29.6-2.11.9-2.45.9-.56,0-1.01-.16-1.35-.48-.34-.32-.51-.63-.51-.92s.14-.66.41-1.12c.27-.46.52-.8.74-1.02.1-.08.25-.14.45-.18.2-.03.32-.03.37.03,1.31.9,2.2,1.35,2.67,1.35.36,0,.67-.26.94-.79.9-1.46,1.77-3.68,2.62-6.67.85-2.99,1.27-5.39,1.27-7.21,0-.71-.11-1.34-.32-1.88-.21-.54-.56-.81-1.03-.81-1.49,0-3.58,2.01-6.27,6.04-.75,1.17-1.58,2.63-2.5,4.37-.92,1.74-1.79,3.46-2.61,5.16-.82,1.7-1.28,2.63-1.36,2.8-.12.31-.33.56-.65.75s-.6.29-.85.29c-.29,0-.67-.17-1.16-.5-.48-.33-.78-.58-.88-.75-.19-.42-.17-1.05.05-1.88.53-1.88,1.47-5.18,2.83-9.88s2.56-8.9,3.59-12.6c1.04-3.69,1.73-6.27,2.09-7.73.1-.36.03-.68-.22-.98-.25-.3-.75-.68-1.52-1.16-.37-.22-.56-.42-.56-.61,0-.12.09-.24.27-.37.18-.13.4-.2.67-.22.78-.08,2.14-.26,4.06-.54,1.93-.27,3.09-.41,3.5-.41.07,0,.12.02.17.06.04.04.08.11.12.22.03.1.05.23.04.38,0,.15-.03.34-.08.57-.04.23-.11.48-.19.75-.2.68-.65,2.12-1.34,4.33-.69,2.21-1.59,5.09-2.71,8.65-1.12,3.56-2.01,6.41-2.67,8.57-.03.1-.04.19-.01.25s.07.11.13.11c.06,0,.12-.03.19-.11.83-1.15,1.86-2.36,3.08-3.62,1.22-1.26,2.5-2.33,3.85-3.21,1.46-.98,2.89-1.48,4.28-1.48Z"/>
      <path class="cls-1" d="M956.73,932.39c.58,0,1.08.14,1.5.43.42.29.74.65.96,1.1.21.44.37.88.47,1.31.1.43.15.84.15,1.24,0,.98-.23,1.94-.67,2.85-.45.92-1.01,1.69-1.67,2.33-.66.64-1.39,1.21-2.18,1.72-.79.51-1.5.9-2.13,1.17-.63.27-1.16.45-1.61.54-.7.12-1.04.03-1.04-.28,0-.19.33-.48.99-.87,2.89-1.7,4.33-3.49,4.33-5.37,0-.65-.18-1.13-.55-1.45-.37-.32-.91-.57-1.64-.74-.1,0-.21-.06-.32-.19s-.17-.24-.17-.34c0-.82.38-1.59,1.13-2.33.76-.74,1.57-1.11,2.43-1.11Z"/>
      <path class="cls-1" d="M995.35,905.51c2.29,0,4.37.36,6.23,1.07,1.86.71,3.32,1.54,4.39,2.47,1.53,1.27,2.7,2.88,3.53,4.83.82,1.94,1.24,3.92,1.24,5.92,0,1.63-.2,3.21-.6,4.73-.4,1.52-.9,2.86-1.51,4.01s-1.33,2.23-2.15,3.22c-.82.99-1.63,1.82-2.41,2.47-.78.65-1.57,1.2-2.37,1.64-3.74,2.19-8.27,3.29-13.6,3.29-.53,0-1.98-.03-4.36-.1-2.38-.07-3.95-.1-4.71-.1-.56,0-1.53.03-2.9.1-1.38.07-2.24.1-2.6.1-.31,0-.59-.06-.85-.18-.26-.12-.39-.25-.39-.38,0-.41.44-.64,1.32-.69.54-.08.97-.16,1.29-.23.31-.07.63-.21.94-.43.31-.22.56-.42.73-.59.17-.17.39-.52.65-1.04.26-.53.48-1,.66-1.43.18-.42.45-1.13.83-2.11.71-1.87,1.72-4.9,3.03-9.11,1.31-4.2,2.4-7.92,3.29-11.14.46-1.56.62-2.67.5-3.31-.13-.65-.59-1.02-1.39-1.12-.2-.03-1-.1-2.39-.2-.8-.08-1.2-.31-1.2-.69,0-.12.14-.24.41-.37s.54-.19.79-.19c.61,0,2.1-.06,4.48-.18,3.4-.17,6.44-.25,9.14-.25ZM993.92,906.81c-.19,0-.45.12-.79.36-.34.24-.58.53-.71.87-.7,1.63-2.16,6.23-4.38,13.81-.36,1.22-.77,2.61-1.25,4.16s-.83,2.74-1.07,3.55c-.24.82-.48,1.65-.73,2.5-.25.85-.42,1.48-.52,1.9-.1.42-.15.71-.15.88,0,.27.06.61.18,1.01.12.4.24.66.36.78.25.31.74.6,1.46.88.72.28,1.33.42,1.82.42,1.04,0,2.31-.25,3.82-.74,1.51-.49,2.96-1.19,4.36-2.09.87-.58,1.74-1.35,2.61-2.32s1.72-2.11,2.53-3.43c.82-1.32,1.48-2.84,1.99-4.58.51-1.74.76-3.51.76-5.31,0-1.41-.2-2.95-.61-4.64-.41-1.68-1.01-3.06-1.81-4.13-2.02-2.58-4.64-3.87-7.87-3.87Z"/>
      <path class="cls-1" d="M1026.32,917.61c1.27,0,2.27.33,2.98.98.71.65,1.07,1.37,1.07,2.15,0,1.94-1.08,3.66-3.23,5.17-.78.54-1.95,1.05-3.49,1.52-1.54.47-3.02.73-4.43.78-.03.02-.08.06-.15.13s-.14.14-.2.23l-.1.13c-.53,1.55-.79,3.12-.79,4.74,0,.9.21,1.6.62,2.09.42.49.97.74,1.67.74.76,0,1.65-.33,2.66-.98,1.01-.65,2.03-1.55,3.07-2.69.03-.03.08-.04.15-.03.07.02.13.06.19.13.06.07.09.15.09.25,0,.58-.31,1.35-.94,2.32-1.04,1.48-2.26,2.59-3.68,3.32-1.42.74-2.81,1.11-4.19,1.11-1.26,0-2.37-.56-3.35-1.67s-1.46-2.56-1.46-4.34.38-3.74,1.15-5.6c.76-1.87,1.67-3.49,2.73-4.87,1.32-1.71,2.85-3.08,4.58-4.09,1.73-1.01,3.42-1.52,5.07-1.52ZM1025.84,918.66c-1.02,0-2.14.78-3.38,2.33-1.23,1.55-2.28,3.49-3.15,5.82-.05.07-.05.14,0,.2.05.07.12.1.2.1,1.53-.27,3.12-1.18,4.78-2.74,1.66-1.55,2.48-3,2.48-4.34,0-.92-.31-1.38-.94-1.38Z"/>
      <path class="cls-1" d="M1051.69,902.18c1.8,0,3.18.39,4.14,1.17.96.78,1.44,1.7,1.44,2.75,0,.65-.19,1.2-.56,1.66-.32.42-.79.75-1.4.97s-1.14.33-1.58.33c-.2,0-.41-.14-.62-.42-.21-.28-.32-.54-.32-.78-.02-1.38-.26-2.45-.74-3.22-.48-.77-1.09-1.16-1.86-1.16-1.82,0-3.4,1.44-4.76,4.33-1.09,2.38-2.25,5.77-3.49,10.19-.03.05-.04.14-.01.27.03.13.1.19.22.19l5.55-.1c3.89-.15,6.25-.37,7.08-.64.1-.03.19,0,.27.1.08.1.12.23.13.37,0,.14-.02.3-.09.47-1.65,3.92-3.61,9.54-5.88,16.86-.12.34-.02.51.31.51.37,0,.98-.29,1.81-.87.83-.58,1.66-1.27,2.47-2.09.08-.12.21-.18.38-.18s.25.08.25.23c0,.32-.25.86-.74,1.6-1.09,1.51-2.45,2.72-4.08,3.62-1.63.9-3.02,1.35-4.18,1.35-.39,0-.77-.25-1.15-.76s-.56-1.06-.56-1.66c0-.29.03-.57.1-.84.07-.27.2-.69.39-1.26s.34-1,.45-1.29c2.7-8.12,4.19-12.57,4.48-13.35.05-.12.06-.28.04-.48-.03-.2-.09-.31-.19-.31-3.77,0-6.12.05-7.05.15-.39.05-.65.3-.76.74-.14.49-.72,2.74-1.75,6.74s-1.91,7.37-2.65,10.11c-.74,2.74-1.29,4.66-1.67,5.74-1.31,3.57-3.76,6.4-7.36,8.51-1.49.9-2.94,1.35-4.33,1.35-.92,0-1.84-.28-2.76-.83s-1.38-1.27-1.36-2.15c0-.32.2-.75.6-1.29.4-.54.85-.92,1.34-1.16.56-.31,1.21-.09,1.94.64.17.19.4.45.7.79.3.34.53.6.7.78.17.18.37.37.6.59.23.21.44.37.64.46.2.09.4.14.6.14.49,0,.88-.28,1.17-.85.29-.57.75-1.77,1.38-3.6.07-.19.12-.33.15-.43.27-.8,1.38-4.87,3.31-12.21,1.94-7.34,3.13-11.78,3.59-13.31.05-.17.03-.31-.06-.43s-.22-.18-.37-.18h-2.34c-.14,0-.28-.04-.43-.11-.15-.08-.27-.16-.36-.24l-.1-.13c0-.1.1-.23.31-.4.2-.16.45-.29.74-.4.14-.05.41-.1.82-.14.41-.04.83-.08,1.27-.1.44-.03.7-.05.79-.06.27-.05.48-.25.64-.61.73-2.41,1.49-4.39,2.28-5.95.79-1.55,1.69-2.98,2.71-4.29,1.36-1.71,2.88-3.05,4.56-4,1.68-.95,3.43-1.43,5.25-1.43Z"/>
      <path class="cls-1" d="M1077.18,917.61c.8,0,1.4.27,1.8.81.4.54.58,1.15.55,1.81,0,.93-.35,2.25-1.04,3.95-.56,1.24-1.38,3.15-2.47,5.74-1.09,2.59-1.64,3.91-1.66,3.96-.08.25-.1.44-.04.56.06.12.16.18.29.18.37,0,1.04-.3,2.01-.9.97-.6,1.88-1.29,2.75-2.08.25-.2.43-.24.53-.1.03.03.04.09.03.15,0,.36-.2.87-.61,1.53-1.21,1.58-2.94,3.05-5.21,4.42-2.27,1.37-4.08,2.05-5.44,2.05-.44,0-.77-.16-.99-.48-.14-.17-.23-.44-.27-.8-.04-.36,0-.7.11-1.01.02-.03,1.04-2.22,3.08-6.56,2.04-4.34,3.25-7.06,3.64-8.16.25-.63.41-1.16.47-1.6.06-.44.04-.76-.06-.94-.1-.19-.25-.28-.46-.28-1.41,0-3.34,1.62-5.78,4.87-.85,1.14-1.86,2.69-3.03,4.65-1.17,1.96-2.35,4.02-3.54,6.19s-1.8,3.28-1.83,3.35c-.39.56-.81.84-1.25.84-.61,0-1.16-.16-1.66-.47-.49-.31-.74-.65-.74-1.01,0-.49.17-1.15.51-1.96,2.41-6.04,4.38-10.64,5.91-13.78.12-.22.11-.42-.03-.61-.14-.19-.32-.28-.56-.28-.82,0-2,.71-3.54,2.14-.24.24-.42.36-.54.36-.05,0-.11-.05-.19-.14-.08-.09-.11-.2-.11-.32.02-.22.14-.56.37-1.02s.57-.98,1.03-1.57c.46-.59.99-1.13,1.58-1.64.59-.51,1.31-.94,2.15-1.3.84-.36,1.7-.53,2.58-.53.7,0,1.27.33,1.73.98.46.65.58,1.27.36,1.85-.14.42-.73,1.8-1.78,4.13-.1.24-.14.4-.12.5.03.09.09.12.19.08s.2-.13.31-.27c2.11-2.38,4.03-4.13,5.78-5.27,1.92-1.32,3.64-1.99,5.17-1.99Z"/>
      <path class="cls-1" d="M1095.86,917.61c1.27,0,2.27.33,2.98.98.71.65,1.07,1.37,1.07,2.15,0,1.94-1.08,3.66-3.23,5.17-.78.54-1.95,1.05-3.49,1.52-1.54.47-3.02.73-4.43.78-.03.02-.08.06-.15.13s-.14.14-.2.23l-.1.13c-.53,1.55-.79,3.12-.79,4.74,0,.9.21,1.6.62,2.09.42.49.97.74,1.67.74.76,0,1.65-.33,2.66-.98,1.01-.65,2.03-1.55,3.07-2.69.03-.03.08-.04.15-.03.07.02.13.06.19.13.06.07.09.15.09.25,0,.58-.31,1.35-.94,2.32-1.04,1.48-2.26,2.59-3.68,3.32-1.42.74-2.81,1.11-4.19,1.11-1.26,0-2.37-.56-3.35-1.67s-1.46-2.56-1.46-4.34.38-3.74,1.15-5.6c.76-1.87,1.67-3.49,2.73-4.87,1.32-1.71,2.85-3.08,4.58-4.09,1.73-1.01,3.42-1.52,5.07-1.52ZM1095.37,918.66c-1.02,0-2.14.78-3.38,2.33-1.23,1.55-2.28,3.49-3.15,5.82-.05.07-.05.14,0,.2.05.07.12.1.2.1,1.53-.27,3.12-1.18,4.78-2.74,1.66-1.55,2.48-3,2.48-4.34,0-.92-.31-1.38-.94-1.38Z"/>
      <path class="cls-1" d="M1116.26,917.61c1.94,0,3.26,1.62,3.97,4.86.2.88.33,1.92.39,3.09.06,1.18.07,2.19.04,3.02-.04.83-.09,1.88-.15,3.16-.07,1.27-.11,2.13-.13,2.57-.03.66.03.98.18.97.1-.02.25-.2.43-.56,1.31-2.34,2.42-5.03,3.34-8.05s1.43-5.82,1.53-8.38c0-.14.06-.28.18-.45.12-.16.23-.24.33-.24.49,0,.94.25,1.34.74.4.49.6,1.04.6,1.63,0,1.73-.67,4.16-2.02,7.28-1.35,3.12-2.87,6.17-4.55,9.14-.37.63-.75,1.22-1.12,1.78-.37.56-.72,1.05-1.03,1.48-.31.42-.52.72-.62.89-1.07,1.72-2.28,3.43-3.64,5.16-1.36,1.72-2.67,3.09-3.92,4.09-1.27,1.04-2.36,1.73-3.25,2.08-.89.35-1.79.52-2.69.52-.78,0-1.43-.25-1.95-.74-.52-.49-.78-1.06-.78-1.71,0-.85.29-1.58.88-2.2.59-.62,1.13-.93,1.64-.93.42,0,.72.3.89.89.32,1.15,1.07,1.73,2.24,1.73,1.41,0,2.82-.79,4.23-2.37,1.38-1.72,2.36-4.04,2.95-6.98.29-1.43.51-3.11.66-5.04.15-1.94.18-3.96.09-6.09-.09-2.12-.34-3.85-.75-5.2-.25-.78-.5-1.33-.74-1.66-.24-.32-.51-.48-.82-.48-.76,0-1.71,1.1-2.83,3.29-.22.49-.39.74-.51.74-.1,0-.2-.08-.29-.25-.09-.17-.14-.35-.14-.53,0-.98.25-2.03.74-3.13s1.22-2.07,2.18-2.89c.96-.82,1.99-1.24,3.09-1.24Z"/>
      <path class="cls-1" d="M1142.9,917.61c.95,0,1.81.22,2.57.65.76.43,1.37.99,1.82,1.68.45.69.79,1.43,1.03,2.23.24.8.36,1.6.36,2.39,0,1.48-.2,2.92-.61,4.33-.41,1.41-.94,2.66-1.59,3.74-.65,1.09-1.32,2.03-2,2.83-.68.8-1.36,1.46-2.04,1.99-1.92,1.49-4.12,2.24-6.6,2.24-.59,0-1.19-.12-1.8-.36s-1.18-.6-1.75-1.1c-.56-.49-1.01-1.19-1.36-2.1-.35-.91-.52-1.95-.52-3.12,0-1.61.33-3.4,1.01-5.36s1.63-3.72,2.87-5.29c1.26-1.54,2.67-2.73,4.24-3.54,1.57-.81,3.03-1.22,4.37-1.22ZM1143.26,918.71c-.56,0-1.21.33-1.96.98-.75.65-1.5,1.58-2.27,2.79-1.04,1.68-1.97,3.85-2.8,6.5-.83,2.65-1.25,4.87-1.25,6.65,0,1,.13,1.74.39,2.22.26.48.58.71.96.71.76,0,1.71-.73,2.83-2.19,1.17-1.58,2.36-4.07,3.55-7.46,1.2-3.4,1.8-6.06,1.8-8,0-.73-.13-1.28-.4-1.64-.26-.37-.55-.55-.85-.55Z"/>
      <path class="cls-1" d="M1161.72,917.66c.44,0,.82.24,1.13.71.31.48.32,1.15.01,2.01-.27.85-1.29,3.24-3.06,7.18-1.77,3.94-2.82,6.36-3.16,7.26-.17.58-.19.99-.06,1.25.13.25.33.38.6.38s.82-.36,1.63-1.07c.82-.71,1.7-1.63,2.65-2.75.92-1.02,1.92-2.29,3.01-3.82,1.09-1.53,1.99-2.87,2.71-4.04.72-1.16,1.46-2.39,2.23-3.67.76-1.28,1.19-1.99,1.27-2.13.24-.34.6-.66,1.09-.97s1.05-.46,1.68-.46c.34,0,.59.14.74.42.15.28.23.56.23.83,0,.22-.02.46-.06.73-.04.26-.09.5-.14.7s-.13.47-.24.79c-.11.32-.2.56-.25.73-.06.16-.16.42-.29.78-.14.36-.22.59-.25.69-2.17,5.62-3.58,9.21-4.23,10.77-.07.12-.05.25.04.41.09.15.19.23.29.23.97,0,2.56-1.15,4.79-3.44.1-.08.22-.1.34-.05.13.05.19.12.19.2,0,.31-.21.82-.64,1.55-.93,1.6-2.41,3.13-4.43,4.6-2.02,1.47-3.69,2.2-5.02,2.2-.31,0-.59-.14-.85-.43-.26-.29-.39-.59-.39-.89,0-.59.18-1.36.54-2.29.15-.42.93-2.42,2.34-5.99.03-.1.03-.2,0-.31-.03-.1-.09-.18-.17-.23-.08-.05-.15-.05-.22,0-1.14,1.49-2.51,3.05-4.11,4.67-1.61,1.62-2.94,2.83-4.01,3.63-1.7,1.22-3.24,1.83-4.64,1.83-.48,0-.88-.2-1.22-.6-.34-.4-.51-.86-.51-1.39,0-.66.21-1.62.64-2.88.66-1.92,2.31-5.93,4.94-12.05.07-.15.07-.29,0-.42-.07-.13-.15-.19-.25-.19-.22,0-.75.24-1.59.73s-1.6.97-2.28,1.46c-.08.08-.17.13-.27.14-.09,0-.17,0-.24-.05-.07-.04-.1-.09-.1-.14,0-.37.26-.87.79-1.48,1.02-1.17,2.36-2.33,4.04-3.46,1.67-1.14,3.26-1.71,4.78-1.71Z"/>
      <path class="cls-1" d="M1193.74,917.46c.76,0,1.33.25,1.69.76s.55,1.11.55,1.81c0,1.31-.4,2.37-1.21,3.2-.81.82-1.58,1.24-2.33,1.24-.2,0-.39-.12-.55-.36s-.24-.5-.24-.79c.05-1.85-.2-2.78-.74-2.78-.27,0-.53.09-.78.27-.25.18-.64.69-1.18,1.53-.54.84-1.21,2.07-1.99,3.68-3.72,7.54-5.86,11.78-6.42,12.74-.32.63-.72.94-1.2.94-.39,0-.82-.09-1.29-.28-.47-.19-.83-.49-1.08-.92-.24-.37-.29-.9-.15-1.58.02-.07.64-1.8,1.86-5.2,1.22-3.4,2.12-6.01,2.7-7.84.53-1.53.48-2.29-.13-2.29-.68,0-1.63.5-2.85,1.5-.53.53-.88.79-1.04.79-.1,0-.18-.05-.23-.15-.05-.1-.06-.22-.03-.36.24-1.15,1.07-2.36,2.5-3.6,1.43-1.25,2.99-1.87,4.69-1.87.59,0,1.11.2,1.55.61.44.41.65.97.64,1.68,0,.27-.57,2.1-1.71,5.48,0,.1.05.18.15.23.1.05.2,0,.31-.13.14-.2.39-.59.76-1.16.37-.57.67-1.02.89-1.35.22-.33.52-.75.9-1.26.38-.51.76-.99,1.13-1.45,1.66-2.05,3.27-3.08,4.81-3.08Z"/>
      <path class="cls-1" d="M1222.29,905c1.09,0,2.19.14,3.31.42,1.12.28,1.96.61,2.52.98.39.27.87.2,1.43-.2.22-.14.39-.2.51-.2.14,0,.23.1.29.31s.05.45-.04.74l-2.01,5.83c-.24.76-.52,1.15-.84,1.15-.19,0-.31-.12-.36-.37-.05-.25-.06-.66-.03-1.24.03-1.83-.41-3.34-1.34-4.53-.93-1.19-2.21-1.78-3.86-1.78s-2.83.53-3.75,1.59c-.92,1.06-1.38,2.48-1.38,4.24,0,1.22.54,2.77,1.6,4.64,1.68,2.92,3.09,5.27,4.23,7.06.66,1.02,1.25,2.19,1.76,3.5.51,1.32.76,2.39.76,3.22,0,3.11-1.34,5.61-4.02,7.51-.93.7-2.17,1.23-3.71,1.59s-2.94.55-4.22.55c-1.95,0-4.36-.45-7.21-1.35-.41-.14-.88-.02-1.4.36-.1.05-.21.06-.33.04-.12-.03-.19-.09-.2-.19-.1-.14-.1-.36,0-.69.14-.25.49-1.33,1.06-3.23.57-1.9.95-3.33,1.13-4.28.24-.83.54-1.25.89-1.25.27,0,.37.49.31,1.48-.1,1.41.02,2.65.37,3.73.35,1.08.84,1.91,1.46,2.5.63.59,1.28,1.02,1.95,1.31s1.33.43,1.97.43c1.66,0,3.13-.56,4.39-1.67,1.26-1.11,1.9-2.58,1.9-4.39,0-1.05-.4-2.37-1.18-3.96-.79-1.59-2.11-3.85-3.96-6.79-1.09-1.8-1.83-3.31-2.23-4.52-.4-1.21-.6-2.38-.6-3.5,0-1.46.36-2.8,1.07-4.02.71-1.22,1.63-2.22,2.75-3.01,2-1.32,4.33-1.99,6.98-1.99Z"/>
      <path class="cls-1" d="M1239.03,917.66c.44,0,.82.24,1.13.71.31.48.32,1.15.01,2.01-.27.85-1.29,3.24-3.06,7.18-1.77,3.94-2.82,6.36-3.16,7.26-.17.58-.19.99-.06,1.25.13.25.33.38.6.38s.82-.36,1.63-1.07c.82-.71,1.7-1.63,2.65-2.75.92-1.02,1.92-2.29,3.01-3.82,1.09-1.53,1.99-2.87,2.71-4.04.72-1.16,1.46-2.39,2.23-3.67.76-1.28,1.19-1.99,1.27-2.13.24-.34.6-.66,1.09-.97s1.05-.46,1.68-.46c.34,0,.59.14.74.42.15.28.23.56.23.83,0,.22-.02.46-.06.73-.04.26-.09.5-.14.7s-.13.47-.24.79c-.11.32-.2.56-.25.73-.06.16-.16.42-.29.78-.14.36-.22.59-.25.69-2.17,5.62-3.58,9.21-4.23,10.77-.07.12-.05.25.04.41.09.15.19.23.29.23.97,0,2.56-1.15,4.79-3.44.1-.08.22-.1.34-.05.13.05.19.12.19.2,0,.31-.21.82-.64,1.55-.93,1.6-2.41,3.13-4.43,4.6-2.02,1.47-3.69,2.2-5.02,2.2-.31,0-.59-.14-.85-.43-.26-.29-.39-.59-.39-.89,0-.59.18-1.36.54-2.29.15-.42.93-2.42,2.34-5.99.03-.1.03-.2,0-.31-.03-.1-.09-.18-.17-.23-.08-.05-.15-.05-.22,0-1.14,1.49-2.51,3.05-4.11,4.67-1.61,1.62-2.94,2.83-4.01,3.63-1.7,1.22-3.24,1.83-4.64,1.83-.48,0-.88-.2-1.22-.6-.34-.4-.51-.86-.51-1.39,0-.66.21-1.62.64-2.88.66-1.92,2.31-5.93,4.94-12.05.07-.15.07-.29,0-.42-.07-.13-.15-.19-.25-.19-.22,0-.75.24-1.59.73s-1.6.97-2.28,1.46c-.08.08-.17.13-.27.14-.09,0-.17,0-.24-.05-.07-.04-.1-.09-.1-.14,0-.37.26-.87.79-1.48,1.02-1.17,2.36-2.33,4.04-3.46,1.67-1.14,3.26-1.71,4.78-1.71Z"/>
      <path class="cls-1" d="M1267.81,917.61c1.12,0,2,.23,2.65.69.87.66,1.3,1.34,1.3,2.04,0,.54-.28,1.12-.84,1.73s-1.01.92-1.35.92c-.51,0-1.08-.54-1.71-1.6-.49-.78-.9-1.36-1.24-1.73-.33-.37-.67-.56-1.01-.56-.51,0-1.01.24-1.49.71-.48.48-1.03,1.27-1.64,2.37-.85,1.49-1.53,3.35-2.05,5.58s-.78,4.22-.78,5.99c0,.68.19,1.32.56,1.92.37.6.83.9,1.38.9.68,0,1.49-.26,2.43-.79.94-.53,1.91-1.36,2.89-2.5.41-.41.7-.52.87-.33.05.05.08.13.08.23,0,.32-.18.82-.53,1.5-1.99,3.35-4.73,5.02-8.23,5.02-.42,0-.89-.12-1.4-.36-.51-.24-1.02-.59-1.53-1.04-.51-.46-.93-1.1-1.27-1.92-.34-.82-.51-1.74-.51-2.74,0-2.38.54-4.78,1.63-7.21.97-2.02,2.06-3.67,3.29-4.94,1.07-1.05,2.41-1.96,4.02-2.73,1.61-.76,3.11-1.15,4.48-1.15Z"/>
      <path class="cls-1" d="M1285.13,917.61c1.12,0,2,.23,2.65.69.87.66,1.3,1.34,1.3,2.04,0,.54-.28,1.12-.84,1.73s-1.01.92-1.35.92c-.51,0-1.08-.54-1.71-1.6-.49-.78-.9-1.36-1.24-1.73-.33-.37-.67-.56-1.01-.56-.51,0-1.01.24-1.49.71-.48.48-1.03,1.27-1.64,2.37-.85,1.49-1.53,3.35-2.05,5.58s-.78,4.22-.78,5.99c0,.68.19,1.32.56,1.92.37.6.83.9,1.38.9.68,0,1.49-.26,2.43-.79.94-.53,1.91-1.36,2.89-2.5.41-.41.7-.52.87-.33.05.05.08.13.08.23,0,.32-.18.82-.53,1.5-1.99,3.35-4.73,5.02-8.23,5.02-.42,0-.89-.12-1.4-.36-.51-.24-1.02-.59-1.53-1.04-.51-.46-.93-1.1-1.27-1.92-.34-.82-.51-1.74-.51-2.74,0-2.38.54-4.78,1.63-7.21.97-2.02,2.06-3.67,3.29-4.94,1.07-1.05,2.41-1.96,4.02-2.73,1.61-.76,3.11-1.15,4.48-1.15Z"/>
      <path class="cls-1" d="M1302.45,917.61c1.27,0,2.27.33,2.98.98.71.65,1.07,1.37,1.07,2.15,0,1.94-1.08,3.66-3.23,5.17-.78.54-1.95,1.05-3.49,1.52-1.54.47-3.02.73-4.43.78-.03.02-.08.06-.15.13s-.14.14-.2.23l-.1.13c-.53,1.55-.79,3.12-.79,4.74,0,.9.21,1.6.62,2.09.42.49.97.74,1.67.74.76,0,1.65-.33,2.66-.98,1.01-.65,2.03-1.55,3.07-2.69.03-.03.08-.04.15-.03.07.02.13.06.19.13.06.07.09.15.09.25,0,.58-.31,1.35-.94,2.32-1.04,1.48-2.26,2.59-3.68,3.32-1.42.74-2.81,1.11-4.19,1.11-1.26,0-2.37-.56-3.35-1.67s-1.46-2.56-1.46-4.34.38-3.74,1.15-5.6c.76-1.87,1.67-3.49,2.73-4.87,1.32-1.71,2.85-3.08,4.58-4.09,1.73-1.01,3.42-1.52,5.07-1.52ZM1301.97,918.66c-1.02,0-2.14.78-3.38,2.33-1.23,1.55-2.28,3.49-3.15,5.82-.05.07-.05.14,0,.2.05.07.12.1.2.1,1.53-.27,3.12-1.18,4.78-2.74,1.66-1.55,2.48-3,2.48-4.34,0-.92-.31-1.38-.94-1.38Z"/>
      <path class="cls-1" d="M1317.71,917.61c1.12,0,2.07.44,2.85,1.32.32.39.48.81.48,1.25.03.39-.21.88-.73,1.46-.52.59-.97.88-1.36.88s-.81-.25-1.3-.74c-.41-.46-.92-.87-1.53-1.25s-1.09-.56-1.45-.56c-.41,0-.77.17-1.1.5-.32.33-.48.73-.48,1.21,0,.53.26,1.24.79,2.14.53.9,1.32,2.11,2.39,3.64,1.17,1.83,1.78,3.46,1.83,4.86.02.93-.34,1.88-1.08,2.85-.74.97-1.69,1.83-2.84,2.57-1.97,1.29-3.74,1.94-5.32,1.94-1.07,0-1.94-.3-2.62-.9-.68-.6-1.04-1.36-1.07-2.28,0-.39.11-.85.33-1.39.22-.53.48-.91.76-1.13.37-.37.76-.31,1.15.18,1.88,2.12,3.45,3.18,4.69,3.18.63,0,1.13-.2,1.52-.6s.56-.91.52-1.54c0-.42-.2-1.02-.6-1.78-.4-.76-1.13-1.98-2.2-3.64-1.16-1.82-1.73-3.37-1.73-4.66,0-.82.27-1.69.8-2.61.53-.93,1.28-1.77,2.23-2.53.75-.65,1.6-1.2,2.56-1.67.96-.47,1.8-.7,2.51-.7Z"/>
      <path class="cls-1" d="M1332.05,917.61c1.12,0,2.07.44,2.85,1.32.32.39.48.81.48,1.25.03.39-.21.88-.73,1.46-.52.59-.97.88-1.36.88s-.81-.25-1.3-.74c-.41-.46-.92-.87-1.53-1.25s-1.09-.56-1.45-.56c-.41,0-.77.17-1.1.5-.32.33-.48.73-.48,1.21,0,.53.26,1.24.79,2.14.53.9,1.32,2.11,2.39,3.64,1.17,1.83,1.78,3.46,1.83,4.86.02.93-.34,1.88-1.08,2.85-.74.97-1.69,1.83-2.84,2.57-1.97,1.29-3.74,1.94-5.32,1.94-1.07,0-1.94-.3-2.62-.9-.68-.6-1.04-1.36-1.07-2.28,0-.39.11-.85.33-1.39.22-.53.48-.91.76-1.13.37-.37.76-.31,1.15.18,1.88,2.12,3.45,3.18,4.69,3.18.63,0,1.13-.2,1.52-.6s.56-.91.52-1.54c0-.42-.2-1.02-.6-1.78-.4-.76-1.13-1.98-2.2-3.64-1.16-1.82-1.73-3.37-1.73-4.66,0-.82.27-1.69.8-2.61.53-.93,1.28-1.77,2.23-2.53.75-.65,1.6-1.2,2.56-1.67.96-.47,1.8-.7,2.51-.7Z"/>
    </g>
  </g>
</svg>