<?xml version="1.0" encoding="UTF-8"?>
<svg id="Layer_1" data-name="Layer 1" xmlns="http://www.w3.org/2000/svg" viewBox="0 0 1500 1500">
  <defs>
    <style>
      .cls-1 {
        fill: #014959;
      }

      .cls-1, .cls-2, .cls-3, .cls-4 {
        stroke-width: 0px;
      }

      .cls-2 {
        fill: #fff;
      }

      .cls-3 {
        fill: #f2ca04;
      }

      .cls-4 {
        fill: #abe5f2;
      }
    </style>
  </defs>
  <rect class="cls-1" x="1.77" y="1.77" width="1496.46" height="1496.46"/>
  <g>
    <g>
      <g>
        <path class="cls-2" d="M253.59,909.44c-48.15-33.91-79.91-89.51-81.07-152.6.23,1.13,1.71,1.63,2.74,2.27,4.42,2.74,9.44,4.49,13.59,7.84-1.78,2.23-4.15,1.46-6.13,1.96-1.62.41-3.73.63-3.73,2.67,0,2.35,2.26,1.98,3.84,2.08,2.58.17,5.17.39,7.74.23,5.44-.35,9.06,2.33,12.38,6.27,4.87,5.78,8.23,12.36,10.62,19.37,4.08,11.99,10.03,22.98,16.65,33.71,3.22,5.22,6.41,10.73,4.22,17.45-.34,1.06.08,2.4.28,3.58,2.07,12.12,5.32,23.71,11.77,34.49,3.7,6.17,6.13,13.07,7.11,20.67Z"/>
        <path class="cls-2" d="M554.32,753.25c0,105.44-85.48,190.91-190.91,190.91-2.46,0-4.91-.05-7.34-.14.21-4.56.53-8.98-.1-13.42-.7-4.88-1.58-10-.16-14.89,2.32-7.97,3.64-16.31,8.28-23.47,1.23-1.9.3-5.13,2.6-6.06,4.09-1.65,4.82-5.1,5.85-8.58.77-2.6,1.09-5.63,2.67-7.64,4.47-5.71,5.22-11.41,1.49-17.58-2.64-4.37-1.69-8,1.92-11.27,3.66-3.33,6.21-7.43,8.29-11.86,1.84-3.94,3.7-7.87,5.55-11.81,5.04-10.74,9.98-21.52,14.23-32.61.54-1.42,1.03-2.91,2.28-3.88,3.77-2.9,6.62-6.65,9.65-10.25,2.02-2.4,4.46-4.07,7.6-4.67,2.9-.55,5.41-1.97,7.76-3.68.9-.66,1.57-1.54,1.11-2.72-.58-1.46-1.86-1.42-3.08-1.08-1.31.37-2.55,1.01-3.86,1.35-1.28.34-2.99,1-3.71-.5-.67-1.4,1.13-1.89,1.97-2.63,2.72-2.38,5.36-4.83,7.86-7.42,1.19-1.23,2.33-2.49,3.44-3.8,1.22-1.44,2.33-3.14.67-4.83-1.74-1.78-3.44-.37-4.82.74-1.91,1.54-3.74,3.19-5.58,4.83-.6.54-1.21,1.08-1.82,1.61-.4-.3-.8-.61-1.2-.91.4-.57.8-1.13,1.2-1.69,2.28-3.19,4.57-6.38,6.79-9.62,1.21-1.78,2.52-4.01.18-5.6-2.18-1.48-3.47.63-4.73,2.18-2.61,3.22-5.27,6.41-7.95,9.58-.26.31-.52.61-.78.92-.68.81-1.19,2.24-2.75,1.45-.41-1.25.33-2.13.79-3.04.15-.29.3-.58.44-.88,1.78-3.49,3.62-6.94,5.36-10.45.63-1.26.9-2.72-.46-3.71-1.4-1.02-2.58-.06-3.68.78-1.97,1.52-3.14,3.67-4.51,5.68-.8,1.16-1.52,2.37-2.23,3.59-2.46,4.27-4.65,8.71-8.53,12.07-4.09,3.56-6.98,2.96-8.62-2.29-.63-2.01-.79-4.19-2.19-5.91-1.21-1.48-2.65-2.76-4.66-1.95-2.22.89-2.13,3-1.36,4.66,3.28,7.11,3.25,15.08,5.96,22.35,1.21,3.25,1.37,6.83-.3,10.19-3.85,7.76-8.22,15.16-13.91,21.79-3.89,4.52-8.2,8.73-11.72,13.54h0c-1.75,2.38-3.3,4.9-4.52,7.68-1.46,3.32-3.24,6.32-5.45,9.29-2.5,3.35-5.81,6.5-7.29,10.19-2.08,5.2-6.95,7.84-9.41,12.48-.55,1.05-1.64,2.23-3.72,1.95,1.14-4.41,2.31-8.72,3.37-13.06.82-3.38.35-6.32-3.86-6.56-2.8-.15-2.28-1.71-2.12-3.38.13-1.35.17-2.72.27-4.08,1.4-19.33-16.84-35.39-36.16-31.84-19.46,3.58-30.87,20.27-27.14,39.71.2,1.04.41,2.08.55,3.13.13.96-.14,1.64-1.1,2.22-5.57,3.35-5.85,4.61-2.83,10.57.73,1.45,2.32,2.83.98,5.04-6.56-4.64-8.52-12.19-12.54-18.2-2.7-4.03-4.38-8.9-7.13-13.1-8.28-12.66-16.51-25.37-24.68-38.11-3.61-5.63-3.27-11.71.34-16.99,1.65-2.41,4.15-2.87,6.49-3.87,1.36-.59,3.05-1.13,2.7-3.12-.29-1.66-1.59-2.58-3.1-3.02-2.98-.86-5.79.05-8.29,1.51-2.75,1.6-5.53,1.54-8.37.82-3.61-.9-5.95-3.43-7.81-6.51-2.83-4.69-6.18-8.99-10.07-12.84-1.16-1.15-2.86-2.34-4.47-1.16-1.93,1.4-.23,2.97.42,4.39.83,1.8,2.55,3.23,2.63,6.33-2.88-2.47-5.11-4.44-7.41-6.34-1.67-1.39-3.79-2.98-5.64-1.11-2.2,2.23.46,3.68,1.76,5.18,2.77,3.23,5.59,6.43,7.3,11.41-5.23-1.84-9.48-3.38-13.77-4.82-1.65-.55-3.62-.7-4.46,1.08-.12.26-.2.5-.23.72-.02-.99-.03-1.99-.03-2.98,0-96.28,71.27-175.91,163.93-189.02,8.82-1.25,17.83-1.89,26.99-1.89,22.74,0,44.55,3.98,64.77,11.27,62.87,22.67,110.41,77.41,122.91,144.47.08.43.16.86.23,1.29,1.97,11,3,22.32,3,33.89Z"/>
        <path class="cls-4" d="M551.08,718.08c-.24.86-.5,1.71-.76,2.56-17.63,57.23-70.93,98.82-133.95,98.82-8.16,0-16.15-.7-23.93-2.04,5.04-10.74,9.98-21.52,14.23-32.61.54-1.42,1.03-2.91,2.28-3.88,3.77-2.9,6.62-6.65,9.65-10.25,2.02-2.4,4.46-4.07,7.6-4.67,2.9-.55,5.41-1.97,7.76-3.68.9-.66,1.57-1.54,1.11-2.72-.58-1.46-1.86-1.42-3.08-1.08-1.31.37-2.55,1.01-3.86,1.35-1.28.34-2.99,1-3.71-.5-.67-1.4,1.13-1.89,1.97-2.63,2.72-2.38,5.36-4.83,7.86-7.42,1.19-1.23,2.33-2.49,3.44-3.8,1.22-1.44,2.33-3.14.67-4.83-1.74-1.78-3.44-.37-4.82.74-1.91,1.54-3.74,3.19-5.58,4.83-.6.54-1.21,1.08-1.82,1.61-.4-.3-.8-.61-1.2-.91.4-.57.8-1.13,1.2-1.69,2.28-3.19,4.57-6.38,6.79-9.62,1.21-1.78,2.52-4.01.18-5.6-2.18-1.48-3.47.63-4.73,2.18-2.61,3.22-5.27,6.41-7.95,9.58-.26.31-.52.61-.78.92-.68.81-1.19,2.24-2.75,1.45-.41-1.25.33-2.13.79-3.04.15-.29.3-.58.44-.88,1.78-3.49,3.62-6.94,5.36-10.45.63-1.26.9-2.72-.46-3.71-1.4-1.02-2.58-.06-3.68.78-1.97,1.52-3.14,3.67-4.51,5.68-.8,1.16-1.52,2.37-2.23,3.59-2.46,4.27-4.65,8.71-8.53,12.07-4.09,3.56-6.98,2.96-8.62-2.29-.63-2.01-.79-4.19-2.19-5.91-1.21-1.48-2.65-2.76-4.66-1.95-2.22.89-2.13,3-1.36,4.66,3.28,7.11,3.25,15.08,5.96,22.35,1.21,3.25,1.37,6.83-.3,10.19-3.85,7.76-8.22,15.16-13.91,21.79-3.89,4.52-8.2,8.73-11.72,13.54h0c-53.19-19.89-91.07-71.17-91.07-131.3,0-47.67,23.8-89.79,60.18-115.1,8.82-1.25,17.83-1.89,26.99-1.89,22.74,0,44.55,3.98,64.77,11.27,62.87,22.67,110.41,77.41,122.91,144.47Z"/>
        <path class="cls-3" d="M551.32,719.36c-.33.43-.66.86-1,1.28-17.89,22.56-45.53,37.03-76.56,37.03-14.06,0-27.42-2.97-39.5-8.32,1.19-1.23,2.33-2.49,3.44-3.8,1.22-1.44,2.33-3.14.67-4.83-1.74-1.78-3.44-.37-4.82.74-1.91,1.54-3.74,3.19-5.58,4.83-.61-.32-1.21-.65-1.82-.99,2.28-3.19,4.57-6.38,6.79-9.62,1.21-1.78,2.52-4.01.18-5.6-2.18-1.48-3.47.63-4.73,2.18-2.61,3.22-5.27,6.41-7.95,9.58-.77-.5-1.54-1.02-2.29-1.55,1.78-3.49,3.62-6.94,5.36-10.45.63-1.26.9-2.72-.46-3.71-1.4-1.02-2.58-.06-3.68.78-1.97,1.52-3.14,3.67-4.51,5.68-.8,1.16-1.52,2.37-2.23,3.59-22.28-17.9-36.55-45.37-36.55-76.18,0-37.47,21.11-70.02,52.08-86.4,62.87,22.67,110.41,77.41,122.91,144.47.08.43.16.86.23,1.29Z"/>
      </g>
      <circle class="cls-3" cx="541.73" cy="580.69" r="31.04"/>
      <circle class="cls-2" cx="487.45" cy="570.58" r="16.64"/>
      <circle class="cls-2" cx="567.34" cy="643.64" r="24.09"/>
      <circle class="cls-4" cx="585.75" cy="604.66" r="12.91"/>
      <circle class="cls-4" cx="535.77" cy="625.24" r="8.2"/>
    </g>
    <g>
      <g>
        <path class="cls-2" d="M601.84,810.24c0-.23.23-.43.69-.61.46-.17.98-.26,1.56-.26,4.32.12,8.08.04,11.28-.23,6.55-.62,11.87-.92,15.96-.92,8.13,0,14.46,1.56,18.97,4.68,4.51,3.12,6.77,7.71,6.77,13.76,0,2.39-.53,4.62-1.59,6.68-1.06,2.06-2.52,3.75-4.37,5.06-1.39,1.08-3.01,1.99-4.86,2.72-.31.19-.45.41-.43.64.02.23.16.39.43.46,3.47,1.08,6.59,2.74,9.37,4.97,4.2,3.51,6.3,8.29,6.3,14.34,0,4.24-1.25,8.02-3.76,11.33-2.51,3.32-5.92,5.88-10.24,7.69-3.78,1.74-9.54,2.6-17.29,2.6-.81,0-2.71-.05-5.7-.14-2.99-.1-5.27-.16-6.85-.2-3.78-.08-7.42-.12-10.93-.12l-4.45.12c-1.5,0-2.26-.31-2.26-.92,0-.58.67-.98,2.02-1.21,4.08-.35,6.36-2.58,6.82-6.71.23-3.08.35-13.96.35-32.61,0-9.29-.08-17.1-.23-23.42-.04-2.12-.37-3.52-.98-4.19-.62-.67-2.1-1.42-4.45-2.23-1.43-.23-2.14-.66-2.14-1.27ZM645.68,863.5c0-6.01-1.85-10.99-5.55-14.92-2.81-2.93-5.78-4.39-8.9-4.39-2.89,0-4.66.1-5.32.29-.96.23-1.45.66-1.45,1.27-.27,1.93-.36,5.62-.26,11.07.1,5.46.28,9.51.55,12.17.12,1.7.21,2.92.29,3.67.08.75.27,1.68.58,2.78.31,1.1.71,1.9,1.21,2.4.69.81,1.76,1.52,3.21,2.14,1.45.62,2.67.93,3.67.93,1.16,0,2.31-.19,3.47-.58,5.67-3.28,8.5-8.89,8.5-16.83ZM642.26,827.3c0-2.74-.45-5.23-1.36-7.49-.91-2.26-2.05-4.03-3.44-5.32-1.39-1.29-2.81-2.28-4.28-2.98-1.47-.69-2.83-1.04-4.11-1.04-.27,0-1.48.15-3.64.46-.12.04-.26.3-.43.78-.17.48-.26.82-.26,1.01-.19,1.35-.33,5.96-.4,13.82-.08,7.86-.04,12.61.12,14.23.04.46.22.77.55.93.33.15.97.29,1.94.4.73.04,2.68-.17,5.84-.64,2.51-.62,4.71-2.11,6.62-4.48s2.86-5.6,2.86-9.69Z"/>
        <path class="cls-2" d="M669.79,809.89c0-.58.75-.87,2.26-.87,1.04,0,3.21.1,6.51.29,3.3.19,5.27.29,5.93.29,3.47,0,8.5-.06,15.09-.17,6.59-.12,10.49-.17,11.68-.17,1.81,0,3.51-.04,5.09-.12l2.37-.12c.23,0,.51.23.84.69.33.46.53.87.61,1.21l1.27,9.71c0,1.2-.19,1.79-.58,1.79-.69,0-1.25-.52-1.68-1.56-.77-2.04-1.88-3.91-3.33-5.61-1.45-1.7-2.71-2.66-3.79-2.89-1.7-.27-7.46-.41-17.29-.41-.31,0-.54.1-.69.29-.16.19-.3.7-.43,1.53-.14.83-.22,2.05-.26,3.67v25.33c0,.15.09.35.26.58.17.23.36.35.55.35h11.04c4.01,0,6.53-.31,7.58-.92.92-.54,1.99-2.35,3.18-5.44.31-.96.73-1.45,1.27-1.45.19,0,.35.18.46.55.12.37.17.66.17.9,0,.08-.21,2.56-.64,7.46-.04.54,0,1.87.12,3.99.12,2.12.17,3.2.17,3.24,0,1.43-.25,2.14-.75,2.14-.39,0-.81-.64-1.27-1.91,0-.04-.09-.27-.26-.69-.17-.42-.3-.72-.38-.9-.08-.17-.2-.45-.38-.84-.17-.38-.35-.67-.52-.87-.17-.19-.38-.41-.61-.67-.23-.25-.47-.44-.72-.58-.25-.13-.53-.2-.84-.2-4.24-.31-10.2-.46-17.87-.46-.12,0-.24.13-.38.38-.14.25-.2.43-.2.55,0,2.31.06,7.2.17,14.66.12,7.46.17,11.38.17,11.77,0,.81.29,1.78.87,2.92.58,1.14,1.27,1.78,2.08,1.94,2.89.46,6.28.69,10.18.69h3.56c.21,0,.73-.02,1.56-.06.83-.04,1.38-.1,1.65-.17.27-.08.72-.18,1.36-.32.64-.13,1.13-.3,1.47-.49.35-.19.74-.44,1.19-.75.44-.31.84-.66,1.19-1.04.58-.5,1.19-1.14,1.82-1.91.64-.77,1.3-1.62,2-2.54.69-.92,1.12-1.5,1.27-1.73.85-1.23,1.52-1.85,2.02-1.85.23,0,.37.23.4.69s-.02,1.02-.17,1.68c-.23.85-.72,2.54-1.47,5.06-.75,2.53-1.24,4.02-1.47,4.48-.23.58-.61,1.04-1.13,1.39-.52.35-1.05.52-1.59.52-4.43,0-10.69-.08-18.76-.23-8.08-.15-13.56-.23-16.45-.23-1.58,0-4.22.1-7.92.29-3.7.19-5.67.29-5.9.29-1.5,0-2.26-.27-2.26-.81,0-.5.71-.94,2.14-1.33,1.97-.35,3.43-.97,4.4-1.88.96-.91,1.5-2.59,1.62-5.06.31-9.6.46-27.68.46-54.24,0-3.08-.42-5.2-1.27-6.36-.85-1.16-2.39-1.89-4.63-2.2-1.43-.23-2.14-.66-2.14-1.27Z"/>
        <path class="cls-2" d="M744.27,809.78c0-.58.83-.87,2.49-.87,1.16,0,3.38.12,6.68.35,3.3.23,5.52.35,6.68.35,1.31,0,3.44-.08,6.39-.23,2.95-.15,5.19-.23,6.74-.23,1.35,0,2.02.25,2.02.75,0,.46-.52.89-1.56,1.27-2.43.58-3.64,1.37-3.64,2.37,0,.69.64,2.08,1.91,4.16.23.39,1.07,1.88,2.52,4.48,1.45,2.6,2.79,4.99,4.02,7.17,1.23,2.18,2.55,4.42,3.96,6.74,1.41,2.31,2.44,3.87,3.09,4.68.46.46.79.54.98.23,2.74-4.39,6.63-11.18,11.68-20.36,1.85-3.12,2.78-5.26,2.78-6.42,0-.73-.52-1.42-1.56-2.05-1.04-.64-2.2-1.09-3.47-1.36-1.16-.35-1.74-.69-1.74-1.04,0-.5.64-.75,1.91-.75,1.16,0,2.61.1,4.37.29,1.75.19,3.17.29,4.25.29s3.04-.13,5.75-.41c2.72-.27,4.19-.4,4.42-.4,1.43,0,2.14.23,2.14.69,0,.58-.79,1.02-2.37,1.33-2.2.46-4.04,1.13-5.52,1.99-1.48.87-2.56,1.7-3.24,2.49-.68.79-1.63,2.09-2.86,3.9-4.94,7.13-10.02,15.46-15.27,24.98l-.17.58c-.16.39-.29.86-.41,1.42-.12.56-.15,1.05-.12,1.47v25.91c0,.66,0,1.22.03,1.71.02.48.1.94.23,1.36.13.42.22.76.26,1.01.04.25.21.51.52.78.31.27.5.46.58.58.08.12.36.27.84.46.48.19.78.31.9.35.12.04.52.15,1.21.35.69.19,1.14.33,1.33.4.08.04.25.09.52.14.27.06.49.13.66.2.17.08.38.16.61.26.23.1.41.21.52.35.12.14.17.3.17.49,0,.54-.83.81-2.49.81-2.51,0-4.66-.06-6.45-.17-1.79-.12-4.37-.17-7.72-.17-2.24,0-4.89.1-7.95.29-3.06.19-5.04.29-5.93.29-1.66,0-2.49-.31-2.49-.92,0-.23.26-.48.78-.75.52-.27,1.09-.46,1.71-.58,2.43-.38,4.11-1.03,5.06-1.94.94-.91,1.51-2.26,1.71-4.08.31-3.01.46-8.02.46-15.04v-10.81c-.12-1.5-.44-2.52-.98-3.07-.81-2.08-3.24-6.58-7.29-13.5-4.05-6.92-6.98-11.54-8.79-13.85-.39-.54-.93-1.29-1.62-2.26-.69-.96-1.15-1.58-1.36-1.85-.21-.27-.55-.66-1.01-1.19-.46-.52-.87-.87-1.21-1.04-.35-.17-.78-.37-1.3-.58-.52-.21-1.15-.39-1.88-.55-1.66-.35-2.49-.77-2.49-1.27Z"/>
        <path class="cls-2" d="M854.84,807.52c7.4,0,14.15,1.73,20.24,5.18,6.09,3.45,10.87,8.19,14.34,14.23,3.47,6.03,5.2,12.71,5.2,20.04,0,3.62-.47,7.09-1.42,10.41-.95,3.32-2.16,6.18-3.64,8.59-1.48,2.41-3.22,4.64-5.2,6.68-1.99,2.04-3.93,3.71-5.84,5-1.91,1.29-3.85,2.38-5.81,3.27-5.44,2.47-11.16,3.7-17.17,3.7-5.51,0-10.74-1.01-15.67-3.04-4.94-2.02-9.17-4.75-12.69-8.18-3.53-3.43-6.33-7.53-8.41-12.29-2.08-4.76-3.12-9.8-3.12-15.12,0-13.15,5.2-23.55,15.61-31.23,3.05-2.31,6.7-4.1,10.96-5.35,4.26-1.25,8.47-1.88,12.64-1.88ZM853.8,809.49c-5.05,0-9.95,2.89-14.69,8.67-2,2.7-3.65,6.31-4.94,10.84-1.29,4.53-1.94,9.47-1.94,14.83,0,5.9.89,11.53,2.66,16.89,1.77,5.36,4.36,9.93,7.75,13.71,4.51,5.36,9.44,8.04,14.8,8.04,1.89,0,3.96-.5,6.22-1.5,2.26-1,4.21-2.6,5.87-4.8,5.36-7.17,8.04-16.94,8.04-29.32,0-5.9-.46-10.81-1.39-14.75-.93-3.93-2.62-7.94-5.09-12.03-1.89-2.97-4.29-5.47-7.2-7.52-2.91-2.04-6.27-3.06-10.09-3.06Z"/>
        <path class="cls-2" d="M919.83,809.6c2.04,0,4.26-.08,6.65-.23,2.39-.15,4.16-.23,5.32-.23,1.31,0,1.97.29,1.97.87,0,.46-.66.85-1.97,1.16-2.08.54-3.43,1.27-4.05,2.2-.62.92-.93,2.72-.93,5.38-.19,9.06-.29,20.2-.29,33.42,0,9.68,1.91,16.73,5.72,21.16,3.32,3.74,8.37,5.61,15.15,5.61,2.89,0,5.45-.46,7.66-1.39,2.22-.93,4.27-2.49,6.16-4.68,1.89-2.2,3.37-5.36,4.45-9.48,1.08-4.12,1.7-9.14,1.85-15.04.23-4.28.35-8.23.35-11.85,0-7.02-.18-12.27-.55-15.76-.37-3.49-.8-5.67-1.3-6.53-.5-.87-1.31-1.61-2.43-2.23-.89-.31-2.1-.58-3.64-.81-1.66-.23-2.49-.62-2.49-1.16,0-.66.83-.98,2.49-.98,1.12,0,2.57.1,4.37.29,1.79.19,3.31.29,4.54.29,1,0,2.52-.08,4.57-.23,2.04-.15,3.58-.23,4.63-.23,1.66,0,2.49.25,2.49.75,0,.58-.83,1.04-2.49,1.39-2.43.39-4.02,1.11-4.77,2.17-.75,1.06-1.24,3.02-1.47,5.87-.12,2.04-.27,6.01-.46,11.91-.19,5.9-.33,9.39-.4,10.47-.12,8.94-.8,16.24-2.05,21.89-1.25,5.65-3.4,10.05-6.45,13.21-5.09,5.28-12.32,7.92-21.68,7.92-3.62,0-7.24-.49-10.84-1.47-3.61-.98-6.47-2.26-8.59-3.85-3.93-3.01-6.6-6.54-8.01-10.61-1.41-4.07-2.17-10.51-2.28-19.34-.08-3.35-.15-8.7-.23-16.05-.08-7.34-.15-12.27-.23-14.77-.08-2.62-.4-4.4-.95-5.35-.56-.94-1.82-1.65-3.79-2.11-1.5-.38-2.26-.81-2.26-1.27,0-.58.71-.87,2.14-.87,1.58,0,3.87.1,6.88.29,3.01.19,5.42.29,7.23.29Z"/>
        <path class="cls-2" d="M1017.62,808.79c6.75,0,12.32,1.5,16.71,4.51,4.86,3.55,7.29,8.37,7.29,14.46,0,4.94-2.2,9.08-6.59,12.43-1.89,1.2-3.7,2.1-5.44,2.72-.23.08-.41.26-.55.55-.14.29-.09.74.14,1.36,2.78,5.86,6.38,12.65,10.81,20.36,3.12,5.4,5.99,9.46,8.62,12.2,1.27,1.39,2.45,2.28,3.53,2.69,1.08.4,2.43.68,4.05.84.89.23,1.33.52,1.33.87,0,.46-.37.85-1.1,1.16-.85.38-3.57.58-8.15.58-2.31,0-4.28-.1-5.9-.29-1.62-.19-3.36-.6-5.23-1.21-1.87-.62-3.58-1.59-5.12-2.92-1.54-1.33-2.99-3.04-4.34-5.12-1.58-2.43-5.53-9.54-11.85-21.34-1.16-2.08-2.21-3.51-3.15-4.28-.95-.77-1.94-1.19-2.98-1.27-.42,0-.98.12-1.68.35-.39.19-.58.73-.58,1.62-.15,3.2-.12,8.13.12,14.8,0,6.79.31,11.22.93,13.3.08.62.55,1.27,1.42,1.97.87.69,2.17,1.21,3.9,1.56.5.15.94.4,1.33.72.39.33.58.61.58.84,0,.54-.75.81-2.26.81-.12,0-.99-.05-2.63-.14-1.64-.1-3.59-.19-5.84-.29-2.26-.1-4.17-.14-5.75-.14s-4.04.12-7.37.35c-3.33.23-5.25.35-5.75.35-1.5,0-2.26-.35-2.26-1.04,0-.58.67-.98,2.02-1.21,2.2-.38,3.66-1,4.4-1.85.73-.85,1.16-2.35,1.27-4.51.46-6.86.69-15.27.69-25.21,0-13.38-.19-24.11-.58-32.21-.15-2.04-.39-3.35-.69-3.93-.62-1.08-2.04-1.83-4.28-2.25-.54-.08-1.05-.21-1.53-.41-.48-.19-.72-.4-.72-.64,0-.58.71-.87,2.14-.87.35,0,1.89.04,4.63.12,2.74.08,4.8.12,6.19.12,1.89,0,4.44-.08,7.66-.23,3.22-.15,7.41-.23,12.58-.23ZM1011.78,811.28c-1.47,0-2.53.27-3.18.81-.54.35-.85,1.5-.93,3.47-.08.89-.14,5.43-.2,13.62-.06,8.19-.07,12.85-.03,13.97,0,1.12.31,1.72.93,1.79.38.15.94.23,1.68.23,4.7-.27,8.25-1.21,10.64-2.83,3.32-2.39,4.97-6.61,4.97-12.66s-1.39-10.33-4.16-13.53c-2.74-3.24-5.98-4.86-9.72-4.86Z"/>
        <path class="cls-2" d="M1073.66,810.24c0-.23.23-.43.69-.61.46-.17.98-.26,1.56-.26,4.32.12,8.08.04,11.28-.23,6.55-.62,11.87-.92,15.96-.92,8.13,0,14.46,1.56,18.97,4.68,4.51,3.12,6.77,7.71,6.77,13.76,0,2.39-.53,4.62-1.59,6.68-1.06,2.06-2.52,3.75-4.37,5.06-1.39,1.08-3.01,1.99-4.86,2.72-.31.19-.45.41-.43.64.02.23.16.39.43.46,3.47,1.08,6.59,2.74,9.37,4.97,4.2,3.51,6.3,8.29,6.3,14.34,0,4.24-1.25,8.02-3.76,11.33-2.51,3.32-5.92,5.88-10.24,7.69-3.78,1.74-9.54,2.6-17.29,2.6-.81,0-2.71-.05-5.7-.14-2.99-.1-5.27-.16-6.85-.2-3.78-.08-7.42-.12-10.93-.12l-4.45.12c-1.5,0-2.26-.31-2.26-.92,0-.58.67-.98,2.02-1.21,4.08-.35,6.36-2.58,6.82-6.71.23-3.08.35-13.96.35-32.61,0-9.29-.08-17.1-.23-23.42-.04-2.12-.37-3.52-.98-4.19-.62-.67-2.1-1.42-4.45-2.23-1.43-.23-2.14-.66-2.14-1.27ZM1117.49,863.5c0-6.01-1.85-10.99-5.55-14.92-2.81-2.93-5.78-4.39-8.9-4.39-2.89,0-4.66.1-5.32.29-.96.23-1.45.66-1.45,1.27-.27,1.93-.36,5.62-.26,11.07.1,5.46.28,9.51.55,12.17.12,1.7.21,2.92.29,3.67.08.75.27,1.68.58,2.78.31,1.1.71,1.9,1.21,2.4.69.81,1.76,1.52,3.21,2.14,1.45.62,2.67.93,3.67.93,1.16,0,2.31-.19,3.47-.58,5.67-3.28,8.5-8.89,8.5-16.83ZM1114.08,827.3c0-2.74-.45-5.23-1.36-7.49-.91-2.26-2.05-4.03-3.44-5.32-1.39-1.29-2.81-2.28-4.28-2.98-1.47-.69-2.83-1.04-4.11-1.04-.27,0-1.48.15-3.64.46-.12.04-.26.3-.43.78-.17.48-.26.82-.26,1.01-.19,1.35-.33,5.96-.4,13.82-.08,7.86-.04,12.61.12,14.23.04.46.22.77.55.93.33.15.97.29,1.94.4.73.04,2.68-.17,5.84-.64,2.51-.62,4.71-2.11,6.62-4.48,1.91-2.37,2.86-5.6,2.86-9.69Z"/>
        <path class="cls-2" d="M1141.6,809.89c0-.58.75-.87,2.26-.87,1.04,0,3.21.1,6.51.29,3.3.19,5.27.29,5.93.29,3.47,0,8.5-.06,15.09-.17,6.59-.12,10.49-.17,11.68-.17,1.81,0,3.51-.04,5.09-.12l2.37-.12c.23,0,.51.23.84.69.33.46.53.87.61,1.21l1.27,9.71c0,1.2-.19,1.79-.58,1.79-.69,0-1.25-.52-1.68-1.56-.77-2.04-1.88-3.91-3.33-5.61-1.45-1.7-2.71-2.66-3.79-2.89-1.7-.27-7.46-.41-17.29-.41-.31,0-.54.1-.69.29-.16.19-.3.7-.43,1.53-.14.83-.22,2.05-.26,3.67v25.33c0,.15.09.35.26.58.17.23.36.35.55.35h11.04c4.01,0,6.53-.31,7.58-.92.92-.54,1.99-2.35,3.18-5.44.31-.96.73-1.45,1.27-1.45.19,0,.35.18.46.55.12.37.17.66.17.9,0,.08-.21,2.56-.64,7.46-.04.54,0,1.87.12,3.99.12,2.12.17,3.2.17,3.24,0,1.43-.25,2.14-.75,2.14-.39,0-.81-.64-1.27-1.91,0-.04-.09-.27-.26-.69-.17-.42-.3-.72-.38-.9-.08-.17-.2-.45-.38-.84-.17-.38-.35-.67-.52-.87-.17-.19-.38-.41-.61-.67-.23-.25-.47-.44-.72-.58-.25-.13-.53-.2-.84-.2-4.24-.31-10.2-.46-17.87-.46-.12,0-.24.13-.38.38-.14.25-.2.43-.2.55,0,2.31.06,7.2.17,14.66.12,7.46.17,11.38.17,11.77,0,.81.29,1.78.87,2.92.58,1.14,1.27,1.78,2.08,1.94,2.89.46,6.28.69,10.18.69h3.56c.21,0,.73-.02,1.56-.06.83-.04,1.38-.1,1.65-.17.27-.08.72-.18,1.36-.32.64-.13,1.13-.3,1.47-.49.35-.19.74-.44,1.19-.75.44-.31.84-.66,1.19-1.04.58-.5,1.19-1.14,1.82-1.91.64-.77,1.3-1.62,2-2.54.69-.92,1.12-1.5,1.27-1.73.85-1.23,1.52-1.85,2.02-1.85.23,0,.37.23.4.69s-.02,1.02-.17,1.68c-.23.85-.72,2.54-1.47,5.06-.75,2.53-1.24,4.02-1.47,4.48-.23.58-.61,1.04-1.13,1.39-.52.35-1.05.52-1.59.52-4.43,0-10.69-.08-18.76-.23-8.08-.15-13.56-.23-16.45-.23-1.58,0-4.22.1-7.92.29-3.7.19-5.67.29-5.9.29-1.5,0-2.26-.27-2.26-.81,0-.5.71-.94,2.14-1.33,1.97-.35,3.43-.97,4.4-1.88.96-.91,1.5-2.59,1.62-5.06.31-9.6.46-27.68.46-54.24,0-3.08-.42-5.2-1.27-6.36-.85-1.16-2.39-1.89-4.63-2.2-1.43-.23-2.14-.66-2.14-1.27Z"/>
        <path class="cls-2" d="M1232.91,807.52c6.05,0,11.41.87,16.08,2.6.27.04.48.24.64.61.15.37.23.66.23.9,0,2.74.23,5.55.69,8.44.27,1.58.04,2.37-.69,2.37-.31,0-.71-.64-1.21-1.91-.77-1.77-1.48-3.2-2.14-4.28-.66-1.08-1.56-2.1-2.72-3.07-1.24-1-2.76-1.85-4.57-2.54-1.81-.69-3.45-1.04-4.92-1.04-1.62,0-3.18.21-4.68.64-1.5.42-2.95,1.08-4.34,1.97-1.39.89-2.5,2.16-3.32,3.82-.83,1.66-1.24,3.59-1.24,5.78,0,2.31.54,4.41,1.62,6.3,1.08,1.89,2.95,3.82,5.61,5.78,1.23.89,3.1,2.16,5.61,3.82,2.5,1.66,4.37,2.91,5.61,3.76.12.08.31.21.58.4,1.23.85,2.2,1.54,2.89,2.08.69.54,1.65,1.33,2.86,2.37,1.21,1.04,2.17,2.05,2.86,3.04.69.98,1.43,2.15,2.2,3.5.77,1.35,1.34,2.84,1.71,4.48.37,1.64.55,3.38.55,5.23,0,4.59-1.31,8.59-3.93,12-2.62,3.41-5.96,5.94-10,7.58-4.05,1.64-8.44,2.46-13.19,2.46-3.28,0-6.53-.33-9.74-.98-3.22-.66-5.81-1.48-7.78-2.49-.73-.54-1.18-1.12-1.33-1.73-.04-.38-.31-2.06-.81-5.03-.5-2.97-.75-4.97-.75-6.01,0-1.66.25-2.49.75-2.49.58,0,1.08.83,1.5,2.49.96,4.16,3.14,7.52,6.53,10.06,3.39,2.54,7.02,3.82,10.87,3.82,4.16,0,7.59-1.22,10.29-3.67,2.7-2.45,4.05-5.64,4.05-9.57,0-5.51-4.14-10.85-12.43-16.02-6.59-4.2-11.26-8.15-13.99-11.85-2.74-3.7-4.11-8.23-4.11-13.59,0-2.62.72-5.34,2.17-8.15,1.45-2.81,3.29-5.07,5.52-6.77,4.78-3.39,10.27-5.09,16.48-5.09Z"/>
        <path class="cls-2" d="M1292.76,809.6h14.11c6.63,0,10.87-.08,12.72-.23,1.85-.15,3.28-.5,4.28-1.04.69-.5,1.1-.69,1.21-.58.35.54.46,1.08.35,1.62-.42,1.43-.54,5.11-.35,11.05.04.54,0,.99-.12,1.36-.12.37-.22.61-.32.72-.1.12-.18.17-.26.17-.23,0-.47-.18-.72-.55-.25-.37-.42-.7-.49-1.01-.73-3.04-1.64-5.17-2.72-6.36-1.5-1.5-4.3-2.26-8.38-2.26-6.48,0-10.24.12-11.28.35-.62.39-.93,1.21-.93,2.49,0,1.54-.06,8.19-.17,19.95-.12,11.76-.17,18.64-.17,20.64,0,10.06.27,16.69.81,19.89.19,1.58.65,2.72,1.36,3.41.71.69,2.15,1.29,4.31,1.79,1.35.31,2.02.75,2.02,1.33,0,.54-.67.81-2.02.81-.54,0-2.6-.12-6.19-.35-3.58-.23-6.53-.35-8.85-.35-3.55,0-6.86.1-9.95.29l-4.63.29c-.73,0-1.29-.11-1.68-.32-.39-.21-.58-.45-.58-.72,0-.54.79-.94,2.37-1.21,2.93-.46,4.78-1.17,5.55-2.11.77-.94,1.25-2.88,1.45-5.81.19-3.66.33-10.49.4-20.47.08-9.98.12-18.48.12-25.47s-.02-11.34-.06-13.04c-.12-.93-.31-1.39-.58-1.39-2.16-.27-5.07-.4-8.73-.4-2.89,0-5.34.17-7.34.52-1.39.23-2.56.86-3.53,1.88-.96,1.02-1.85,2.67-2.66,4.94-.31.96-.61,1.6-.9,1.91-.29.31-.63.46-1.01.46-.42,0-.58-.66-.46-1.97.08-.58.32-2.16.72-4.74.41-2.58.65-4.57.72-5.96.15-1,.5-1.62,1.04-1.85.08-.04.14-.06.2-.06s.12.02.17.06c.06.04.12.08.17.12.06.04.14.11.26.2.12.1.21.18.29.26.54.66,1.64,1.04,3.3,1.16,5.2.39,14.24.58,27.12.58Z"/>
      </g>
      <g>
        <path class="cls-2" d="M619.62,903.42c2.26,0,4.31.35,6.14,1.06,1.83.7,3.28,1.52,4.33,2.44,1.51,1.26,2.67,2.84,3.48,4.76.81,1.92,1.22,3.87,1.22,5.84,0,1.61-.2,3.16-.59,4.66-.39,1.5-.89,2.82-1.49,3.96s-1.31,2.2-2.12,3.18c-.81.98-1.61,1.79-2.37,2.44-.77.65-1.55,1.19-2.34,1.62-3.69,2.16-8.16,3.24-13.42,3.24-.52,0-1.95-.03-4.3-.1-2.34-.07-3.9-.1-4.65-.1-.55,0-1.51.03-2.86.1-1.36.07-2.21.1-2.56.1-.3,0-.58-.06-.84-.18-.26-.12-.39-.24-.39-.38,0-.4.44-.63,1.31-.68.54-.08.96-.16,1.27-.23.31-.07.62-.21.93-.43.31-.22.55-.41.72-.58.17-.17.38-.51.64-1.03.26-.52.48-.99.65-1.41.18-.42.45-1.11.82-2.09.7-1.84,1.7-4.84,2.99-8.98,1.29-4.15,2.37-7.81,3.24-10.99.45-1.54.62-2.63.49-3.27-.13-.64-.58-1-1.37-1.11-.2-.03-.99-.1-2.36-.2-.79-.08-1.18-.31-1.18-.68,0-.12.13-.24.4-.36s.53-.19.78-.19c.6,0,2.08-.06,4.42-.18,3.35-.17,6.36-.25,9.02-.25ZM618.21,904.7c-.18,0-.44.12-.78.35-.34.24-.57.52-.7.85-.69,1.61-2.13,6.15-4.32,13.62-.35,1.21-.76,2.58-1.23,4.11-.47,1.53-.82,2.7-1.05,3.51-.24.8-.47,1.63-.72,2.46-.24.84-.41,1.46-.51,1.87-.1.41-.15.7-.15.87,0,.27.06.6.18.99.12.39.23.65.35.77.25.3.73.59,1.44.87.71.28,1.31.41,1.8.41,1.02,0,2.28-.24,3.77-.73,1.49-.49,2.92-1.17,4.3-2.06.85-.57,1.71-1.33,2.58-2.29.86-.95,1.7-2.08,2.5-3.38.8-1.3,1.46-2.81,1.96-4.52.5-1.72.75-3.46.75-5.24,0-1.39-.2-2.91-.6-4.57-.4-1.66-1-3.02-1.78-4.07-1.99-2.55-4.58-3.82-7.77-3.82Z"/>
        <path class="cls-2" d="M647.13,915.36c.32,0,.61.15.87.44.26.29.4.65.41,1.07,0,.54-.19,1.34-.58,2.41-.44,1.19-1.02,2.62-1.75,4.3-.73,1.68-1.57,3.58-2.54,5.72-.96,2.14-1.52,3.38-1.67,3.73-.07.13-.06.27.01.4.08.13.17.2.29.2.32,0,.92-.33,1.82-.98.9-.65,1.71-1.35,2.45-2.09.08-.05.16-.09.24-.13.08-.03.15-.06.21-.08.07-.02.12,0,.15.04.03.04.04.11.03.21,0,.34-.18.78-.53,1.33-1.06,1.49-2.42,2.73-4.1,3.72-1.67.99-3.09,1.48-4.25,1.48-.34,0-.68-.18-1.03-.53-.35-.35-.55-.81-.6-1.38,0-1.07.46-2.65,1.38-4.75,2.65-6.05,4.15-9.49,4.52-10.33.08-.2.11-.38.09-.53s-.08-.26-.16-.34c-.08-.08-.16-.1-.23-.06-.64.24-1.65.99-3.04,2.26-.59.47-.92.56-1.01.28-.02-.02-.03-.04-.03-.08,0-.28.16-.63.48-1.03,1.39-1.64,2.85-2.94,4.37-3.88,1.52-.95,2.92-1.42,4.17-1.42ZM648.42,905.73c.74,0,1.26.26,1.58.77.32.51.48,1.05.48,1.62-.02.97-.34,1.74-.95,2.3-.62.56-1.25.84-1.89.84s-1.18-.23-1.57-.7c-.39-.47-.57-1.05-.54-1.73,0-.79.28-1.5.83-2.14.55-.64,1.24-.95,2.06-.95Z"/>
        <path class="cls-2" d="M660.45,915.36c1.11,0,2.04.44,2.82,1.31.32.39.48.8.48,1.23.03.39-.21.87-.72,1.44-.51.58-.96.87-1.34.87s-.8-.24-1.28-.73c-.4-.45-.9-.86-1.51-1.23-.6-.37-1.08-.55-1.43-.55-.4,0-.76.16-1.08.49-.32.33-.48.72-.48,1.19,0,.52.26,1.22.78,2.11.52.89,1.31,2.09,2.36,3.59,1.16,1.81,1.76,3.41,1.81,4.8.02.92-.34,1.86-1.07,2.81-.73.95-1.66,1.8-2.8,2.54-1.94,1.27-3.69,1.91-5.25,1.91-1.06,0-1.92-.3-2.59-.89-.67-.59-1.02-1.34-1.05-2.25,0-.38.11-.84.33-1.37.22-.53.47-.9.75-1.12.37-.37.75-.31,1.13.18,1.86,2.09,3.4,3.14,4.62,3.14.62,0,1.12-.2,1.5-.59.38-.39.55-.9.52-1.52,0-.42-.2-1.01-.59-1.76-.39-.75-1.12-1.95-2.17-3.59-1.14-1.79-1.71-3.33-1.71-4.6,0-.8.26-1.66.79-2.58.53-.91,1.26-1.75,2.2-2.5.74-.64,1.58-1.19,2.53-1.65.95-.46,1.77-.69,2.48-.69Z"/>
        <path class="cls-2" d="M677.89,915.36c1.11,0,1.98.23,2.61.68.85.65,1.28,1.32,1.28,2.01,0,.54-.28,1.11-.83,1.71-.55.6-1,.9-1.33.9-.5,0-1.06-.53-1.68-1.58-.49-.77-.89-1.34-1.22-1.71-.33-.37-.66-.55-.99-.55-.5,0-.99.23-1.47.7-.48.47-1.02,1.25-1.62,2.34-.84,1.47-1.51,3.31-2.02,5.5-.51,2.19-.77,4.16-.77,5.9,0,.67.18,1.3.55,1.9.37.59.82.89,1.36.89.67,0,1.47-.26,2.4-.78.93-.52,1.88-1.34,2.85-2.46.4-.4.69-.51.85-.33.05.05.08.13.08.23,0,.32-.18.81-.53,1.48-1.96,3.3-4.67,4.95-8.12,4.95-.42,0-.88-.12-1.38-.35-.5-.23-1-.58-1.51-1.03-.5-.45-.92-1.08-1.26-1.9-.34-.81-.5-1.71-.5-2.7,0-2.35.54-4.72,1.61-7.11.95-1.99,2.04-3.62,3.24-4.87,1.05-1.04,2.38-1.94,3.97-2.69,1.59-.75,3.07-1.13,4.42-1.13Z"/>
        <path class="cls-2" d="M694.2,915.36c.94,0,1.78.21,2.54.64.75.43,1.35.98,1.8,1.66.44.68.78,1.41,1.02,2.2.23.79.35,1.58.35,2.36,0,1.46-.2,2.88-.6,4.27-.4,1.39-.93,2.62-1.57,3.69-.64,1.07-1.3,2-1.97,2.79-.67.79-1.34,1.44-2.01,1.96-1.89,1.47-4.06,2.21-6.51,2.21-.59,0-1.18-.12-1.77-.35s-1.17-.59-1.72-1.08c-.55-.49-1-1.18-1.34-2.07-.34-.9-.52-1.92-.52-3.08,0-1.59.33-3.35.99-5.29.66-1.94,1.6-3.67,2.83-5.21,1.24-1.52,2.63-2.69,4.18-3.49,1.55-.8,2.99-1.21,4.31-1.21ZM694.55,916.44c-.55,0-1.2.32-1.94.97-.74.65-1.48,1.56-2.24,2.75-1.02,1.66-1.94,3.79-2.76,6.41-.82,2.61-1.23,4.8-1.23,6.56,0,.99.13,1.72.39,2.19.26.47.57.7.94.7.75,0,1.68-.72,2.79-2.16,1.16-1.56,2.32-4.01,3.51-7.36,1.18-3.35,1.77-5.98,1.77-7.89,0-.72-.13-1.26-.39-1.62-.26-.36-.54-.54-.84-.54Z"/>
        <path class="cls-2" d="M702.62,923.2c.07-.94.45-1.93,1.14-2.99.7-1.06,1.47-1.97,2.32-2.74.57-.49,1.16-.89,1.78-1.21.62-.32,1.14-.48,1.56-.48.59,0,1.45.02,2.6.05,1.15.03,1.84.05,2.07.05,1.14,0,1.83-.02,2.06-.05.15-.03.26.03.33.2.07.17.04.34-.08.5-.15.23-.61.85-1.37,1.85-.76,1-1.32,1.79-1.67,2.37-1.96,3.27-2.97,5.93-3.04,7.99-.02,1.12.25,2.01.79,2.66.54.65,1.28.98,2.2.98,1.44,0,2.9-.55,4.38-1.65,1.48-1.1,2.69-2.41,3.62-3.95.93-1.53,1.42-2.96,1.47-4.28.03-.57-.12-1.17-.45-1.8-.34-.63-.69-1.17-1.05-1.62-.37-.45-.55-.7-.55-.75-.08-.54-.02-.96.2-1.28.37-.55.82-1.03,1.36-1.44.54-.41,1.05-.62,1.53-.62s.82.31,1.04.93c.23.62.32,1.32.29,2.11-.17,3.5-1.2,6.86-3.1,10.08-1.9,3.22-4.18,5.65-6.82,7.31-1.74,1.07-3.54,1.61-5.4,1.61-1,0-1.91-.41-2.73-1.24-.81-.83-1.19-1.98-1.14-3.46.05-1.62.74-3.51,2.06-5.65.8-1.32,2.32-3.5,4.55-6.53.1-.2.13-.36.08-.46-.05-.11-.13-.16-.25-.16-1.26-.18-3.21-.2-5.86-.05-1.14.05-1.71.54-1.71,1.46-.02.4.21.99.69,1.76.48.77.72,1.17.72,1.21-.05.39-.29.73-.73,1.04-.44.31-.86.46-1.28.46s-.81-.24-1.13-.72c-.32-.48-.48-.98-.48-1.5Z"/>
        <path class="cls-2" d="M739.78,915.36c1.26,0,2.24.32,2.94.97.7.65,1.05,1.35,1.05,2.12,0,1.91-1.06,3.61-3.19,5.1-.77.54-1.92,1.03-3.44,1.49-1.52.46-2.98.72-4.37.77-.03.02-.08.06-.15.13s-.13.14-.2.23l-.1.13c-.52,1.52-.78,3.08-.78,4.67,0,.89.21,1.58.62,2.06.41.49.96.73,1.65.73.75,0,1.63-.32,2.63-.97,1-.64,2.01-1.53,3.03-2.65.03-.03.08-.04.15-.03.07.02.13.06.19.13.06.07.09.15.09.25,0,.57-.31,1.33-.93,2.29-1.02,1.46-2.23,2.55-3.63,3.28-1.4.73-2.78,1.09-4.13,1.09-1.24,0-2.34-.55-3.3-1.65-.96-1.1-1.45-2.53-1.45-4.28s.38-3.69,1.13-5.53c.75-1.84,1.65-3.44,2.69-4.8,1.31-1.69,2.81-3.04,4.52-4.03,1.71-1,3.37-1.5,5-1.5ZM739.31,916.39c-1.01,0-2.12.77-3.33,2.3-1.21,1.53-2.25,3.45-3.1,5.74-.05.07-.05.13,0,.2.05.07.12.1.2.1,1.51-.27,3.08-1.17,4.71-2.7,1.63-1.53,2.45-2.96,2.45-4.28,0-.9-.31-1.36-.93-1.36Z"/>
        <path class="cls-2" d="M761.67,915.21c.75,0,1.31.25,1.67.75s.54,1.1.54,1.78c0,1.29-.4,2.34-1.19,3.15-.8.81-1.56,1.22-2.3,1.22-.2,0-.38-.12-.54-.35s-.24-.49-.24-.78c.05-1.83-.19-2.74-.73-2.74-.27,0-.52.09-.77.26-.24.18-.63.68-1.17,1.51-.54.83-1.19,2.04-1.96,3.63-3.67,7.44-5.78,11.63-6.33,12.56-.32.62-.71.93-1.18.93-.39,0-.81-.09-1.27-.28-.46-.18-.82-.49-1.07-.9-.24-.37-.29-.89-.15-1.56.02-.07.63-1.78,1.83-5.13,1.21-3.35,2.09-5.93,2.66-7.74.52-1.51.48-2.26-.13-2.26-.67,0-1.61.49-2.81,1.48-.52.52-.86.78-1.03.78-.1,0-.18-.05-.23-.15-.05-.1-.06-.22-.03-.35.23-1.14,1.05-2.32,2.46-3.56,1.41-1.23,2.95-1.85,4.62-1.85.59,0,1.1.2,1.53.6.44.4.64.95.63,1.66,0,.27-.56,2.07-1.68,5.4,0,.1.05.18.15.23.1.05.2,0,.3-.13.13-.2.39-.58.75-1.14.37-.56.66-1,.88-1.33.22-.33.52-.74.89-1.24.38-.5.75-.98,1.12-1.43,1.64-2.03,3.22-3.04,4.75-3.04Z"/>
        <path class="cls-2" d="M778.98,915.36c1.91,0,3.22,1.6,3.92,4.8.2.87.33,1.89.39,3.05.06,1.16.07,2.16.04,2.98-.03.82-.08,1.86-.15,3.12-.07,1.26-.11,2.1-.13,2.54-.03.65.03.97.18.95.1-.02.24-.2.43-.55,1.29-2.31,2.39-4.96,3.29-7.94.9-2.98,1.41-5.74,1.51-8.27,0-.13.06-.28.18-.44.12-.16.23-.24.33-.24.49,0,.93.24,1.32.73.39.49.59,1.02.59,1.61,0,1.71-.67,4.1-2,7.19-1.33,3.08-2.83,6.09-4.49,9.02-.37.62-.74,1.21-1.11,1.76-.37.55-.71,1.04-1.02,1.46-.31.42-.52.71-.62.88-1.05,1.69-2.25,3.39-3.59,5.09-1.34,1.7-2.63,3.04-3.87,4.03-1.26,1.02-2.32,1.7-3.2,2.05-.88.34-1.76.51-2.65.51-.77,0-1.41-.24-1.92-.73-.51-.49-.77-1.05-.77-1.68,0-.84.29-1.56.87-2.17.58-.61,1.12-.92,1.62-.92.42,0,.71.29.88.88.32,1.14,1.05,1.71,2.21,1.71,1.39,0,2.78-.78,4.17-2.34,1.36-1.69,2.33-3.99,2.91-6.89.29-1.41.5-3.07.65-4.98.15-1.91.18-3.91.09-6.01-.09-2.09-.34-3.8-.74-5.13-.25-.77-.49-1.32-.73-1.63-.24-.32-.5-.48-.8-.48-.75,0-1.68,1.08-2.79,3.24-.22.49-.39.73-.5.73-.1,0-.2-.08-.29-.25-.09-.17-.14-.34-.14-.53,0-.97.24-2,.73-3.09.49-1.09,1.2-2.04,2.15-2.85.95-.81,1.96-1.22,3.05-1.22Z"/>
        <path class="cls-2" d="M805.27,915.36c.94,0,1.78.21,2.54.64.75.43,1.35.98,1.8,1.66.44.68.78,1.41,1.02,2.2.23.79.35,1.58.35,2.36,0,1.46-.2,2.88-.6,4.27-.4,1.39-.93,2.62-1.57,3.69-.64,1.07-1.3,2-1.97,2.79-.67.79-1.34,1.44-2.01,1.96-1.89,1.47-4.06,2.21-6.51,2.21-.59,0-1.18-.12-1.77-.35s-1.17-.59-1.72-1.08c-.55-.49-1-1.18-1.34-2.07-.34-.9-.52-1.92-.52-3.08,0-1.59.33-3.35.99-5.29.66-1.94,1.6-3.67,2.83-5.21,1.24-1.52,2.63-2.69,4.18-3.49,1.55-.8,2.99-1.21,4.31-1.21ZM805.62,916.44c-.55,0-1.2.32-1.94.97-.74.65-1.48,1.56-2.24,2.75-1.02,1.66-1.94,3.79-2.76,6.41-.82,2.61-1.23,4.8-1.23,6.56,0,.99.13,1.72.39,2.19.26.47.57.7.94.7.75,0,1.68-.72,2.79-2.16,1.16-1.56,2.32-4.01,3.51-7.36,1.18-3.35,1.77-5.98,1.77-7.89,0-.72-.13-1.26-.39-1.62-.26-.36-.54-.54-.84-.54Z"/>
        <path class="cls-2" d="M823.84,915.41c.44,0,.81.24,1.12.7.31.47.31,1.13.01,1.99-.27.84-1.27,3.2-3.02,7.09-1.74,3.89-2.78,6.27-3.12,7.16-.17.57-.19.98-.06,1.23.13.25.32.38.59.38s.8-.35,1.61-1.06c.8-.7,1.68-1.61,2.61-2.71.9-1,1.89-2.26,2.97-3.77,1.07-1.51,1.96-2.83,2.68-3.98.71-1.15,1.45-2.35,2.2-3.62.75-1.26,1.17-1.96,1.26-2.1.23-.33.59-.65,1.08-.95s1.04-.45,1.66-.45c.33,0,.58.14.73.41.15.28.23.55.23.82,0,.22-.02.46-.06.72-.04.26-.09.49-.14.69s-.13.46-.24.78c-.11.32-.19.56-.25.72-.06.16-.16.41-.29.77-.13.35-.22.58-.25.68-2.14,5.55-3.53,9.09-4.17,10.63-.07.12-.05.25.04.4.09.15.19.23.29.23.95,0,2.53-1.13,4.72-3.39.1-.08.21-.1.34-.05.13.05.19.12.19.2,0,.3-.21.81-.63,1.53-.92,1.57-2.38,3.09-4.37,4.54-1.99,1.45-3.64,2.17-4.95,2.17-.3,0-.58-.14-.84-.43-.26-.29-.39-.58-.39-.88,0-.59.18-1.34.53-2.26.15-.42.92-2.39,2.31-5.9.03-.1.03-.2,0-.3-.03-.1-.09-.18-.16-.23-.08-.05-.15-.05-.21,0-1.12,1.47-2.48,3.01-4.06,4.61-1.58,1.6-2.9,2.79-3.96,3.58-1.68,1.21-3.2,1.81-4.57,1.81-.47,0-.87-.2-1.21-.59-.34-.39-.5-.85-.5-1.37,0-.65.21-1.6.63-2.84.65-1.89,2.28-5.85,4.87-11.89.07-.15.07-.29,0-.41-.07-.13-.15-.19-.25-.19-.22,0-.74.24-1.57.72s-1.58.96-2.25,1.45c-.08.08-.17.13-.26.14-.09,0-.17,0-.24-.05-.07-.04-.1-.09-.1-.14,0-.37.26-.85.78-1.46,1.01-1.16,2.33-2.29,3.98-3.42,1.65-1.12,3.22-1.68,4.71-1.68Z"/>
        <path class="cls-2" d="M855.42,915.21c.75,0,1.31.25,1.67.75s.54,1.1.54,1.78c0,1.29-.4,2.34-1.19,3.15-.8.81-1.56,1.22-2.3,1.22-.2,0-.38-.12-.54-.35s-.24-.49-.24-.78c.05-1.83-.19-2.74-.73-2.74-.27,0-.52.09-.77.26-.24.18-.63.68-1.17,1.51-.54.83-1.19,2.04-1.96,3.63-3.67,7.44-5.78,11.63-6.33,12.56-.32.62-.71.93-1.18.93-.39,0-.81-.09-1.27-.28-.46-.18-.82-.49-1.07-.9-.24-.37-.29-.89-.15-1.56.02-.07.63-1.78,1.83-5.13,1.21-3.35,2.09-5.93,2.66-7.74.52-1.51.48-2.26-.13-2.26-.67,0-1.61.49-2.81,1.48-.52.52-.86.78-1.03.78-.1,0-.18-.05-.23-.15-.05-.1-.06-.22-.03-.35.23-1.14,1.05-2.32,2.46-3.56,1.41-1.23,2.95-1.85,4.62-1.85.59,0,1.1.2,1.53.6.44.4.64.95.63,1.66,0,.27-.56,2.07-1.68,5.4,0,.1.05.18.15.23.1.05.2,0,.3-.13.13-.2.39-.58.75-1.14.37-.56.66-1,.88-1.33.22-.33.52-.74.89-1.24.38-.5.75-.98,1.12-1.43,1.64-2.03,3.22-3.04,4.75-3.04Z"/>
        <path class="cls-2" d="M880,915.36c1.96,0,3.5.34,4.62,1.03.69.4,1.2,1.03,1.55,1.87.34.85.52,1.61.52,2.3,0,3.02-1.01,6.01-3.03,9-2.02,2.98-4.61,5.27-7.78,6.86-1.01.49-1.87.73-2.59.73-.12,0-.24-.02-.35-.06-.12-.04-.27-.12-.47-.23-.19-.11-.33-.19-.41-.24-.13-.07-.29-.02-.45.15-.39.5-.7,1.32-.93,2.44-.03.15-.24,1.05-.62,2.69-.38,1.64-.63,2.83-.77,3.57-.15.85-.1,1.47.16,1.86.26.39.97.65,2.15.78.28.02.53.09.73.21s.3.26.3.39c0,.12-.11.24-.33.38-.22.13-.5.2-.85.2-5.28,0-8.88.15-10.8.45-.79.12-1.18-.05-1.18-.5,0-.22.38-.46,1.13-.73.95-.25,1.65-.56,2.07-.93.43-.37.8-.98,1.12-1.83.44-1.21,2.94-10.29,7.51-27.24,0-.1-.02-.21-.06-.31-.04-.11-.1-.16-.16-.14-.77.17-2.05.53-3.85,1.08-.45.15-.68.12-.68-.1,0-.32.29-.66.88-1.03.37-.23.99-.54,1.86-.9.87-.37,1.62-.65,2.26-.85.27-.08.45-.25.55-.5.08-.33.52-1.66,1.31-3.97.07-.22.2-.43.41-.63.21-.2.39-.3.54-.3.8,0,1.55.23,2.22.69.68.46,1.02.92,1.02,1.37,0,.03-.13.77-.4,2.21,0,.08.03.18.09.28.06.1.11.15.16.15,1.59-.12,2.44-.18,2.54-.18ZM878.34,916.97c-.29,0-.73.05-1.33.15-.08.02-.18.1-.3.25s-.19.28-.23.38c-.07.18-.32,1.11-.75,2.76s-.96,3.66-1.58,6.02c-.62,2.35-1.12,4.23-1.51,5.62-.25.85-.38,1.59-.38,2.21-.03.25.03.54.2.88.17.34.34.5.53.5.23,0,.59-.14,1.07-.41.48-.28.97-.65,1.47-1.12,1.47-1.36,2.83-3.43,4.06-6.21,1.23-2.78,1.85-5.03,1.85-6.76,0-1.21-.25-2.22-.75-3.04-.5-.82-1.28-1.23-2.34-1.23Z"/>
        <path class="cls-2" d="M903.69,916.14c.22,0,.42.04.62.13s.37.19.54.33c.17.13.28.21.33.23.15.07.27.02.35-.15.39-.57.74-1,1.08-1.28.34-.28.59-.43.78-.43.35,0,.76.11,1.22.31.46.21.84.43,1.14.67.18.18.28.35.28.5-.05.45-.76,2.63-2.12,6.53-1.37,3.9-2.41,6.83-3.13,8.77-.07.17-.05.32.05.45.1.13.22.2.35.2,1.11,0,2.7-1.1,4.77-3.29.08-.12.18-.08.3.1.05.08.08.18.08.28,0,.23-.21.73-.63,1.48-1.02,1.64-2.42,3.08-4.2,4.32-1.78,1.24-3.52,1.86-5.23,1.86-.52,0-.9-.14-1.13-.43-.24-.29-.35-.55-.35-.8,0-.13.04-.36.13-.67.08-.31.22-.72.4-1.22.18-.5.37-1,.55-1.51.18-.5.43-1.15.74-1.95.31-.8.57-1.5.79-2.12.07-.15.02-.23-.15-.25-.13-.02-.25.03-.35.13-5.53,5.88-9.44,8.82-11.74,8.82-.5,0-.97-.27-1.41-.8-.44-.54-.65-1.2-.65-1.99s.31-1.81.92-3.13c.61-1.32,1.35-2.55,2.22-3.71,2.21-3,4.83-5.71,7.87-8.14,1.22-.9,2.37-1.67,3.43-2.3,1.06-.63,1.78-.94,2.15-.94ZM902.04,919.23c-1.62,0-3.23.82-4.82,2.46-1.12,1.17-2.16,2.72-3.12,4.64-.95,1.92-1.43,3.53-1.43,4.84,0,.22.08.5.23.85.15.35.39.53.7.53,1.04,0,2.5-.87,4.37-2.61,2.06-2.06,4.04-5.32,5.93-9.78.05-.08.07-.17.06-.26,0-.09-.03-.17-.05-.23-.03-.06-.05-.09-.06-.09-.34-.23-.94-.35-1.81-.35Z"/>
        <path class="cls-2" d="M924.27,909.65c.08,0,.16.04.24.11.08.08.13.21.16.41s0,.47-.1.8c-.27,1.11-.71,2.62-1.33,4.55-.03.1-.04.22-.03.35.02.13.06.2.13.2.27,0,.98-.03,2.14-.08,1.16-.05,1.85-.08,2.08-.08.17,0,.32.06.45.18.13.12.2.23.2.33,0,.15-.13.33-.4.54s-.64.36-1.13.44c-.49.08-1.18.16-2.09.24-.9.08-1.44.12-1.61.14-.35.07-.58.23-.68.5-.74,2.01-2.14,6.35-4.22,13.02-.07.22-.06.42.01.6.08.18.19.28.34.28.33,0,.93-.29,1.78-.87.85-.58,1.72-1.29,2.59-2.12.05-.07.17-.1.35-.09.18,0,.28.11.28.29,0,.47-.26,1.04-.78,1.71-1.21,1.66-2.79,3.08-4.76,4.26-1.97,1.18-3.52,1.77-4.66,1.77-.27,0-.57-.2-.89-.6-.33-.4-.49-.74-.49-1.01,0-.65.23-1.62.68-2.89.13-.4.49-1.47,1.07-3.22.58-1.74,1.21-3.64,1.88-5.69.68-2.05,1.29-3.85,1.82-5.39.05-.1.05-.21,0-.33-.05-.12-.12-.18-.2-.18-.25-.02-.65-.03-1.19-.05-.54-.02-.92-.03-1.12-.05-.15-.02-.29-.09-.4-.23-.12-.13-.18-.23-.18-.3,0-.2.13-.38.38-.54.25-.16.47-.26.65-.29.42-.08,1.23-.15,2.44-.2.27-.05.44-.17.5-.35,1.07-2.48,1.73-3.89,1.96-4.22.27-.37.85-.79,1.75-1.26.9-.47,1.69-.7,2.37-.7Z"/>
        <path class="cls-2" d="M945.51,915.36c1.09,0,1.92.39,2.49,1.17s.85,1.75.85,2.9c0,2.21-.52,4.65-1.56,7.32-1.04,2.67-2.04,4.57-3.02,5.69-.9,1.09-2,2.04-3.29,2.84-.42.28-1.26.72-2.54,1.32-1.27.59-2.08.89-2.41.89-.55,0-1-.16-1.33-.48-.34-.32-.5-.62-.5-.9s.13-.65.4-1.11c.27-.45.51-.79.73-1.01.1-.08.25-.14.44-.18.19-.03.31-.03.37.03,1.29.89,2.17,1.33,2.64,1.33.35,0,.66-.26.93-.78.89-1.44,1.75-3.63,2.59-6.58.84-2.95,1.26-5.32,1.26-7.11,0-.7-.11-1.32-.31-1.86-.21-.54-.55-.8-1.02-.8-1.47,0-3.53,1.99-6.18,5.96-.74,1.16-1.56,2.59-2.46,4.31-.9,1.72-1.76,3.41-2.58,5.09-.81,1.68-1.26,2.6-1.34,2.76-.12.3-.33.55-.64.74s-.59.29-.84.29c-.28,0-.67-.16-1.14-.49-.48-.33-.77-.57-.87-.74-.18-.42-.17-1.04.05-1.86.52-1.86,1.45-5.11,2.79-9.75,1.34-4.64,2.52-8.78,3.54-12.43,1.02-3.64,1.71-6.19,2.06-7.63.1-.35.03-.67-.21-.97-.24-.29-.74-.67-1.5-1.14-.37-.22-.55-.42-.55-.6,0-.12.09-.24.26-.36.18-.13.4-.2.67-.21.77-.08,2.11-.26,4.01-.53,1.9-.27,3.05-.4,3.46-.4.07,0,.12.02.16.06.04.04.08.11.11.21.03.1.05.23.04.38,0,.15-.03.34-.08.57-.04.23-.1.47-.19.74-.2.67-.64,2.09-1.32,4.27-.68,2.18-1.57,5.02-2.68,8.53-1.11,3.51-1.99,6.33-2.64,8.46-.03.1-.04.18-.01.25s.07.1.13.11c.06,0,.12-.03.19-.11.82-1.14,1.83-2.33,3.04-3.57,1.21-1.24,2.47-2.29,3.79-3.17,1.44-.97,2.85-1.46,4.22-1.46Z"/>
        <path class="cls-2" d="M953.95,929.93c.57,0,1.06.14,1.48.43.42.29.73.65.94,1.08.21.44.36.87.47,1.29.1.43.15.83.15,1.22,0,.97-.22,1.91-.67,2.81-.44.9-.99,1.67-1.65,2.3-.65.63-1.37,1.19-2.15,1.7-.78.5-1.48.89-2.1,1.16-.62.27-1.15.44-1.58.53-.69.12-1.03.03-1.03-.28,0-.18.33-.47.98-.85,2.85-1.68,4.27-3.44,4.27-5.3,0-.64-.18-1.11-.54-1.43-.36-.32-.9-.56-1.62-.73-.1,0-.21-.06-.31-.19s-.16-.24-.16-.34c0-.8.37-1.57,1.12-2.3.75-.73,1.55-1.09,2.4-1.09Z"/>
        <path class="cls-2" d="M992.05,903.42c2.26,0,4.31.35,6.14,1.06,1.83.7,3.28,1.52,4.33,2.44,1.51,1.26,2.67,2.84,3.48,4.76.81,1.92,1.22,3.87,1.22,5.84,0,1.61-.2,3.16-.59,4.66-.39,1.5-.89,2.82-1.49,3.96-.6,1.14-1.31,2.2-2.12,3.18-.81.98-1.61,1.79-2.37,2.44-.77.65-1.55,1.19-2.34,1.62-3.69,2.16-8.16,3.24-13.42,3.24-.52,0-1.95-.03-4.3-.1-2.34-.07-3.9-.1-4.65-.1-.55,0-1.51.03-2.86.1-1.36.07-2.21.1-2.56.1-.3,0-.58-.06-.84-.18-.26-.12-.39-.24-.39-.38,0-.4.44-.63,1.31-.68.54-.08.96-.16,1.27-.23.31-.07.62-.21.93-.43.31-.22.55-.41.72-.58.17-.17.38-.51.64-1.03.26-.52.48-.99.65-1.41.18-.42.45-1.11.82-2.09.7-1.84,1.7-4.84,2.99-8.98,1.29-4.15,2.37-7.81,3.24-10.99.45-1.54.62-2.63.49-3.27-.13-.64-.58-1-1.37-1.11-.2-.03-.99-.1-2.36-.2-.79-.08-1.18-.31-1.18-.68,0-.12.13-.24.4-.36s.53-.19.78-.19c.6,0,2.08-.06,4.42-.18,3.35-.17,6.36-.25,9.02-.25ZM990.64,904.7c-.18,0-.44.12-.78.35-.34.24-.57.52-.7.85-.69,1.61-2.13,6.15-4.32,13.62-.35,1.21-.76,2.58-1.23,4.11-.47,1.53-.82,2.7-1.05,3.51-.24.8-.47,1.63-.72,2.46-.24.84-.41,1.46-.51,1.87-.1.41-.15.7-.15.87,0,.27.06.6.18.99.12.39.23.65.35.77.25.3.73.59,1.44.87.71.28,1.31.41,1.8.41,1.02,0,2.28-.24,3.77-.73,1.49-.49,2.92-1.17,4.3-2.06.85-.57,1.71-1.33,2.58-2.29.86-.95,1.7-2.08,2.5-3.38.8-1.3,1.46-2.81,1.96-4.52.5-1.72.75-3.46.75-5.24,0-1.39-.2-2.91-.6-4.57-.4-1.66-1-3.02-1.78-4.07-1.99-2.55-4.58-3.82-7.77-3.82Z"/>
        <path class="cls-2" d="M1022.6,915.36c1.26,0,2.24.32,2.94.97.7.65,1.05,1.35,1.05,2.12,0,1.91-1.06,3.61-3.19,5.1-.77.54-1.92,1.03-3.44,1.49-1.52.46-2.98.72-4.37.77-.03.02-.08.06-.15.13s-.13.14-.2.23l-.1.13c-.52,1.52-.78,3.08-.78,4.67,0,.89.21,1.58.62,2.06.41.49.96.73,1.65.73.75,0,1.63-.32,2.63-.97,1-.64,2.01-1.53,3.03-2.65.03-.03.08-.04.15-.03.07.02.13.06.19.13.06.07.09.15.09.25,0,.57-.31,1.33-.93,2.29-1.02,1.46-2.23,2.55-3.63,3.28-1.4.73-2.78,1.09-4.13,1.09-1.24,0-2.34-.55-3.3-1.65-.96-1.1-1.45-2.53-1.45-4.28s.38-3.69,1.13-5.53c.75-1.84,1.65-3.44,2.69-4.8,1.31-1.69,2.81-3.04,4.52-4.03,1.71-1,3.37-1.5,5-1.5ZM1022.12,916.39c-1.01,0-2.12.77-3.33,2.3-1.21,1.53-2.25,3.45-3.1,5.74-.05.07-.05.13,0,.2.05.07.12.1.2.1,1.51-.27,3.08-1.17,4.71-2.7,1.63-1.53,2.45-2.96,2.45-4.28,0-.9-.31-1.36-.93-1.36Z"/>
        <path class="cls-2" d="M1047.63,900.13c1.78,0,3.14.39,4.08,1.16.95.77,1.42,1.68,1.42,2.71,0,.64-.18,1.18-.55,1.63-.32.42-.78.74-1.38.96s-1.12.33-1.56.33c-.2,0-.41-.14-.62-.41-.21-.28-.31-.53-.31-.77-.02-1.36-.26-2.42-.73-3.18-.47-.76-1.08-1.14-1.83-1.14-1.79,0-3.36,1.42-4.7,4.27-1.07,2.35-2.22,5.7-3.44,10.05-.03.05-.04.14-.01.26.03.13.1.19.21.19l5.48-.1c3.84-.15,6.16-.36,6.99-.63.1-.03.19,0,.26.1.08.1.12.22.13.36,0,.14-.02.3-.09.46-1.63,3.87-3.56,9.41-5.8,16.63-.12.34-.02.5.3.5.37,0,.96-.28,1.78-.85.82-.57,1.63-1.26,2.44-2.06.08-.12.21-.18.38-.18s.25.08.25.23c0,.32-.24.85-.73,1.58-1.07,1.49-2.41,2.68-4.02,3.57-1.61.89-2.98,1.33-4.12,1.33-.39,0-.76-.25-1.13-.75s-.55-1.05-.55-1.63c0-.28.03-.56.1-.83.07-.27.2-.68.39-1.24s.34-.98.44-1.27c2.66-8.01,4.14-12.4,4.42-13.17.05-.12.06-.28.04-.48-.03-.2-.09-.3-.19-.3-3.72,0-6.04.05-6.96.15-.39.05-.64.29-.75.73-.13.49-.71,2.7-1.72,6.65s-1.88,7.27-2.61,9.98c-.73,2.7-1.28,4.59-1.65,5.67-1.29,3.52-3.71,6.32-7.26,8.39-1.47.89-2.9,1.33-4.27,1.33-.9,0-1.81-.27-2.73-.82s-1.36-1.25-1.34-2.12c0-.32.2-.74.59-1.27.39-.53.83-.91,1.32-1.14.55-.3,1.19-.09,1.91.63.17.18.4.44.69.78.29.33.52.59.69.77.17.18.37.37.59.58.23.21.44.36.63.45.19.09.39.14.59.14.49,0,.87-.28,1.16-.84.29-.56.74-1.75,1.36-3.56.07-.18.12-.33.15-.43.27-.79,1.36-4.8,3.27-12.05,1.91-7.25,3.09-11.62,3.54-13.13.05-.17.03-.31-.06-.43s-.21-.18-.36-.18h-2.31c-.13,0-.28-.04-.43-.11-.15-.08-.27-.15-.35-.24l-.1-.13c0-.1.1-.23.3-.39.2-.16.44-.29.73-.39.13-.05.4-.1.8-.14.4-.04.82-.08,1.26-.1.44-.03.69-.05.78-.06.27-.05.48-.25.63-.6.72-2.38,1.47-4.33,2.25-5.87.78-1.53,1.67-2.94,2.68-4.23,1.34-1.69,2.84-3.01,4.5-3.95,1.66-.94,3.38-1.41,5.18-1.41Z"/>
        <path class="cls-2" d="M1072.78,915.36c.79,0,1.38.27,1.77.8.39.54.57,1.13.54,1.78,0,.92-.34,2.22-1.03,3.89-.55,1.22-1.37,3.11-2.44,5.67-1.07,2.55-1.62,3.86-1.63,3.91-.08.25-.1.44-.04.55.06.12.16.18.29.18.37,0,1.03-.3,1.99-.89.95-.59,1.86-1.28,2.71-2.05.25-.2.43-.23.53-.1.03.03.04.08.03.15,0,.35-.2.85-.6,1.51-1.19,1.56-2.9,3.01-5.14,4.36-2.24,1.35-4.03,2.02-5.37,2.02-.44,0-.76-.16-.98-.48-.13-.17-.22-.43-.26-.79-.04-.36,0-.69.11-.99.02-.03,1.03-2.19,3.04-6.47,2.01-4.28,3.21-6.96,3.59-8.05.25-.62.41-1.15.47-1.58.06-.44.04-.75-.06-.93-.1-.18-.25-.28-.45-.28-1.39,0-3.29,1.6-5.7,4.8-.84,1.12-1.83,2.65-2.99,4.59-1.16,1.94-2.32,3.97-3.49,6.11-1.17,2.14-1.78,3.24-1.81,3.3-.39.55-.8.83-1.23.83-.6,0-1.15-.16-1.63-.46-.49-.31-.73-.64-.73-.99,0-.49.17-1.13.5-1.94,2.38-5.96,4.32-10.5,5.83-13.59.12-.22.11-.42-.03-.6-.13-.18-.32-.28-.55-.28-.8,0-1.97.7-3.49,2.11-.24.23-.41.35-.53.35-.05,0-.11-.05-.19-.14-.08-.09-.11-.2-.11-.31.02-.22.14-.55.36-1s.57-.97,1.02-1.55c.45-.58.97-1.12,1.56-1.62.59-.5,1.29-.93,2.12-1.28.83-.35,1.68-.53,2.55-.53.69,0,1.26.32,1.71.97.45.65.57,1.25.35,1.82-.13.42-.72,1.78-1.76,4.07-.1.23-.14.4-.11.49.03.09.09.12.19.08s.2-.13.3-.26c2.08-2.35,3.98-4.08,5.7-5.2,1.89-1.31,3.59-1.96,5.1-1.96Z"/>
        <path class="cls-2" d="M1091.2,915.36c1.26,0,2.24.32,2.94.97.7.65,1.05,1.35,1.05,2.12,0,1.91-1.06,3.61-3.19,5.1-.77.54-1.92,1.03-3.44,1.49-1.52.46-2.98.72-4.37.77-.03.02-.08.06-.15.13s-.13.14-.2.23l-.1.13c-.52,1.52-.78,3.08-.78,4.67,0,.89.21,1.58.62,2.06.41.49.96.73,1.65.73.75,0,1.63-.32,2.63-.97,1-.64,2.01-1.53,3.03-2.65.03-.03.08-.04.15-.03.07.02.13.06.19.13.06.07.09.15.09.25,0,.57-.31,1.33-.93,2.29-1.02,1.46-2.23,2.55-3.63,3.28-1.4.73-2.78,1.09-4.13,1.09-1.24,0-2.34-.55-3.3-1.65-.96-1.1-1.45-2.53-1.45-4.28s.38-3.69,1.13-5.53c.75-1.84,1.65-3.44,2.69-4.8,1.31-1.69,2.81-3.04,4.52-4.03,1.71-1,3.37-1.5,5-1.5ZM1090.72,916.39c-1.01,0-2.12.77-3.33,2.3-1.21,1.53-2.25,3.45-3.1,5.74-.05.07-.05.13,0,.2.05.07.12.1.2.1,1.51-.27,3.08-1.17,4.71-2.7,1.63-1.53,2.45-2.96,2.45-4.28,0-.9-.31-1.36-.93-1.36Z"/>
        <path class="cls-2" d="M1111.33,915.36c1.91,0,3.22,1.6,3.92,4.8.2.87.33,1.89.39,3.05.06,1.16.07,2.16.04,2.98-.03.82-.08,1.86-.15,3.12-.07,1.26-.11,2.1-.13,2.54-.03.65.03.97.18.95.1-.02.24-.2.43-.55,1.29-2.31,2.39-4.96,3.29-7.94.9-2.98,1.41-5.74,1.51-8.27,0-.13.06-.28.18-.44.12-.16.23-.24.33-.24.49,0,.93.24,1.32.73.39.49.59,1.02.59,1.61,0,1.71-.67,4.1-2,7.19-1.33,3.08-2.83,6.09-4.49,9.02-.37.62-.74,1.21-1.11,1.76-.37.55-.71,1.04-1.02,1.46-.31.42-.52.71-.62.88-1.05,1.69-2.25,3.39-3.59,5.09-1.34,1.7-2.63,3.04-3.87,4.03-1.26,1.02-2.32,1.7-3.2,2.05-.88.34-1.76.51-2.65.51-.77,0-1.41-.24-1.92-.73-.51-.49-.77-1.05-.77-1.68,0-.84.29-1.56.87-2.17.58-.61,1.12-.92,1.62-.92.42,0,.71.29.88.88.32,1.14,1.05,1.71,2.21,1.71,1.39,0,2.78-.78,4.17-2.34,1.36-1.69,2.33-3.99,2.91-6.89.29-1.41.5-3.07.65-4.98.15-1.91.18-3.91.09-6.01-.09-2.09-.34-3.8-.74-5.13-.25-.77-.49-1.32-.73-1.63-.24-.32-.5-.48-.8-.48-.75,0-1.68,1.08-2.79,3.24-.22.49-.39.73-.5.73-.1,0-.2-.08-.29-.25-.09-.17-.14-.34-.14-.53,0-.97.24-2,.73-3.09.49-1.09,1.2-2.04,2.15-2.85.95-.81,1.96-1.22,3.05-1.22Z"/>
        <path class="cls-2" d="M1137.61,915.36c.94,0,1.78.21,2.54.64.75.43,1.35.98,1.8,1.66.44.68.78,1.41,1.02,2.2.23.79.35,1.58.35,2.36,0,1.46-.2,2.88-.6,4.27-.4,1.39-.93,2.62-1.57,3.69-.64,1.07-1.3,2-1.97,2.79-.67.79-1.34,1.44-2.01,1.96-1.89,1.47-4.06,2.21-6.51,2.21-.59,0-1.18-.12-1.77-.35s-1.17-.59-1.72-1.08c-.55-.49-1-1.18-1.34-2.07-.34-.9-.52-1.92-.52-3.08,0-1.59.33-3.35.99-5.29s1.6-3.67,2.83-5.21c1.24-1.52,2.63-2.69,4.18-3.49,1.55-.8,2.99-1.21,4.31-1.21ZM1137.97,916.44c-.55,0-1.2.32-1.94.97-.74.65-1.48,1.56-2.24,2.75-1.02,1.66-1.94,3.79-2.76,6.41-.82,2.61-1.23,4.8-1.23,6.56,0,.99.13,1.72.39,2.19.26.47.57.7.94.7.75,0,1.68-.72,2.79-2.16,1.16-1.56,2.32-4.01,3.51-7.36,1.18-3.35,1.77-5.98,1.77-7.89,0-.72-.13-1.26-.39-1.62-.26-.36-.54-.54-.84-.54Z"/>
        <path class="cls-2" d="M1156.18,915.41c.44,0,.81.24,1.12.7.31.47.31,1.13.01,1.99-.27.84-1.27,3.2-3.02,7.09-1.74,3.89-2.78,6.27-3.12,7.16-.17.57-.19.98-.06,1.23.13.25.32.38.59.38s.8-.35,1.61-1.06c.8-.7,1.68-1.61,2.61-2.71.9-1,1.89-2.26,2.97-3.77,1.07-1.51,1.96-2.83,2.68-3.98.71-1.15,1.45-2.35,2.2-3.62.75-1.26,1.17-1.96,1.26-2.1.23-.33.59-.65,1.08-.95s1.04-.45,1.66-.45c.33,0,.58.14.73.41.15.28.23.55.23.82,0,.22-.02.46-.06.72-.04.26-.09.49-.14.69s-.13.46-.24.78c-.11.32-.19.56-.25.72-.06.16-.16.41-.29.77-.13.35-.22.58-.25.68-2.14,5.55-3.53,9.09-4.17,10.63-.07.12-.05.25.04.4.09.15.19.23.29.23.95,0,2.53-1.13,4.72-3.39.1-.08.21-.1.34-.05.13.05.19.12.19.2,0,.3-.21.81-.63,1.53-.92,1.57-2.38,3.09-4.37,4.54-1.99,1.45-3.64,2.17-4.95,2.17-.3,0-.58-.14-.84-.43-.26-.29-.39-.58-.39-.88,0-.59.18-1.34.53-2.26.15-.42.92-2.39,2.31-5.9.03-.1.03-.2,0-.3-.03-.1-.09-.18-.16-.23-.08-.05-.15-.05-.21,0-1.12,1.47-2.48,3.01-4.06,4.61-1.58,1.6-2.9,2.79-3.96,3.58-1.68,1.21-3.2,1.81-4.57,1.81-.47,0-.87-.2-1.21-.59-.34-.39-.5-.85-.5-1.37,0-.65.21-1.6.63-2.84.65-1.89,2.28-5.85,4.87-11.89.07-.15.07-.29,0-.41-.07-.13-.15-.19-.25-.19-.22,0-.74.24-1.57.72s-1.58.96-2.25,1.45c-.08.08-.17.13-.26.14-.09,0-.17,0-.24-.05-.07-.04-.1-.09-.1-.14,0-.37.26-.85.78-1.46,1.01-1.16,2.33-2.29,3.98-3.42,1.65-1.12,3.22-1.68,4.71-1.68Z"/>
        <path class="cls-2" d="M1187.77,915.21c.75,0,1.31.25,1.67.75s.54,1.1.54,1.78c0,1.29-.4,2.34-1.19,3.15-.8.81-1.56,1.22-2.3,1.22-.2,0-.38-.12-.54-.35s-.24-.49-.24-.78c.05-1.83-.19-2.74-.73-2.74-.27,0-.52.09-.77.26-.24.18-.63.68-1.17,1.51-.54.83-1.19,2.04-1.96,3.63-3.67,7.44-5.78,11.63-6.33,12.56-.32.62-.71.93-1.18.93-.39,0-.81-.09-1.27-.28-.46-.18-.82-.49-1.07-.9-.24-.37-.29-.89-.15-1.56.02-.07.63-1.78,1.83-5.13,1.21-3.35,2.09-5.93,2.66-7.74.52-1.51.48-2.26-.13-2.26-.67,0-1.61.49-2.81,1.48-.52.52-.86.78-1.03.78-.1,0-.18-.05-.23-.15-.05-.1-.06-.22-.03-.35.23-1.14,1.05-2.32,2.46-3.56,1.41-1.23,2.95-1.85,4.62-1.85.59,0,1.1.2,1.53.6.44.4.64.95.63,1.66,0,.27-.56,2.07-1.68,5.4,0,.1.05.18.15.23.1.05.2,0,.3-.13.13-.2.39-.58.75-1.14.37-.56.66-1,.88-1.33.22-.33.52-.74.89-1.24.38-.5.75-.98,1.12-1.43,1.64-2.03,3.22-3.04,4.75-3.04Z"/>
        <path class="cls-2" d="M1215.94,902.92c1.07,0,2.16.14,3.27.41,1.11.28,1.93.6,2.49.97.39.27.85.2,1.41-.2.22-.13.39-.2.5-.2.13,0,.23.1.29.3s.05.44-.04.73l-1.99,5.75c-.23.75-.51,1.13-.83,1.13-.18,0-.3-.12-.35-.36-.05-.24-.06-.65-.03-1.22.03-1.81-.41-3.3-1.32-4.47-.91-1.17-2.18-1.76-3.81-1.76s-2.79.52-3.69,1.57c-.9,1.05-1.36,2.44-1.36,4.18,0,1.21.53,2.73,1.58,4.57,1.66,2.88,3.05,5.2,4.17,6.96.65,1,1.23,2.16,1.73,3.46.5,1.3.75,2.36.75,3.18,0,3.07-1.32,5.54-3.97,7.41-.92.69-2.14,1.21-3.66,1.57s-2.9.54-4.16.54c-1.93,0-4.3-.44-7.11-1.33-.4-.13-.86-.02-1.38.35-.1.05-.21.06-.33.04-.12-.03-.18-.09-.2-.19-.1-.13-.1-.36,0-.68.13-.25.48-1.32,1.04-3.19.56-1.88.93-3.28,1.12-4.22.23-.82.53-1.23.88-1.23.27,0,.37.49.3,1.46-.1,1.39.02,2.62.36,3.68.34,1.06.82,1.88,1.45,2.46.62.58,1.26,1.01,1.92,1.29s1.31.43,1.95.43c1.64,0,3.09-.55,4.34-1.65,1.25-1.1,1.87-2.54,1.87-4.33,0-1.04-.39-2.34-1.17-3.91-.78-1.57-2.08-3.8-3.91-6.7-1.07-1.78-1.81-3.26-2.2-4.46-.39-1.2-.59-2.35-.59-3.45,0-1.44.35-2.76,1.05-3.97.7-1.21,1.61-2.19,2.71-2.97,1.98-1.31,4.27-1.96,6.89-1.96Z"/>
        <path class="cls-2" d="M1232.45,915.41c.44,0,.81.24,1.12.7.31.47.31,1.13.01,1.99-.27.84-1.27,3.2-3.02,7.09-1.74,3.89-2.78,6.27-3.12,7.16-.17.57-.19.98-.06,1.23.13.25.32.38.59.38s.8-.35,1.61-1.06c.8-.7,1.68-1.61,2.61-2.71.9-1,1.89-2.26,2.97-3.77,1.07-1.51,1.96-2.83,2.68-3.98.71-1.15,1.45-2.35,2.2-3.62.75-1.26,1.17-1.96,1.26-2.1.23-.33.59-.65,1.08-.95s1.04-.45,1.66-.45c.33,0,.58.14.73.41.15.28.23.55.23.82,0,.22-.02.46-.06.72-.04.26-.09.49-.14.69s-.13.46-.24.78c-.11.32-.19.56-.25.72-.06.16-.16.41-.29.77-.13.35-.22.58-.25.68-2.14,5.55-3.53,9.09-4.17,10.63-.07.12-.05.25.04.4.09.15.19.23.29.23.95,0,2.53-1.13,4.72-3.39.1-.08.21-.1.34-.05.13.05.19.12.19.2,0,.3-.21.81-.63,1.53-.92,1.57-2.38,3.09-4.37,4.54-1.99,1.45-3.64,2.17-4.95,2.17-.3,0-.58-.14-.84-.43-.26-.29-.39-.58-.39-.88,0-.59.18-1.34.53-2.26.15-.42.92-2.39,2.31-5.9.03-.1.03-.2,0-.3-.03-.1-.09-.18-.16-.23-.08-.05-.15-.05-.21,0-1.12,1.47-2.48,3.01-4.06,4.61-1.58,1.6-2.9,2.79-3.96,3.58-1.68,1.21-3.2,1.81-4.57,1.81-.47,0-.87-.2-1.21-.59-.34-.39-.5-.85-.5-1.37,0-.65.21-1.6.63-2.84.65-1.89,2.28-5.85,4.87-11.89.07-.15.07-.29,0-.41-.07-.13-.15-.19-.25-.19-.22,0-.74.24-1.57.72s-1.58.96-2.25,1.45c-.08.08-.17.13-.26.14-.09,0-.17,0-.24-.05-.07-.04-.1-.09-.1-.14,0-.37.26-.85.78-1.46,1.01-1.16,2.33-2.29,3.98-3.42,1.65-1.12,3.22-1.68,4.71-1.68Z"/>
        <path class="cls-2" d="M1260.84,915.36c1.11,0,1.98.23,2.61.68.85.65,1.28,1.32,1.28,2.01,0,.54-.28,1.11-.83,1.71-.55.6-1,.9-1.33.9-.5,0-1.06-.53-1.68-1.58-.49-.77-.89-1.34-1.22-1.71-.33-.37-.66-.55-.99-.55-.5,0-.99.23-1.47.7-.48.47-1.02,1.25-1.62,2.34-.84,1.47-1.51,3.31-2.02,5.5-.51,2.19-.77,4.16-.77,5.9,0,.67.18,1.3.55,1.9.37.59.82.89,1.36.89.67,0,1.47-.26,2.4-.78.93-.52,1.88-1.34,2.85-2.46.4-.4.69-.51.85-.33.05.05.08.13.08.23,0,.32-.18.81-.53,1.48-1.96,3.3-4.67,4.95-8.12,4.95-.42,0-.88-.12-1.38-.35-.5-.23-1-.58-1.51-1.03-.5-.45-.92-1.08-1.26-1.9-.34-.81-.5-1.71-.5-2.7,0-2.35.54-4.72,1.61-7.11.95-1.99,2.04-3.62,3.24-4.87,1.05-1.04,2.38-1.94,3.97-2.69,1.59-.75,3.07-1.13,4.42-1.13Z"/>
        <path class="cls-2" d="M1277.93,915.36c1.11,0,1.98.23,2.61.68.85.65,1.28,1.32,1.28,2.01,0,.54-.28,1.11-.83,1.71-.55.6-1,.9-1.33.9-.5,0-1.06-.53-1.68-1.58-.49-.77-.89-1.34-1.22-1.71-.33-.37-.66-.55-.99-.55-.5,0-.99.23-1.47.7-.48.47-1.02,1.25-1.62,2.34-.84,1.47-1.51,3.31-2.02,5.5-.51,2.19-.77,4.16-.77,5.9,0,.67.18,1.3.55,1.9.37.59.82.89,1.36.89.67,0,1.47-.26,2.4-.78.93-.52,1.88-1.34,2.85-2.46.4-.4.69-.51.85-.33.05.05.08.13.08.23,0,.32-.18.81-.53,1.48-1.96,3.3-4.67,4.95-8.12,4.95-.42,0-.88-.12-1.38-.35-.5-.23-1-.58-1.51-1.03-.5-.45-.92-1.08-1.26-1.9-.34-.81-.5-1.71-.5-2.7,0-2.35.54-4.72,1.61-7.11.95-1.99,2.04-3.62,3.24-4.87,1.05-1.04,2.38-1.94,3.97-2.69,1.59-.75,3.07-1.13,4.42-1.13Z"/>
        <path class="cls-2" d="M1295.02,915.36c1.26,0,2.24.32,2.94.97.7.65,1.05,1.35,1.05,2.12,0,1.91-1.06,3.61-3.19,5.1-.77.54-1.92,1.03-3.44,1.49-1.52.46-2.98.72-4.37.77-.03.02-.08.06-.15.13s-.13.14-.2.23l-.1.13c-.52,1.52-.78,3.08-.78,4.67,0,.89.21,1.58.62,2.06.41.49.96.73,1.65.73.75,0,1.63-.32,2.63-.97,1-.64,2.01-1.53,3.03-2.65.03-.03.08-.04.15-.03.07.02.13.06.19.13.06.07.09.15.09.25,0,.57-.31,1.33-.93,2.29-1.02,1.46-2.23,2.55-3.63,3.28-1.4.73-2.78,1.09-4.13,1.09-1.24,0-2.34-.55-3.3-1.65-.96-1.1-1.45-2.53-1.45-4.28s.38-3.69,1.13-5.53c.75-1.84,1.65-3.44,2.69-4.8,1.31-1.69,2.81-3.04,4.52-4.03,1.71-1,3.37-1.5,5-1.5ZM1294.54,916.39c-1.01,0-2.12.77-3.33,2.3-1.21,1.53-2.25,3.45-3.1,5.74-.05.07-.05.13,0,.2.05.07.12.1.2.1,1.51-.27,3.08-1.17,4.71-2.7,1.63-1.53,2.45-2.96,2.45-4.28,0-.9-.31-1.36-.93-1.36Z"/>
        <path class="cls-2" d="M1310.07,915.36c1.11,0,2.04.44,2.82,1.31.32.39.48.8.48,1.23.03.39-.21.87-.72,1.44-.51.58-.96.87-1.34.87s-.8-.24-1.28-.73c-.4-.45-.9-.86-1.51-1.23s-1.08-.55-1.43-.55c-.4,0-.76.16-1.08.49-.32.33-.48.72-.48,1.19,0,.52.26,1.22.78,2.11.52.89,1.31,2.09,2.36,3.59,1.16,1.81,1.76,3.41,1.81,4.8.02.92-.34,1.86-1.07,2.81-.73.95-1.66,1.8-2.8,2.54-1.94,1.27-3.69,1.91-5.25,1.91-1.06,0-1.92-.3-2.59-.89-.67-.59-1.02-1.34-1.05-2.25,0-.38.11-.84.33-1.37.22-.53.47-.9.75-1.12.37-.37.75-.31,1.13.18,1.86,2.09,3.4,3.14,4.62,3.14.62,0,1.12-.2,1.5-.59s.55-.9.52-1.52c0-.42-.2-1.01-.59-1.76-.39-.75-1.12-1.95-2.17-3.59-1.14-1.79-1.71-3.33-1.71-4.6,0-.8.26-1.66.79-2.58.53-.91,1.26-1.75,2.2-2.5.74-.64,1.58-1.19,2.53-1.65.95-.46,1.77-.69,2.48-.69Z"/>
        <path class="cls-2" d="M1324.22,915.36c1.11,0,2.04.44,2.82,1.31.32.39.48.8.48,1.23.03.39-.21.87-.72,1.44-.51.58-.96.87-1.34.87s-.8-.24-1.28-.73c-.4-.45-.9-.86-1.51-1.23s-1.08-.55-1.43-.55c-.4,0-.76.16-1.08.49-.32.33-.48.72-.48,1.19,0,.52.26,1.22.78,2.11.52.89,1.31,2.09,2.36,3.59,1.16,1.81,1.76,3.41,1.81,4.8.02.92-.34,1.86-1.07,2.81-.73.95-1.66,1.8-2.8,2.54-1.94,1.27-3.69,1.91-5.25,1.91-1.06,0-1.92-.3-2.59-.89-.67-.59-1.02-1.34-1.05-2.25,0-.38.11-.84.33-1.37.22-.53.47-.9.75-1.12.37-.37.75-.31,1.13.18,1.86,2.09,3.4,3.14,4.62,3.14.62,0,1.12-.2,1.5-.59s.55-.9.52-1.52c0-.42-.2-1.01-.59-1.76-.39-.75-1.12-1.95-2.17-3.59-1.14-1.79-1.71-3.33-1.71-4.6,0-.8.26-1.66.79-2.58.53-.91,1.26-1.75,2.2-2.5.74-.64,1.58-1.19,2.53-1.65.95-.46,1.77-.69,2.48-.69Z"/>
      </g>
    </g>
  </g>
</svg>