<?xml version="1.0" encoding="UTF-8"?>
<svg id="Layer_1" data-name="Layer 1" xmlns="http://www.w3.org/2000/svg" viewBox="0 0 1500 1500">
  <defs>
    <style>
      .cls-1 {
        fill: #014959;
      }

      .cls-1, .cls-2, .cls-3, .cls-4 {
        stroke-width: 0px;
      }

      .cls-2 {
        fill: #fff;
      }

      .cls-3 {
        fill: #f2ca04;
      }

      .cls-4 {
        fill: #abe5f2;
      }
    </style>
  </defs>
  <rect class="cls-1" x="1.77" y="1.77" width="1496.46" height="1496.46"/>
  <g>
    <g>
      <g>
        <path class="cls-2" d="M573.93,830.2c-64.23-45.23-106.6-119.41-108.15-203.57.31,1.51,2.28,2.18,3.65,3.02,5.9,3.65,12.6,5.99,18.12,10.46-2.38,2.97-5.53,1.94-8.17,2.62-2.16.55-4.97.84-4.97,3.56,0,3.13,3.01,2.64,5.12,2.78,3.44.22,6.9.52,10.32.31,7.26-.46,12.08,3.11,16.51,8.37,6.5,7.71,10.98,16.49,14.16,25.84,5.45,16,13.39,30.65,22.21,44.97,4.3,6.97,8.55,14.31,5.64,23.28-.46,1.41.1,3.2.37,4.78,2.76,16.17,7.09,31.63,15.7,46.02,4.93,8.23,8.17,17.44,9.48,27.57Z"/>
        <path class="cls-2" d="M975.1,621.85c0,140.66-114.03,254.68-254.68,254.68-3.28,0-6.54-.06-9.8-.19.28-6.08.71-11.97-.13-17.9-.93-6.51-2.1-13.34-.21-19.87,3.09-10.63,4.85-21.76,11.04-31.31,1.64-2.54.39-6.84,3.47-8.08,5.46-2.2,6.42-6.8,7.81-11.45,1.03-3.47,1.45-7.51,3.56-10.19,5.97-7.61,6.96-15.22,1.99-23.46-3.52-5.83-2.25-10.67,2.56-15.03,4.88-4.44,8.29-9.92,11.06-15.83,2.46-5.26,4.94-10.5,7.4-15.76,6.72-14.33,13.31-28.71,18.99-43.5.73-1.89,1.37-3.89,3.04-5.17,5.03-3.87,8.84-8.87,12.87-13.67,2.69-3.2,5.95-5.43,10.14-6.23,3.86-.74,7.22-2.62,10.35-4.92,1.2-.87,2.1-2.05,1.48-3.63-.77-1.95-2.48-1.89-4.1-1.44-1.75.49-3.4,1.35-5.16,1.8-1.71.45-3.99,1.33-4.94-.66-.89-1.87,1.5-2.52,2.63-3.51,3.62-3.18,7.15-6.44,10.48-9.9,1.58-1.64,3.11-3.33,4.59-5.06,1.63-1.92,3.11-4.19.89-6.44-2.32-2.37-4.58-.49-6.43.99-2.55,2.06-4.99,4.25-7.44,6.44-.8.72-1.61,1.44-2.42,2.15-.53-.4-1.07-.81-1.61-1.22.53-.75,1.07-1.5,1.61-2.26,3.04-4.26,6.1-8.51,9.05-12.83,1.62-2.37,3.37-5.35.24-7.47-2.91-1.97-4.63.85-6.31,2.91-3.49,4.3-7.02,8.56-10.6,12.78-.35.41-.69.82-1.04,1.23-.91,1.08-1.59,2.99-3.67,1.94-.55-1.66.44-2.84,1.06-4.06.2-.39.39-.78.59-1.17,2.37-4.66,4.83-9.26,7.15-13.94.84-1.69,1.21-3.63-.61-4.95-1.86-1.35-3.45-.09-4.91,1.04-2.63,2.02-4.19,4.9-6.01,7.57-1.06,1.55-2.03,3.17-2.97,4.8-3.28,5.69-6.2,11.61-11.37,16.11-5.46,4.74-9.31,3.95-11.5-3.06-.84-2.68-1.05-5.59-2.92-7.89-1.61-1.98-3.53-3.69-6.22-2.6-2.96,1.19-2.84,4.01-1.82,6.22,4.38,9.49,4.34,20.11,7.95,29.81,1.61,4.33,1.82,9.11-.4,13.59-5.14,10.35-10.96,20.23-18.56,29.07-5.18,6.04-10.94,11.65-15.64,18.06h0c-2.33,3.17-4.41,6.54-6.04,10.24-1.94,4.43-4.32,8.43-7.27,12.39-3.33,4.47-7.75,8.67-9.73,13.6-2.78,6.94-9.27,10.46-12.56,16.65-.74,1.4-2.18,2.97-4.96,2.6,1.52-5.88,3.08-11.63,4.49-17.43,1.1-4.51.47-8.44-5.15-8.74-3.74-.2-3.04-2.28-2.83-4.51.17-1.81.23-3.63.36-5.44,1.87-25.78-22.46-47.21-48.24-42.48-25.96,4.77-41.18,27.04-36.2,52.97.27,1.39.54,2.78.73,4.18.18,1.28-.19,2.18-1.47,2.96-7.43,4.47-7.8,6.15-3.78,14.1.98,1.93,3.09,3.78,1.3,6.72-8.75-6.18-11.36-16.26-16.73-24.27-3.6-5.38-5.84-11.87-9.51-17.47-11.05-16.89-22.03-33.85-32.93-50.84-4.81-7.51-4.36-15.63.46-22.66,2.2-3.21,5.54-3.82,8.65-5.17,1.82-.78,4.06-1.51,3.6-4.17-.38-2.21-2.12-3.45-4.13-4.03-3.98-1.15-7.72.07-11.07,2.01-3.67,2.13-7.38,2.05-11.17,1.1-4.81-1.2-7.94-4.57-10.42-8.69-3.78-6.25-8.25-11.99-13.44-17.12-1.54-1.53-3.81-3.12-5.97-1.55-2.58,1.87-.31,3.96.56,5.85,1.11,2.4,3.4,4.31,3.51,8.44-3.84-3.3-6.82-5.92-9.88-8.46-2.23-1.85-5.05-3.97-7.52-1.48-2.94,2.97.62,4.91,2.34,6.91,3.7,4.31,7.46,8.57,9.73,15.23-6.98-2.46-12.65-4.51-18.37-6.42-2.21-.74-4.83-.94-5.94,1.44-.16.35-.27.67-.31.97-.02-1.32-.03-2.65-.03-3.98,0-128.44,95.07-234.66,218.68-252.16,11.76-1.66,23.78-2.52,36-2.52,30.33,0,59.43,5.3,86.41,15.03,83.87,30.25,147.29,103.26,163.96,192.73.11.57.21,1.14.31,1.72,2.63,14.67,4,29.78,4,45.21Z"/>
        <path class="cls-4" d="M970.79,574.92c-.33,1.14-.66,2.29-1.02,3.42-23.52,76.35-94.62,131.83-178.69,131.83-10.88,0-21.55-.93-31.92-2.72,6.72-14.33,13.31-28.71,18.99-43.5.73-1.89,1.37-3.89,3.04-5.17,5.03-3.87,8.84-8.87,12.87-13.67,2.69-3.2,5.95-5.43,10.14-6.23,3.86-.74,7.22-2.62,10.35-4.92,1.2-.87,2.1-2.05,1.48-3.63-.77-1.95-2.48-1.89-4.1-1.44-1.75.49-3.4,1.35-5.16,1.8-1.71.45-3.99,1.33-4.94-.66-.89-1.87,1.5-2.52,2.63-3.51,3.62-3.18,7.15-6.44,10.48-9.9,1.58-1.64,3.11-3.33,4.59-5.06,1.63-1.92,3.11-4.19.89-6.44-2.32-2.37-4.58-.49-6.43.99-2.55,2.06-4.99,4.25-7.44,6.44-.8.72-1.61,1.44-2.42,2.15-.53-.4-1.07-.81-1.61-1.22.53-.75,1.07-1.5,1.61-2.26,3.04-4.26,6.1-8.51,9.05-12.83,1.62-2.37,3.37-5.35.24-7.47-2.91-1.97-4.63.85-6.31,2.91-3.49,4.3-7.02,8.56-10.6,12.78-.35.41-.69.82-1.04,1.23-.91,1.08-1.59,2.99-3.67,1.94-.55-1.66.44-2.84,1.06-4.06.2-.39.39-.78.59-1.17,2.37-4.66,4.83-9.26,7.15-13.94.84-1.69,1.21-3.63-.61-4.95-1.86-1.35-3.45-.09-4.91,1.04-2.63,2.02-4.19,4.9-6.01,7.57-1.06,1.55-2.03,3.17-2.97,4.8-3.28,5.69-6.2,11.61-11.37,16.11-5.46,4.74-9.31,3.95-11.5-3.06-.84-2.68-1.05-5.59-2.92-7.89-1.61-1.98-3.53-3.69-6.22-2.6-2.96,1.19-2.84,4.01-1.82,6.22,4.38,9.49,4.34,20.11,7.95,29.81,1.61,4.33,1.82,9.11-.4,13.59-5.14,10.35-10.96,20.23-18.56,29.07-5.18,6.04-10.94,11.65-15.64,18.06h0c-70.96-26.53-121.48-94.94-121.48-175.16,0-63.6,31.76-119.78,80.28-153.55,11.76-1.66,23.78-2.52,36-2.52,30.33,0,59.43,5.3,86.41,15.03,83.87,30.25,147.29,103.26,163.96,192.73Z"/>
        <path class="cls-3" d="M971.1,576.64c-.44.57-.88,1.14-1.33,1.71-23.86,30.09-60.74,49.39-102.13,49.39-18.75,0-36.58-3.96-52.7-11.1,1.58-1.64,3.11-3.33,4.59-5.06,1.63-1.92,3.11-4.19.89-6.44-2.32-2.37-4.58-.49-6.43.99-2.55,2.06-4.99,4.25-7.44,6.44-.81-.43-1.62-.87-2.42-1.32,3.04-4.26,6.1-8.51,9.05-12.83,1.62-2.37,3.37-5.35.24-7.47-2.91-1.97-4.63.85-6.31,2.91-3.49,4.3-7.02,8.56-10.6,12.78-1.03-.67-2.05-1.36-3.06-2.06,2.37-4.66,4.83-9.26,7.15-13.94.84-1.69,1.21-3.63-.61-4.95-1.86-1.35-3.45-.09-4.91,1.04-2.63,2.02-4.19,4.9-6.01,7.57-1.06,1.55-2.03,3.17-2.97,4.8-29.73-23.88-48.76-60.53-48.76-101.62,0-49.99,28.16-93.41,69.48-115.26,83.87,30.25,147.29,103.26,163.96,192.73.11.57.21,1.14.31,1.72Z"/>
      </g>
      <circle class="cls-3" cx="958.32" cy="391.64" r="41.41"/>
      <circle class="cls-2" cx="885.91" cy="378.16" r="22.2"/>
      <circle class="cls-2" cx="992.48" cy="475.62" r="32.13"/>
      <circle class="cls-4" cx="1017.03" cy="423.62" r="17.23"/>
      <circle class="cls-4" cx="950.37" cy="451.08" r="10.93"/>
    </g>
    <g>
      <g>
        <path class="cls-2" d="M269.3,962.85c0-.31.31-.58.93-.81.62-.23,1.31-.35,2.08-.35,5.76.15,10.77.05,15.04-.31,8.74-.82,15.84-1.23,21.29-1.23,10.85,0,19.29,2.08,25.3,6.25,6.02,4.17,9.03,10.29,9.03,18.36,0,3.19-.71,6.16-2.12,8.91-1.42,2.75-3.36,5-5.82,6.75-1.85,1.44-4.01,2.65-6.48,3.63-.41.26-.61.54-.58.85.02.31.22.51.58.62,4.63,1.44,8.79,3.65,12.5,6.63,5.6,4.68,8.41,11.06,8.41,19.13,0,5.66-1.67,10.7-5.01,15.12-3.34,4.42-7.9,7.84-13.65,10.26-5.04,2.31-12.73,3.47-23.06,3.47-1.08,0-3.61-.07-7.6-.19-3.99-.13-7.03-.22-9.14-.27-5.04-.1-9.9-.15-14.58-.15l-5.94.15c-2.01,0-3.01-.41-3.01-1.23,0-.77.9-1.31,2.7-1.62,5.45-.46,8.49-3.45,9.1-8.95.31-4.11.46-18.62.46-43.51,0-12.39-.1-22.81-.31-31.24-.05-2.83-.49-4.69-1.31-5.59-.82-.9-2.8-1.89-5.94-2.97-1.9-.31-2.85-.87-2.85-1.7ZM327.78,1033.9c0-8.02-2.47-14.66-7.41-19.9-3.75-3.91-7.71-5.86-11.88-5.86-3.86,0-6.22.13-7.1.39-1.29.31-1.93.88-1.93,1.7-.36,2.57-.48,7.5-.35,14.77.13,7.28.37,12.69.73,16.24.15,2.26.28,3.9.39,4.9.1,1,.36,2.24.77,3.7.41,1.47.95,2.53,1.62,3.2.93,1.08,2.35,2.03,4.28,2.85,1.93.82,3.56,1.23,4.9,1.23,1.54,0,3.09-.26,4.63-.77,7.56-4.37,11.34-11.85,11.34-22.45ZM323.22,985.61c0-3.65-.61-6.98-1.81-9.99-1.21-3.01-2.74-5.37-4.59-7.1-1.85-1.72-3.75-3.05-5.71-3.97-1.96-.93-3.78-1.39-5.48-1.39-.36,0-1.98.21-4.86.62-.16.05-.35.4-.58,1.04-.23.64-.35,1.09-.35,1.35-.26,1.8-.44,7.95-.54,18.44-.1,10.49-.05,16.82.15,18.98.05.62.3,1.03.73,1.23.44.21,1.3.39,2.58.54.98.05,3.57-.23,7.79-.85,3.34-.82,6.29-2.82,8.83-5.98,2.55-3.16,3.82-7.47,3.82-12.92Z"/>
        <path class="cls-2" d="M359.94,962.39c0-.77,1-1.16,3.01-1.16,1.39,0,4.28.13,8.68.39,4.4.26,7.03.39,7.91.39,4.63,0,11.34-.08,20.13-.23,8.79-.15,13.99-.23,15.58-.23,2.42,0,4.68-.05,6.79-.15l3.16-.15c.31,0,.68.31,1.12.93.44.62.71,1.16.81,1.62l1.7,12.96c0,1.59-.26,2.39-.77,2.39-.93,0-1.67-.69-2.24-2.08-1.03-2.73-2.51-5.22-4.44-7.48-1.93-2.26-3.61-3.55-5.05-3.86-2.26-.36-9.95-.54-23.07-.54-.41,0-.72.13-.93.39-.21.26-.4.94-.58,2.04-.18,1.11-.3,2.74-.35,4.9v33.79c0,.21.12.46.35.77.23.31.47.46.73.46h14.73c5.35,0,8.72-.41,10.11-1.23,1.23-.72,2.65-3.14,4.24-7.25.41-1.28.98-1.93,1.7-1.93.26,0,.46.24.62.73.15.49.23.89.23,1.2,0,.1-.28,3.42-.85,9.95-.05.72,0,2.5.15,5.32.15,2.83.23,4.27.23,4.32,0,1.9-.34,2.85-1,2.85-.52,0-1.08-.85-1.7-2.55,0-.05-.12-.36-.35-.93-.23-.57-.4-.96-.5-1.2-.1-.23-.27-.6-.5-1.12-.23-.51-.46-.9-.69-1.16-.23-.26-.5-.55-.81-.89-.31-.33-.63-.59-.96-.77-.34-.18-.71-.27-1.12-.27-5.66-.41-13.6-.62-23.84-.62-.15,0-.32.17-.5.5-.18.34-.27.58-.27.73,0,3.09.08,9.6.23,19.56.15,9.95.23,15.19.23,15.7,0,1.08.39,2.38,1.16,3.9.77,1.52,1.7,2.38,2.78,2.58,3.86.62,8.38.93,13.58.93h4.74c.28,0,.98-.03,2.08-.08,1.11-.05,1.84-.13,2.2-.23.36-.1.97-.24,1.81-.42.85-.18,1.5-.4,1.97-.66.46-.26.99-.59,1.58-1,.59-.41,1.12-.87,1.58-1.39.77-.67,1.58-1.52,2.43-2.55.85-1.03,1.74-2.16,2.66-3.39.93-1.23,1.49-2.01,1.7-2.31,1.13-1.65,2.03-2.47,2.7-2.47.31,0,.49.31.54.93.05.62-.03,1.36-.23,2.24-.31,1.13-.96,3.38-1.97,6.75-1,3.37-1.66,5.36-1.97,5.98-.31.77-.81,1.39-1.5,1.85-.69.46-1.4.69-2.12.69-5.91,0-14.26-.1-25.03-.31-10.78-.21-18.09-.31-21.95-.31-2.11,0-5.63.13-10.57.39-4.94.26-7.56.39-7.87.39-2.01,0-3.01-.36-3.01-1.08,0-.67.95-1.26,2.85-1.77,2.62-.46,4.58-1.3,5.86-2.51,1.28-1.21,2-3.46,2.16-6.75.41-12.81.62-36.92.62-72.36,0-4.11-.57-6.94-1.7-8.49-1.13-1.54-3.19-2.52-6.17-2.93-1.9-.31-2.85-.87-2.85-1.7Z"/>
        <path class="cls-2" d="M459.3,962.24c0-.77,1.11-1.16,3.32-1.16,1.54,0,4.51.15,8.91.46,4.4.31,7.37.46,8.91.46,1.75,0,4.59-.1,8.52-.31,3.93-.2,6.93-.31,8.99-.31,1.8,0,2.7.34,2.7,1,0,.62-.69,1.18-2.08,1.7-3.24.77-4.86,1.83-4.86,3.16,0,.93.85,2.78,2.54,5.55.31.51,1.43,2.51,3.36,5.98,1.93,3.47,3.72,6.66,5.36,9.57,1.65,2.91,3.41,5.9,5.28,8.99,1.88,3.09,3.25,5.17,4.13,6.25.62.62,1.05.72,1.31.31,3.65-5.86,8.84-14.91,15.58-27.15,2.47-4.17,3.7-7.02,3.7-8.56,0-.98-.69-1.89-2.08-2.74-1.39-.85-2.93-1.45-4.63-1.81-1.54-.46-2.31-.93-2.31-1.39,0-.67.85-1,2.55-1,1.54,0,3.48.13,5.82.39,2.34.26,4.23.39,5.67.39s4.05-.18,7.68-.54c3.63-.36,5.59-.54,5.9-.54,1.9,0,2.85.31,2.85.93,0,.77-1.05,1.36-3.16,1.77-2.93.62-5.39,1.5-7.37,2.66-1.98,1.16-3.42,2.26-4.32,3.32-.9,1.05-2.17,2.79-3.82,5.21-6.58,9.52-13.37,20.62-20.37,33.33l-.23.77c-.21.51-.39,1.15-.54,1.89-.15.75-.21,1.4-.15,1.97v34.56c0,.88.01,1.63.04,2.28.03.64.13,1.25.31,1.81.18.57.29,1.02.35,1.35.05.34.28.68.69,1.04.41.36.67.62.77.77.1.15.48.36,1.12.62.64.26,1.04.41,1.2.46.15.05.69.21,1.62.46.93.26,1.52.44,1.77.54.1.05.33.12.69.19.36.08.66.17.89.27.23.1.5.22.81.35.31.13.54.28.7.46.15.18.23.4.23.66,0,.72-1.11,1.08-3.32,1.08-3.34,0-6.21-.08-8.6-.23-2.39-.15-5.82-.23-10.3-.23-2.98,0-6.52.13-10.61.39-4.09.26-6.72.39-7.91.39-2.21,0-3.32-.41-3.32-1.23,0-.31.35-.64,1.04-1,.69-.36,1.45-.62,2.28-.77,3.24-.51,5.49-1.38,6.75-2.58,1.26-1.21,2.02-3.02,2.27-5.44.41-4.01.62-10.7.62-20.06v-14.43c-.16-2.01-.59-3.37-1.31-4.09-1.08-2.78-4.32-8.78-9.72-18.01-5.4-9.23-9.31-15.39-11.73-18.48-.52-.72-1.24-1.72-2.16-3.01-.93-1.29-1.53-2.11-1.81-2.47-.28-.36-.73-.89-1.35-1.58-.62-.69-1.16-1.16-1.62-1.39-.46-.23-1.04-.49-1.74-.77-.69-.28-1.53-.53-2.51-.73-2.21-.46-3.32-1.03-3.32-1.7Z"/>
        <path class="cls-2" d="M606.8,959.23c9.87,0,18.87,2.3,27,6.9,8.13,4.6,14.5,10.93,19.13,18.98,4.63,8.05,6.94,16.96,6.94,26.73,0,4.83-.63,9.46-1.89,13.89-1.26,4.42-2.88,8.24-4.86,11.46-1.98,3.21-4.29,6.18-6.94,8.91-2.65,2.73-5.24,4.95-7.79,6.67-2.55,1.72-5.13,3.18-7.75,4.36-7.25,3.29-14.89,4.94-22.91,4.94-7.36,0-14.32-1.35-20.91-4.05-6.58-2.7-12.23-6.34-16.93-10.92-4.71-4.58-8.45-10.04-11.23-16.39-2.78-6.35-4.17-13.08-4.17-20.17,0-17.54,6.94-31.42,20.83-41.66,4.06-3.09,8.93-5.46,14.62-7.14,5.68-1.67,11.3-2.51,16.86-2.51ZM605.41,961.85c-6.74,0-13.27,3.86-19.59,11.57-2.67,3.6-4.87,8.42-6.6,14.46-1.72,6.04-2.58,12.64-2.58,19.79,0,7.87,1.18,15.38,3.55,22.53,2.36,7.15,5.81,13.24,10.34,18.28,6.02,7.15,12.6,10.72,19.75,10.72,2.52,0,5.28-.67,8.29-2.01,3.01-1.34,5.62-3.47,7.83-6.4,7.15-9.57,10.72-22.6,10.72-39.11,0-7.87-.62-14.43-1.85-19.67-1.24-5.25-3.5-10.59-6.79-16.05-2.52-3.96-5.72-7.3-9.6-10.03-3.88-2.73-8.37-4.09-13.46-4.09Z"/>
        <path class="cls-2" d="M693.51,962.01c2.73,0,5.68-.1,8.87-.31,3.19-.2,5.55-.31,7.1-.31,1.75,0,2.62.39,2.62,1.16,0,.62-.88,1.13-2.62,1.54-2.78.72-4.58,1.7-5.4,2.93-.82,1.23-1.24,3.63-1.24,7.17-.26,12.09-.39,26.95-.39,44.59,0,12.91,2.55,22.32,7.64,28.23,4.42,4.99,11.16,7.48,20.21,7.48,3.86,0,7.26-.62,10.22-1.85,2.96-1.23,5.7-3.32,8.22-6.25,2.52-2.93,4.5-7.15,5.94-12.65,1.44-5.5,2.26-12.19,2.47-20.06.31-5.71.46-10.98.46-15.81,0-9.36-.24-16.37-.73-21.02-.49-4.65-1.07-7.56-1.74-8.72-.67-1.16-1.75-2.15-3.24-2.97-1.18-.41-2.8-.77-4.86-1.08-2.21-.31-3.32-.82-3.32-1.54,0-.87,1.11-1.31,3.32-1.31,1.49,0,3.43.13,5.82.39,2.39.26,4.41.39,6.06.39,1.34,0,3.37-.1,6.09-.31,2.72-.2,4.78-.31,6.17-.31,2.21,0,3.32.34,3.32,1,0,.77-1.11,1.39-3.32,1.85-3.24.51-5.36,1.48-6.36,2.89-1,1.42-1.66,4.02-1.97,7.83-.15,2.73-.36,8.02-.62,15.89-.26,7.87-.44,12.52-.54,13.96-.15,11.93-1.07,21.66-2.74,29.2-1.67,7.53-4.54,13.41-8.6,17.63-6.79,7.05-16.43,10.57-28.93,10.57-4.83,0-9.66-.66-14.47-1.97-4.81-1.31-8.63-3.02-11.46-5.13-5.24-4.01-8.81-8.73-10.68-14.16-1.88-5.42-2.89-14.03-3.05-25.8-.1-4.47-.21-11.61-.31-21.41-.1-9.8-.21-16.37-.31-19.71-.1-3.5-.53-5.87-1.27-7.14-.75-1.26-2.43-2.2-5.05-2.82-2.01-.51-3.01-1.08-3.01-1.7,0-.77.95-1.16,2.85-1.16,2.11,0,5.17.13,9.18.39,4.01.26,7.22.39,9.64.39Z"/>
        <path class="cls-2" d="M823.96,960.93c9,0,16.43,2.01,22.29,6.02,6.48,4.73,9.72,11.16,9.72,19.29,0,6.58-2.93,12.11-8.79,16.59-2.52,1.59-4.94,2.8-7.25,3.63-.31.1-.55.35-.73.73-.18.39-.12.99.19,1.81,3.7,7.82,8.51,16.87,14.43,27.15,4.17,7.2,8,12.63,11.49,16.28,1.7,1.85,3.26,3.05,4.71,3.59,1.44.54,3.24.91,5.4,1.12,1.18.31,1.77.69,1.77,1.16,0,.62-.49,1.13-1.47,1.54-1.13.51-4.76.77-10.88.77-3.09,0-5.71-.13-7.87-.39-2.16-.26-4.49-.8-6.98-1.62-2.49-.82-4.77-2.12-6.83-3.9-2.06-1.77-3.99-4.05-5.79-6.83-2.11-3.24-7.38-12.73-15.81-28.47-1.54-2.78-2.95-4.68-4.21-5.71-1.26-1.03-2.58-1.59-3.97-1.7-.57,0-1.31.15-2.24.46-.52.26-.77.98-.77,2.16-.21,4.27-.15,10.85.15,19.75,0,9.05.41,14.97,1.24,17.74.1.82.73,1.7,1.89,2.62,1.16.93,2.89,1.62,5.21,2.08.67.21,1.26.53,1.77.96.51.44.77.81.77,1.12,0,.72-1,1.08-3.01,1.08-.15,0-1.33-.06-3.51-.19-2.19-.13-4.78-.26-7.79-.39-3.01-.13-5.57-.19-7.68-.19s-5.39.15-9.84.46c-4.45.31-7.01.46-7.68.46-2.01,0-3.01-.46-3.01-1.39,0-.77.9-1.31,2.7-1.62,2.93-.51,4.89-1.34,5.86-2.47.98-1.13,1.54-3.14,1.7-6.02.62-9.15.93-20.37.93-33.63,0-17.85-.26-32.17-.77-42.97-.21-2.73-.51-4.47-.93-5.25-.82-1.44-2.73-2.44-5.71-3.01-.72-.1-1.4-.28-2.04-.54-.64-.26-.97-.54-.97-.85,0-.77.95-1.16,2.85-1.16.46,0,2.52.05,6.17.15,3.65.1,6.4.15,8.25.15,2.52,0,5.93-.1,10.22-.31,4.29-.2,9.89-.31,16.78-.31ZM816.16,964.24c-1.95,0-3.37.36-4.24,1.08-.72.46-1.13,2.01-1.24,4.63-.1,1.18-.19,7.24-.27,18.17-.08,10.93-.09,17.14-.04,18.63,0,1.49.41,2.29,1.24,2.39.51.21,1.26.31,2.24.31,6.27-.36,11.01-1.62,14.2-3.78,4.42-3.19,6.63-8.82,6.63-16.89s-1.85-13.78-5.55-18.05c-3.65-4.32-7.97-6.48-12.96-6.48Z"/>
        <path class="cls-2" d="M898.71,962.85c0-.31.31-.58.93-.81.62-.23,1.31-.35,2.08-.35,5.76.15,10.77.05,15.04-.31,8.74-.82,15.84-1.23,21.29-1.23,10.85,0,19.29,2.08,25.3,6.25,6.02,4.17,9.03,10.29,9.03,18.36,0,3.19-.71,6.16-2.12,8.91-1.42,2.75-3.36,5-5.82,6.75-1.85,1.44-4.01,2.65-6.48,3.63-.41.26-.61.54-.58.85.02.31.22.51.58.62,4.63,1.44,8.79,3.65,12.5,6.63,5.6,4.68,8.41,11.06,8.41,19.13,0,5.66-1.67,10.7-5.01,15.12-3.34,4.42-7.9,7.84-13.65,10.26-5.04,2.31-12.73,3.47-23.06,3.47-1.08,0-3.61-.07-7.6-.19-3.99-.13-7.03-.22-9.14-.27-5.04-.1-9.9-.15-14.58-.15l-5.94.15c-2.01,0-3.01-.41-3.01-1.23,0-.77.9-1.31,2.7-1.62,5.45-.46,8.49-3.45,9.1-8.95.31-4.11.46-18.62.46-43.51,0-12.39-.1-22.81-.31-31.24-.05-2.83-.49-4.69-1.31-5.59-.82-.9-2.8-1.89-5.94-2.97-1.9-.31-2.85-.87-2.85-1.7ZM957.18,1033.9c0-8.02-2.47-14.66-7.41-19.9-3.75-3.91-7.71-5.86-11.88-5.86-3.86,0-6.22.13-7.1.39-1.29.31-1.93.88-1.93,1.7-.36,2.57-.48,7.5-.35,14.77.13,7.28.37,12.69.73,16.24.15,2.26.28,3.9.39,4.9.1,1,.36,2.24.77,3.7.41,1.47.95,2.53,1.62,3.2.93,1.08,2.35,2.03,4.28,2.85,1.93.82,3.56,1.23,4.9,1.23,1.54,0,3.09-.26,4.63-.77,7.56-4.37,11.34-11.85,11.34-22.45ZM952.63,985.61c0-3.65-.61-6.98-1.81-9.99-1.21-3.01-2.74-5.37-4.59-7.1-1.85-1.72-3.75-3.05-5.71-3.97-1.96-.93-3.78-1.39-5.48-1.39-.36,0-1.98.21-4.86.62-.16.05-.35.4-.58,1.04-.23.64-.35,1.09-.35,1.35-.26,1.8-.44,7.95-.54,18.44-.1,10.49-.05,16.82.15,18.98.05.62.3,1.03.73,1.23.44.21,1.3.39,2.58.54.98.05,3.57-.23,7.79-.85,3.34-.82,6.29-2.82,8.83-5.98,2.55-3.16,3.82-7.47,3.82-12.92Z"/>
        <path class="cls-2" d="M989.35,962.39c0-.77,1-1.16,3.01-1.16,1.39,0,4.28.13,8.68.39,4.4.26,7.03.39,7.91.39,4.63,0,11.34-.08,20.13-.23,8.79-.15,13.99-.23,15.58-.23,2.42,0,4.68-.05,6.79-.15l3.16-.15c.31,0,.68.31,1.12.93.44.62.71,1.16.81,1.62l1.7,12.96c0,1.59-.26,2.39-.77,2.39-.93,0-1.67-.69-2.24-2.08-1.03-2.73-2.51-5.22-4.44-7.48-1.93-2.26-3.61-3.55-5.05-3.86-2.26-.36-9.95-.54-23.07-.54-.41,0-.72.13-.93.39-.21.26-.4.94-.58,2.04-.18,1.11-.3,2.74-.35,4.9v33.79c0,.21.12.46.35.77.23.31.47.46.73.46h14.73c5.35,0,8.72-.41,10.11-1.23,1.23-.72,2.65-3.14,4.24-7.25.41-1.28.98-1.93,1.7-1.93.26,0,.46.24.62.73.15.49.23.89.23,1.2,0,.1-.28,3.42-.85,9.95-.05.72,0,2.5.15,5.32.15,2.83.23,4.27.23,4.32,0,1.9-.34,2.85-1,2.85-.52,0-1.08-.85-1.7-2.55,0-.05-.12-.36-.35-.93-.23-.57-.4-.96-.5-1.2-.1-.23-.27-.6-.5-1.12-.23-.51-.46-.9-.69-1.16-.23-.26-.5-.55-.81-.89-.31-.33-.63-.59-.96-.77-.34-.18-.71-.27-1.12-.27-5.66-.41-13.6-.62-23.84-.62-.15,0-.32.17-.5.5-.18.34-.27.58-.27.73,0,3.09.08,9.6.23,19.56.15,9.95.23,15.19.23,15.7,0,1.08.39,2.38,1.16,3.9.77,1.52,1.7,2.38,2.78,2.58,3.86.62,8.38.93,13.58.93h4.74c.28,0,.98-.03,2.08-.08,1.11-.05,1.84-.13,2.2-.23.36-.1.97-.24,1.81-.42.85-.18,1.5-.4,1.97-.66.46-.26.99-.59,1.58-1,.59-.41,1.12-.87,1.58-1.39.77-.67,1.58-1.52,2.43-2.55.85-1.03,1.74-2.16,2.66-3.39.93-1.23,1.49-2.01,1.7-2.31,1.13-1.65,2.03-2.47,2.7-2.47.31,0,.49.31.54.93.05.62-.03,1.36-.23,2.24-.31,1.13-.96,3.38-1.97,6.75-1,3.37-1.66,5.36-1.97,5.98-.31.77-.81,1.39-1.5,1.85-.69.46-1.4.69-2.12.69-5.91,0-14.26-.1-25.03-.31-10.78-.21-18.09-.31-21.95-.31-2.11,0-5.63.13-10.57.39-4.94.26-7.56.39-7.87.39-2.01,0-3.01-.36-3.01-1.08,0-.67.95-1.26,2.85-1.77,2.62-.46,4.58-1.3,5.86-2.51,1.28-1.21,2-3.46,2.16-6.75.41-12.81.62-36.92.62-72.36,0-4.11-.57-6.94-1.7-8.49-1.13-1.54-3.19-2.52-6.17-2.93-1.9-.31-2.85-.87-2.85-1.7Z"/>
        <path class="cls-2" d="M1111.16,959.23c8.07,0,15.22,1.16,21.45,3.47.36.05.64.32.85.81.2.49.31.89.31,1.2,0,3.65.31,7.41.93,11.26.36,2.11.05,3.16-.93,3.16-.41,0-.95-.85-1.62-2.55-1.03-2.36-1.98-4.27-2.85-5.71-.88-1.44-2.08-2.8-3.63-4.09-1.65-1.34-3.68-2.47-6.09-3.39-2.42-.93-4.6-1.39-6.56-1.39-2.16,0-4.24.28-6.25.85-2.01.57-3.93,1.44-5.79,2.62-1.85,1.18-3.33,2.88-4.44,5.09-1.11,2.21-1.66,4.78-1.66,7.71,0,3.09.72,5.89,2.16,8.41,1.44,2.52,3.93,5.09,7.48,7.71,1.65,1.18,4.14,2.88,7.48,5.09,3.34,2.21,5.84,3.88,7.48,5.01.15.1.41.28.77.54,1.65,1.13,2.93,2.06,3.86,2.78.93.72,2.2,1.77,3.82,3.16,1.62,1.39,2.89,2.74,3.82,4.05.93,1.31,1.9,2.87,2.93,4.67,1.03,1.8,1.79,3.79,2.28,5.98.49,2.19.73,4.51.73,6.98,0,6.12-1.75,11.46-5.24,16.01-3.5,4.55-7.95,7.92-13.35,10.11-5.4,2.18-11.26,3.28-17.59,3.28-4.37,0-8.7-.44-13-1.31-4.3-.88-7.75-1.98-10.38-3.32-.98-.72-1.57-1.49-1.77-2.31-.05-.51-.41-2.75-1.08-6.71-.67-3.96-1-6.63-1-8.02,0-2.21.33-3.32,1-3.32.77,0,1.44,1.11,2,3.32,1.29,5.55,4.19,10.03,8.72,13.42,4.53,3.39,9.36,5.09,14.5,5.09,5.55,0,10.13-1.63,13.73-4.9,3.6-3.27,5.4-7.52,5.4-12.77,0-7.35-5.53-14.48-16.59-21.37-8.79-5.6-15.02-10.88-18.67-15.81-3.65-4.94-5.48-10.98-5.48-18.13,0-3.5.96-7.12,2.89-10.88,1.93-3.75,4.38-6.76,7.37-9.03,6.38-4.52,13.7-6.79,21.98-6.79Z"/>
        <path class="cls-2" d="M1191,962.01h18.82c8.84,0,14.5-.1,16.97-.31,2.47-.2,4.37-.67,5.71-1.39.93-.67,1.47-.93,1.62-.77.46.72.62,1.44.46,2.16-.57,1.9-.72,6.82-.46,14.73.05.72,0,1.33-.15,1.81-.15.49-.3.81-.42.96-.13.15-.24.23-.35.23-.31,0-.63-.24-.96-.73-.34-.49-.55-.94-.66-1.35-.98-4.06-2.19-6.89-3.63-8.49-2-2.01-5.73-3.01-11.19-3.01-8.64,0-13.65.15-15.04.46-.82.51-1.24,1.62-1.24,3.32,0,2.06-.08,10.93-.23,26.61-.15,15.69-.23,24.87-.23,27.54,0,13.42.36,22.27,1.08,26.54.26,2.11.86,3.63,1.81,4.55.95.93,2.87,1.72,5.75,2.39,1.8.41,2.7,1,2.7,1.77,0,.72-.9,1.08-2.7,1.08-.72,0-3.47-.15-8.25-.46-4.78-.31-8.72-.46-11.8-.46-4.73,0-9.15.13-13.27.39l-6.17.39c-.98,0-1.72-.14-2.24-.42-.51-.28-.77-.6-.77-.96,0-.72,1.05-1.26,3.16-1.62,3.91-.62,6.38-1.56,7.41-2.82,1.03-1.26,1.67-3.84,1.93-7.75.26-4.89.44-13.99.54-27.31.1-13.32.15-24.65.15-33.98s-.03-15.13-.08-17.4c-.15-1.23-.41-1.85-.77-1.85-2.88-.36-6.76-.54-11.65-.54-3.86,0-7.12.23-9.8.69-1.85.31-3.42,1.15-4.71,2.51-1.29,1.36-2.47,3.56-3.55,6.6-.41,1.29-.81,2.13-1.2,2.55-.39.41-.84.62-1.35.62-.57,0-.77-.87-.62-2.62.1-.77.42-2.88.96-6.33.54-3.45.86-6.09.97-7.95.2-1.34.67-2.16,1.39-2.47.1-.05.19-.08.27-.08s.15.03.23.08c.08.05.15.1.23.15.08.05.19.14.35.27.15.13.28.24.39.35.72.88,2.18,1.39,4.4,1.54,6.94.51,19,.77,36.18.77Z"/>
      </g>
      <g>
        <path class="cls-2" d="M293.02,1087.16c3.02,0,5.75.47,8.2,1.41,2.45.94,4.37,2.02,5.78,3.25,2.01,1.68,3.56,3.79,4.64,6.35,1.08,2.56,1.63,5.16,1.63,7.79,0,2.15-.26,4.22-.79,6.22-.52,2-1.19,3.76-1.99,5.28-.8,1.52-1.75,2.93-2.83,4.24-1.08,1.31-2.14,2.39-3.17,3.25-1.03.86-2.07,1.58-3.12,2.16-4.92,2.88-10.88,4.32-17.9,4.32-.69,0-2.6-.04-5.73-.13-3.13-.09-5.2-.13-6.2-.13-.74,0-2.01.04-3.82.13-1.81.09-2.95.13-3.42.13-.4,0-.78-.08-1.12-.23-.35-.16-.52-.32-.52-.5,0-.54.58-.84,1.74-.91.72-.11,1.28-.21,1.69-.3.41-.09.83-.28,1.24-.57.41-.29.73-.55.95-.77.22-.22.51-.68.85-1.37.35-.69.64-1.32.87-1.88.24-.56.6-1.49,1.09-2.78.94-2.46,2.27-6.45,3.99-11.98,1.72-5.53,3.16-10.42,4.32-14.67.6-2.06.82-3.51.65-4.36-.17-.85-.78-1.34-1.83-1.47-.27-.04-1.32-.13-3.15-.27-1.05-.11-1.58-.41-1.58-.91,0-.16.18-.32.54-.49s.7-.25,1.04-.25c.8,0,2.77-.08,5.9-.24,4.47-.22,8.48-.33,12.03-.33ZM291.14,1088.87c-.25,0-.59.16-1.04.47-.45.31-.76.69-.94,1.14-.92,2.15-2.84,8.2-5.77,18.17-.47,1.61-1.02,3.44-1.64,5.48-.63,2.04-1.1,3.6-1.41,4.68-.31,1.07-.63,2.17-.96,3.29-.32,1.12-.55,1.95-.69,2.5-.13.55-.2.93-.2,1.16,0,.36.08.8.24,1.32.16.53.31.87.47,1.02.34.4.98.79,1.93,1.16.95.37,1.75.55,2.4.55,1.36,0,3.04-.32,5.03-.97,1.99-.65,3.9-1.56,5.73-2.75,1.14-.76,2.28-1.78,3.44-3.05,1.15-1.27,2.26-2.78,3.34-4.51,1.07-1.73,1.94-3.74,2.62-6.03.67-2.29,1.01-4.62,1.01-6.99,0-1.85-.27-3.89-.8-6.1-.54-2.21-1.33-4.02-2.38-5.43-2.66-3.4-6.11-5.1-10.36-5.1Z"/>
        <path class="cls-2" d="M329.72,1103.08c.42,0,.81.2,1.16.59.35.39.53.87.55,1.42,0,.72-.26,1.79-.77,3.22-.58,1.59-1.36,3.5-2.33,5.73-.97,2.23-2.1,4.78-3.39,7.63-1.29,2.85-2.03,4.51-2.23,4.98-.09.18-.08.36.02.54.1.18.23.27.39.27.42,0,1.23-.44,2.43-1.31,1.2-.87,2.28-1.8,3.27-2.78.11-.07.22-.12.32-.17.1-.04.2-.08.29-.1.09-.02.16,0,.2.05.04.06.06.15.03.28,0,.45-.24,1.04-.7,1.78-1.41,1.99-3.23,3.64-5.46,4.96-2.23,1.32-4.12,1.98-5.66,1.98-.45,0-.91-.23-1.38-.7-.47-.47-.74-1.08-.8-1.84,0-1.43.61-3.54,1.84-6.34,3.53-8.07,5.54-12.66,6.03-13.78.11-.27.15-.5.12-.7s-.11-.35-.22-.45c-.11-.1-.21-.13-.3-.08-.85.31-2.2,1.32-4.06,3.02-.78.63-1.23.75-1.34.37-.02-.02-.03-.06-.03-.1,0-.38.21-.84.64-1.37,1.85-2.19,3.8-3.92,5.83-5.18,2.03-1.26,3.89-1.89,5.56-1.89ZM331.43,1090.24c.98,0,1.69.34,2.11,1.02.42.68.64,1.4.64,2.16-.02,1.3-.45,2.32-1.27,3.07-.83.75-1.67,1.12-2.52,1.12s-1.57-.31-2.09-.94c-.52-.63-.77-1.4-.72-2.31,0-1.05.37-2,1.11-2.85.74-.85,1.65-1.27,2.75-1.27Z"/>
        <path class="cls-2" d="M347.49,1103.08c1.48,0,2.73.58,3.76,1.74.42.51.64,1.06.64,1.64.04.51-.27,1.16-.95,1.93-.68.77-1.28,1.16-1.79,1.16s-1.06-.32-1.71-.97c-.54-.6-1.21-1.15-2.01-1.64-.8-.49-1.44-.74-1.91-.74-.54,0-1.02.22-1.44.65-.43.44-.64.97-.64,1.59,0,.69.35,1.63,1.04,2.82.69,1.18,1.74,2.78,3.15,4.79,1.54,2.41,2.35,4.55,2.41,6.4.02,1.23-.45,2.48-1.43,3.75-.97,1.27-2.22,2.4-3.74,3.39-2.59,1.7-4.93,2.55-7.01,2.55-1.41,0-2.56-.4-3.45-1.19-.89-.79-1.36-1.79-1.41-3,0-.51.15-1.12.44-1.83.29-.7.63-1.2,1.01-1.49.49-.49.99-.41,1.51.23,2.48,2.79,4.54,4.19,6.17,4.19.83,0,1.49-.26,1.99-.79.5-.53.73-1.2.69-2.03,0-.56-.26-1.34-.79-2.35-.53-1.01-1.49-2.6-2.9-4.79-1.52-2.39-2.28-4.44-2.28-6.13,0-1.07.35-2.22,1.06-3.44.7-1.22,1.68-2.33,2.93-3.34.98-.85,2.11-1.58,3.37-2.2,1.26-.61,2.36-.92,3.3-.92Z"/>
        <path class="cls-2" d="M370.75,1103.08c1.48,0,2.64.3,3.49.9,1.14.87,1.71,1.77,1.71,2.68,0,.72-.37,1.47-1.11,2.28-.74.8-1.33,1.21-1.78,1.21-.67,0-1.42-.7-2.25-2.11-.65-1.03-1.19-1.79-1.63-2.28-.44-.49-.88-.74-1.32-.74-.67,0-1.32.31-1.96.94-.64.63-1.36,1.67-2.16,3.12-1.12,1.97-2.02,4.41-2.7,7.34-.68,2.93-1.02,5.55-1.02,7.88,0,.89.25,1.74.74,2.53.49.79,1.09,1.19,1.81,1.19.89,0,1.96-.35,3.2-1.04,1.24-.69,2.51-1.79,3.8-3.29.54-.54.92-.68,1.14-.44.07.07.1.17.1.3,0,.42-.23,1.08-.7,1.98-2.62,4.4-6.22,6.6-10.83,6.6-.56,0-1.17-.16-1.84-.47-.67-.31-1.34-.77-2.01-1.37-.67-.6-1.23-1.45-1.68-2.53-.45-1.08-.67-2.28-.67-3.6,0-3.13.71-6.29,2.15-9.49,1.27-2.66,2.72-4.83,4.32-6.5,1.41-1.39,3.17-2.58,5.3-3.59,2.12-1.01,4.09-1.51,5.9-1.51Z"/>
        <path class="cls-2" d="M392.51,1103.08c1.25,0,2.38.28,3.39.85,1.01.57,1.8,1.31,2.4,2.21.59.91,1.04,1.88,1.36,2.93.31,1.05.47,2.1.47,3.15,0,1.94-.27,3.84-.8,5.7-.54,1.86-1.24,3.5-2.09,4.93-.86,1.43-1.74,2.67-2.63,3.72-.89,1.05-1.79,1.92-2.68,2.61-2.53,1.97-5.42,2.95-8.68,2.95-.78,0-1.57-.16-2.36-.47-.79-.31-1.56-.79-2.3-1.44-.74-.65-1.34-1.57-1.79-2.77-.46-1.2-.69-2.56-.69-4.11,0-2.12.44-4.48,1.32-7.06.88-2.58,2.14-4.9,3.77-6.96,1.65-2.03,3.51-3.59,5.58-4.66,2.07-1.07,3.98-1.61,5.75-1.61ZM392.98,1104.52c-.74,0-1.6.43-2.58,1.29-.98.86-1.98,2.08-2.98,3.67-1.36,2.21-2.59,5.06-3.69,8.55-1.1,3.49-1.64,6.4-1.64,8.75,0,1.32.17,2.29.52,2.92.35.63.77.94,1.26.94,1.01,0,2.25-.96,3.72-2.88,1.54-2.08,3.1-5.35,4.68-9.82,1.58-4.47,2.36-7.98,2.36-10.53,0-.96-.17-1.68-.52-2.16-.35-.48-.72-.72-1.12-.72Z"/>
        <path class="cls-2" d="M403.74,1113.54c.09-1.25.6-2.58,1.52-3.99.93-1.41,1.96-2.63,3.1-3.65.76-.65,1.55-1.18,2.38-1.61.83-.42,1.52-.64,2.08-.64.78,0,1.94.02,3.47.07,1.53.04,2.45.07,2.77.07,1.52,0,2.44-.02,2.75-.07.2-.04.35.04.44.27.09.22.06.45-.1.67-.2.31-.81,1.13-1.83,2.46-1.02,1.33-1.76,2.39-2.23,3.17-2.62,4.36-3.97,7.91-4.06,10.66-.02,1.5.33,2.68,1.06,3.55.73.87,1.7,1.31,2.93,1.31,1.92,0,3.87-.73,5.85-2.2,1.98-1.46,3.59-3.22,4.83-5.26,1.24-2.04,1.89-3.95,1.96-5.72.04-.76-.16-1.56-.6-2.4-.45-.84-.92-1.56-1.41-2.16-.49-.6-.74-.94-.74-1.01-.11-.72-.02-1.29.27-1.71.49-.74,1.09-1.38,1.81-1.93.71-.55,1.4-.82,2.04-.82s1.09.41,1.39,1.24c.3.83.43,1.77.39,2.82-.22,4.67-1.6,9.15-4.14,13.44-2.54,4.29-5.57,7.54-9.1,9.75-2.32,1.43-4.73,2.15-7.21,2.15-1.34,0-2.55-.55-3.64-1.66-1.08-1.11-1.59-2.64-1.53-4.61.07-2.17.98-4.68,2.75-7.54,1.07-1.77,3.09-4.67,6.07-8.72.13-.27.17-.47.1-.62-.07-.14-.18-.22-.33-.22-1.68-.25-4.28-.27-7.81-.07-1.52.07-2.28.72-2.28,1.94-.02.54.28,1.32.92,2.35.64,1.03.95,1.56.95,1.61-.07.51-.39.98-.97,1.39-.58.41-1.15.62-1.71.62s-1.08-.32-1.51-.96c-.42-.64-.64-1.3-.64-1.99Z"/>
        <path class="cls-2" d="M453.32,1103.08c1.68,0,2.98.43,3.92,1.29.94.86,1.41,1.81,1.41,2.83,0,2.55-1.42,4.82-4.26,6.81-1.03.72-2.56,1.38-4.59,1.99-2.03.61-3.98.96-5.83,1.02-.04.02-.11.08-.2.17s-.18.19-.27.3l-.13.17c-.69,2.03-1.04,4.11-1.04,6.23,0,1.18.27,2.1.82,2.75.55.65,1.28.97,2.2.97,1.01,0,2.17-.43,3.5-1.29,1.33-.86,2.68-2.04,4.04-3.54.04-.04.11-.06.2-.03.09.02.17.08.25.17.08.09.12.2.12.34,0,.76-.41,1.78-1.24,3.05-1.36,1.94-2.98,3.4-4.84,4.37-1.87.97-3.7,1.46-5.51,1.46-1.65,0-3.12-.73-4.41-2.2-1.29-1.46-1.93-3.37-1.93-5.72s.5-4.92,1.51-7.37c1.01-2.46,2.2-4.59,3.59-6.4,1.74-2.26,3.75-4.05,6.03-5.38,2.28-1.33,4.5-1.99,6.67-1.99ZM452.68,1104.46c-1.34,0-2.82,1.02-4.44,3.07-1.62,2.04-3,4.6-4.14,7.66-.07.09-.07.18,0,.27.07.09.16.13.27.13,2.01-.36,4.11-1.56,6.29-3.6,2.18-2.04,3.27-3.95,3.27-5.72,0-1.21-.41-1.81-1.24-1.81Z"/>
        <path class="cls-2" d="M482.51,1102.88c1.01,0,1.75.34,2.23,1.01.48.67.72,1.46.72,2.38,0,1.72-.53,3.12-1.59,4.21-1.06,1.08-2.08,1.63-3.07,1.63-.27,0-.51-.16-.72-.47s-.32-.66-.32-1.04c.07-2.44-.26-3.65-.97-3.65-.36,0-.7.12-1.02.35-.33.23-.84.9-1.56,2.01-.72,1.11-1.59,2.72-2.62,4.84-4.89,9.92-7.71,15.51-8.45,16.76-.43.83-.95,1.24-1.58,1.24-.51,0-1.08-.12-1.69-.37-.62-.25-1.09-.65-1.43-1.21-.31-.49-.38-1.18-.2-2.08.02-.09.84-2.37,2.45-6.84,1.61-4.47,2.79-7.91,3.55-10.32.69-2.01.64-3.02-.17-3.02-.89,0-2.15.66-3.75,1.98-.69.69-1.15,1.04-1.38,1.04-.13,0-.23-.07-.3-.2-.07-.13-.08-.29-.03-.47.31-1.52,1.41-3.1,3.29-4.74,1.88-1.64,3.93-2.46,6.17-2.46.78,0,1.46.27,2.04.8.58.54.86,1.27.84,2.21,0,.36-.75,2.76-2.25,7.21,0,.13.07.23.2.3.13.07.27.01.4-.17.18-.27.51-.78,1.01-1.53.49-.75.88-1.34,1.17-1.78.29-.44.69-.99,1.19-1.66.5-.67,1-1.31,1.49-1.91,2.19-2.7,4.3-4.06,6.33-4.06Z"/>
        <path class="cls-2" d="M505.61,1103.08c2.55,0,4.29,2.13,5.23,6.4.27,1.16.44,2.52.52,4.07.08,1.55.1,2.88.05,3.97-.05,1.1-.11,2.48-.2,4.16-.09,1.68-.15,2.8-.17,3.39-.04.87.03,1.3.23,1.27.13-.02.32-.27.57-.74,1.72-3.08,3.18-6.62,4.39-10.59,1.21-3.98,1.88-7.65,2.01-11.03,0-.18.08-.37.24-.59.16-.21.3-.32.44-.32.65,0,1.24.32,1.76.97.53.65.79,1.36.79,2.15,0,2.28-.89,5.48-2.66,9.59-1.78,4.11-3.77,8.12-5.98,12.03-.49.83-.98,1.61-1.48,2.35-.49.74-.94,1.39-1.36,1.94-.41.56-.69.95-.82,1.17-1.41,2.26-3.01,4.52-4.79,6.79-1.79,2.27-3.51,4.06-5.16,5.38-1.68,1.36-3.1,2.27-4.27,2.73-1.17.46-2.35.69-3.54.69-1.03,0-1.88-.32-2.56-.97-.68-.65-1.02-1.4-1.02-2.25,0-1.12.39-2.08,1.16-2.9.77-.82,1.49-1.22,2.16-1.22.56,0,.95.39,1.17,1.17.42,1.52,1.41,2.28,2.95,2.28,1.85,0,3.71-1.04,5.56-3.12,1.81-2.26,3.11-5.32,3.89-9.19.38-1.88.67-4.09.87-6.64.2-2.55.24-5.22.12-8.01-.12-2.79-.45-5.07-.99-6.84-.34-1.03-.66-1.75-.97-2.18-.31-.42-.67-.64-1.07-.64-1.01,0-2.25,1.44-3.72,4.32-.29.65-.51.97-.67.97-.13,0-.26-.11-.39-.34-.12-.22-.18-.46-.18-.7,0-1.3.32-2.67.97-4.12.65-1.45,1.6-2.72,2.87-3.8,1.26-1.08,2.62-1.63,4.07-1.63Z"/>
        <path class="cls-2" d="M540.67,1103.08c1.25,0,2.38.28,3.39.85,1.01.57,1.8,1.31,2.4,2.21.59.91,1.04,1.88,1.36,2.93.31,1.05.47,2.1.47,3.15,0,1.94-.27,3.84-.8,5.7-.54,1.86-1.24,3.5-2.09,4.93-.86,1.43-1.74,2.67-2.63,3.72-.89,1.05-1.79,1.92-2.68,2.61-2.53,1.97-5.42,2.95-8.68,2.95-.78,0-1.57-.16-2.36-.47s-1.56-.79-2.3-1.44c-.74-.65-1.34-1.57-1.79-2.77-.46-1.2-.69-2.56-.69-4.11,0-2.12.44-4.48,1.32-7.06.88-2.58,2.14-4.9,3.77-6.96,1.65-2.03,3.51-3.59,5.58-4.66,2.07-1.07,3.98-1.61,5.75-1.61ZM541.14,1104.52c-.74,0-1.6.43-2.58,1.29-.98.86-1.98,2.08-2.98,3.67-1.36,2.21-2.59,5.06-3.69,8.55-1.1,3.49-1.64,6.4-1.64,8.75,0,1.32.17,2.29.52,2.92.35.63.77.94,1.26.94,1.01,0,2.25-.96,3.72-2.88,1.54-2.08,3.1-5.35,4.68-9.82,1.58-4.47,2.36-7.98,2.36-10.53,0-.96-.17-1.68-.52-2.16-.35-.48-.72-.72-1.12-.72Z"/>
        <path class="cls-2" d="M565.45,1103.15c.58,0,1.08.31,1.49.94.41.63.42,1.51.02,2.65-.36,1.12-1.7,4.27-4.02,9.45-2.32,5.19-3.71,8.37-4.16,9.55-.22.76-.25,1.31-.08,1.64.17.34.43.5.79.5s1.07-.47,2.15-1.41c1.07-.94,2.23-2.15,3.49-3.62,1.21-1.34,2.53-3.02,3.96-5.03,1.43-2.01,2.62-3.78,3.57-5.31.95-1.53,1.93-3.14,2.93-4.83,1.01-1.69,1.56-2.62,1.68-2.8.31-.45.79-.87,1.44-1.27s1.39-.6,2.21-.6c.45,0,.77.18.97.55.2.37.3.73.3,1.09,0,.29-.03.61-.08.95-.06.35-.12.65-.19.92s-.17.61-.32,1.04c-.15.42-.26.74-.33.96-.08.21-.21.55-.39,1.02-.18.47-.29.77-.34.9-2.86,7.4-4.72,12.12-5.56,14.18-.09.16-.07.34.05.54.12.2.25.3.39.3,1.27,0,3.37-1.51,6.3-4.53.13-.11.28-.13.45-.07.17.07.25.16.25.27,0,.4-.28,1.08-.84,2.04-1.23,2.1-3.17,4.12-5.83,6.05-2.66,1.93-4.86,2.9-6.6,2.9-.4,0-.78-.19-1.12-.57-.35-.38-.52-.77-.52-1.17,0-.78.23-1.79.7-3.02.2-.56,1.23-3.18,3.08-7.88.04-.13.04-.27,0-.4-.04-.13-.12-.23-.22-.3-.1-.07-.2-.07-.29,0-1.5,1.97-3.3,4.02-5.41,6.15-2.11,2.13-3.87,3.73-5.28,4.78-2.23,1.61-4.27,2.41-6.1,2.41-.63,0-1.16-.26-1.61-.79-.45-.53-.67-1.13-.67-1.83,0-.87.28-2.13.84-3.79.87-2.52,3.04-7.81,6.5-15.86.09-.2.09-.38,0-.55-.09-.17-.2-.25-.34-.25-.29,0-.99.32-2.09.96s-2.11,1.28-3,1.93c-.11.11-.23.17-.35.18-.12.01-.23-.01-.32-.07-.09-.06-.13-.12-.13-.18,0-.49.35-1.14,1.04-1.94,1.34-1.54,3.11-3.06,5.31-4.56,2.2-1.5,4.3-2.25,6.29-2.25Z"/>
        <path class="cls-2" d="M607.58,1102.88c1.01,0,1.75.34,2.23,1.01.48.67.72,1.46.72,2.38,0,1.72-.53,3.12-1.59,4.21-1.06,1.08-2.08,1.63-3.07,1.63-.27,0-.51-.16-.72-.47s-.32-.66-.32-1.04c.07-2.44-.26-3.65-.97-3.65-.36,0-.7.12-1.02.35-.33.23-.84.9-1.56,2.01-.72,1.11-1.59,2.72-2.62,4.84-4.89,9.92-7.71,15.51-8.45,16.76-.43.83-.95,1.24-1.58,1.24-.51,0-1.08-.12-1.69-.37-.62-.25-1.09-.65-1.43-1.21-.31-.49-.38-1.18-.2-2.08.02-.09.84-2.37,2.45-6.84,1.61-4.47,2.79-7.91,3.55-10.32.69-2.01.64-3.02-.17-3.02-.89,0-2.15.66-3.75,1.98-.69.69-1.15,1.04-1.38,1.04-.13,0-.23-.07-.3-.2-.07-.13-.08-.29-.03-.47.31-1.52,1.41-3.1,3.29-4.74,1.88-1.64,3.93-2.46,6.17-2.46.78,0,1.46.27,2.04.8.58.54.86,1.27.84,2.21,0,.36-.75,2.76-2.25,7.21,0,.13.07.23.2.3.13.07.27.01.4-.17.18-.27.51-.78,1.01-1.53.49-.75.88-1.34,1.17-1.78.29-.44.69-.99,1.19-1.66.5-.67,1-1.31,1.49-1.91,2.19-2.7,4.3-4.06,6.33-4.06Z"/>
        <path class="cls-2" d="M640.37,1103.08c2.62,0,4.67.46,6.17,1.37.92.54,1.6,1.37,2.06,2.5.46,1.13.69,2.15.69,3.07,0,4.02-1.35,8.02-4.04,12-2.69,3.98-6.15,7.03-10.37,9.15-1.34.65-2.49.97-3.45.97-.16,0-.31-.03-.47-.08-.16-.06-.36-.16-.62-.3-.26-.15-.44-.25-.55-.32-.18-.09-.38-.02-.6.2-.52.67-.93,1.75-1.24,3.25-.05.2-.32,1.4-.82,3.59-.5,2.19-.84,3.78-1.02,4.76-.2,1.14-.13,1.97.22,2.48.35.51,1.3.86,2.87,1.04.38.02.7.12.97.28.27.17.4.34.4.52,0,.16-.15.32-.44.5-.29.18-.67.27-1.14.27-7.04,0-11.84.2-14.41.6-1.05.16-1.58-.07-1.58-.67,0-.29.5-.61,1.51-.97,1.27-.33,2.2-.75,2.76-1.24.57-.49,1.07-1.31,1.49-2.45.58-1.61,3.92-13.72,10.02-36.34,0-.13-.03-.27-.08-.42-.06-.15-.13-.21-.22-.18-1.03.22-2.74.7-5.13,1.44-.6.2-.9.16-.9-.13,0-.42.39-.88,1.17-1.37.49-.31,1.32-.71,2.48-1.21,1.16-.49,2.17-.87,3.02-1.14.36-.11.6-.34.74-.67.11-.45.69-2.21,1.74-5.3.09-.29.27-.57.55-.84.28-.27.52-.4.72-.4,1.07,0,2.06.31,2.97.92.9.61,1.36,1.22,1.36,1.83,0,.04-.18,1.03-.54,2.95,0,.11.04.24.12.37.08.13.15.2.22.2,2.12-.16,3.25-.23,3.39-.23ZM638.15,1105.23c-.38,0-.97.07-1.78.2-.11.02-.25.13-.4.33s-.26.37-.3.5c-.09.25-.43,1.47-1.01,3.69-.58,2.21-1.29,4.89-2.11,8.03-.83,3.14-1.5,5.64-2.01,7.49-.34,1.14-.5,2.12-.5,2.95-.04.34.04.73.27,1.17.22.45.46.67.7.67.31,0,.79-.18,1.43-.55.64-.37,1.29-.87,1.96-1.49,1.97-1.81,3.77-4.57,5.41-8.28,1.64-3.71,2.46-6.72,2.46-9.02,0-1.61-.34-2.96-1.01-4.06-.67-1.1-1.71-1.64-3.12-1.64Z"/>
        <path class="cls-2" d="M671.98,1104.12c.29,0,.56.06.82.17s.5.26.72.44c.22.18.37.28.44.3.2.09.36.02.47-.2.51-.76.99-1.33,1.44-1.71.45-.38.79-.57,1.04-.57.47,0,1.01.14,1.63.42.61.28,1.12.58,1.53.89.25.25.37.47.37.67-.07.6-1.01,3.51-2.83,8.72-1.82,5.21-3.21,9.11-4.17,11.7-.09.22-.07.42.07.6.13.18.29.27.47.27,1.47,0,3.6-1.46,6.37-4.39.11-.16.25-.11.4.13.07.11.1.23.1.37,0,.31-.28.97-.84,1.98-1.36,2.19-3.23,4.11-5.6,5.77-2.37,1.65-4.69,2.48-6.97,2.48-.69,0-1.2-.19-1.51-.57-.31-.38-.47-.74-.47-1.07,0-.18.06-.47.17-.89.11-.41.29-.95.54-1.63.25-.67.49-1.34.74-2.01.25-.67.58-1.54.99-2.6.41-1.06.76-2.01,1.06-2.83.09-.2.02-.31-.2-.34-.18-.02-.34.03-.47.17-7.37,7.84-12.59,11.77-15.66,11.77-.67,0-1.3-.36-1.88-1.07-.58-.72-.87-1.6-.87-2.65s.41-2.42,1.22-4.17c.82-1.75,1.8-3.4,2.97-4.94,2.95-4,6.45-7.62,10.49-10.86,1.63-1.21,3.16-2.23,4.58-3.07,1.42-.84,2.37-1.26,2.87-1.26ZM669.76,1108.24c-2.17,0-4.31,1.1-6.44,3.29-1.5,1.56-2.88,3.63-4.16,6.19-1.27,2.56-1.91,4.71-1.91,6.45,0,.29.1.67.3,1.14.2.47.51.7.94.7,1.39,0,3.33-1.16,5.83-3.49,2.75-2.75,5.39-7.1,7.91-13.04.07-.11.1-.23.08-.35-.01-.12-.03-.22-.07-.3-.03-.08-.06-.12-.08-.12-.45-.31-1.25-.47-2.41-.47Z"/>
        <path class="cls-2" d="M699.43,1095.47c.11,0,.22.05.32.15.1.1.17.29.22.55s0,.63-.13,1.07c-.36,1.48-.95,3.5-1.78,6.07-.04.13-.06.29-.03.47.02.18.08.27.17.27.36,0,1.31-.03,2.85-.1,1.54-.07,2.47-.1,2.78-.1.22,0,.43.08.6.23.18.16.27.3.27.44,0,.2-.18.44-.54.72s-.86.47-1.51.59c-.65.11-1.58.22-2.78.32-1.21.1-1.92.16-2.15.18-.47.09-.77.31-.91.67-.98,2.68-2.86,8.47-5.63,17.36-.09.29-.08.56.02.8.1.25.25.37.45.37.45,0,1.24-.39,2.38-1.16,1.14-.77,2.29-1.72,3.45-2.83.07-.09.22-.13.47-.12.25.01.37.14.37.39,0,.63-.35,1.39-1.04,2.28-1.61,2.21-3.73,4.11-6.35,5.68-2.63,1.58-4.7,2.36-6.22,2.36-.36,0-.75-.27-1.19-.8-.44-.54-.65-.98-.65-1.34,0-.87.3-2.16.9-3.86.18-.54.65-1.97,1.43-4.29.77-2.32,1.61-4.85,2.51-7.59.9-2.74,1.71-5.13,2.43-7.19.07-.13.07-.28,0-.44-.07-.16-.16-.23-.27-.23-.34-.02-.87-.04-1.59-.07-.73-.02-1.22-.04-1.49-.07-.2-.02-.38-.12-.54-.3-.16-.18-.23-.31-.23-.4,0-.27.17-.51.5-.72.34-.21.63-.34.87-.39.56-.11,1.64-.2,3.25-.27.36-.07.58-.22.67-.47,1.43-3.31,2.3-5.18,2.61-5.63.36-.49,1.13-1.05,2.33-1.68,1.2-.63,2.25-.94,3.17-.94Z"/>
        <path class="cls-2" d="M727.76,1103.08c1.45,0,2.56.52,3.32,1.56s1.14,2.33,1.14,3.87c0,2.95-.69,6.21-2.08,9.77-1.39,3.56-2.73,6.1-4.02,7.59-1.21,1.45-2.67,2.72-4.39,3.79-.56.38-1.69.97-3.39,1.76-1.7.79-2.77,1.19-3.22,1.19-.74,0-1.33-.21-1.78-.64-.45-.42-.67-.83-.67-1.21s.18-.87.54-1.47c.36-.6.68-1.05.97-1.34.13-.11.33-.19.59-.23.26-.04.42-.03.49.03,1.72,1.18,2.89,1.78,3.52,1.78.47,0,.88-.35,1.24-1.04,1.18-1.92,2.34-4.85,3.45-8.78,1.12-3.93,1.68-7.1,1.68-9.49,0-.94-.14-1.77-.42-2.48-.28-.72-.73-1.07-1.36-1.07-1.97,0-4.72,2.65-8.25,7.94-.98,1.54-2.08,3.46-3.29,5.75-1.21,2.29-2.35,4.55-3.44,6.79-1.08,2.23-1.68,3.46-1.79,3.69-.16.4-.44.73-.85.99s-.79.39-1.12.39c-.38,0-.89-.22-1.52-.65-.64-.44-1.02-.77-1.16-.99-.25-.56-.22-1.39.07-2.48.69-2.48,1.93-6.82,3.72-13.01,1.79-6.19,3.36-11.72,4.73-16.58,1.36-4.86,2.28-8.25,2.75-10.17.13-.47.04-.9-.29-1.29-.32-.39-.99-.9-1.99-1.52-.49-.29-.74-.56-.74-.8,0-.16.12-.32.35-.49.24-.17.53-.26.89-.28,1.03-.11,2.81-.35,5.35-.7,2.54-.36,4.07-.54,4.61-.54.09,0,.16.03.22.08.06.06.11.15.15.29.04.13.06.3.05.5-.01.2-.04.45-.1.75-.06.3-.14.63-.25.99-.27.89-.85,2.79-1.76,5.7-.9,2.91-2.09,6.7-3.57,11.38-1.48,4.68-2.65,8.44-3.52,11.28-.04.13-.05.25-.02.34s.09.14.17.15c.08.01.16-.04.25-.15,1.1-1.52,2.45-3.11,4.06-4.76,1.61-1.65,3.3-3.06,5.06-4.22,1.92-1.3,3.8-1.94,5.63-1.94Z"/>
        <path class="cls-2" d="M739.02,1122.53c.76,0,1.42.19,1.98.57.56.38.98.86,1.26,1.44.28.58.49,1.16.62,1.73.13.57.2,1.11.2,1.63,0,1.3-.3,2.55-.89,3.75-.59,1.21-1.32,2.23-2.2,3.07-.87.84-1.83,1.59-2.87,2.26-1.04.67-1.97,1.18-2.8,1.54-.83.36-1.53.59-2.11.7-.92.16-1.37.03-1.37-.37,0-.25.44-.63,1.31-1.14,3.8-2.23,5.7-4.59,5.7-7.07,0-.85-.24-1.49-.72-1.91-.48-.42-1.2-.75-2.16-.97-.13,0-.27-.08-.42-.25s-.22-.32-.22-.45c0-1.07.5-2.1,1.49-3.07.99-.97,2.06-1.46,3.2-1.46Z"/>
        <path class="cls-2" d="M789.84,1087.16c3.02,0,5.75.47,8.2,1.41,2.45.94,4.37,2.02,5.78,3.25,2.01,1.68,3.56,3.79,4.64,6.35,1.08,2.56,1.63,5.16,1.63,7.79,0,2.15-.26,4.22-.79,6.22-.52,2-1.19,3.76-1.99,5.28-.8,1.52-1.75,2.93-2.83,4.24-1.08,1.31-2.14,2.39-3.17,3.25-1.03.86-2.07,1.58-3.12,2.16-4.92,2.88-10.88,4.32-17.9,4.32-.69,0-2.6-.04-5.73-.13-3.13-.09-5.2-.13-6.2-.13-.74,0-2.01.04-3.82.13-1.81.09-2.95.13-3.42.13-.4,0-.78-.08-1.12-.23-.35-.16-.52-.32-.52-.5,0-.54.58-.84,1.74-.91.72-.11,1.28-.21,1.69-.3.41-.09.83-.28,1.24-.57.41-.29.73-.55.95-.77.22-.22.51-.68.85-1.37.35-.69.64-1.32.87-1.88.24-.56.6-1.49,1.09-2.78.94-2.46,2.27-6.45,3.99-11.98,1.72-5.53,3.16-10.42,4.32-14.67.6-2.06.82-3.51.65-4.36-.17-.85-.78-1.34-1.83-1.47-.27-.04-1.32-.13-3.15-.27-1.05-.11-1.58-.41-1.58-.91,0-.16.18-.32.54-.49s.7-.25,1.04-.25c.8,0,2.77-.08,5.9-.24,4.47-.22,8.48-.33,12.03-.33ZM787.96,1088.87c-.25,0-.59.16-1.04.47-.45.31-.76.69-.94,1.14-.92,2.15-2.84,8.2-5.77,18.17-.47,1.61-1.02,3.44-1.64,5.48-.63,2.04-1.1,3.6-1.41,4.68-.31,1.07-.63,2.17-.96,3.29-.32,1.12-.55,1.95-.69,2.5-.13.55-.2.93-.2,1.16,0,.36.08.8.24,1.32.16.53.31.87.47,1.02.34.4.98.79,1.93,1.16.95.37,1.75.55,2.4.55,1.36,0,3.04-.32,5.03-.97,1.99-.65,3.9-1.56,5.73-2.75,1.14-.76,2.28-1.78,3.44-3.05,1.15-1.27,2.26-2.78,3.34-4.51,1.07-1.73,1.94-3.74,2.62-6.03.67-2.29,1.01-4.62,1.01-6.99,0-1.85-.27-3.89-.8-6.1-.54-2.21-1.33-4.02-2.38-5.43-2.66-3.4-6.11-5.1-10.36-5.1Z"/>
        <path class="cls-2" d="M830.6,1103.08c1.68,0,2.98.43,3.92,1.29.94.86,1.41,1.81,1.41,2.83,0,2.55-1.42,4.82-4.26,6.81-1.03.72-2.56,1.38-4.59,1.99-2.03.61-3.98.96-5.83,1.02-.04.02-.11.08-.2.17s-.18.19-.27.3l-.13.17c-.69,2.03-1.04,4.11-1.04,6.23,0,1.18.27,2.1.82,2.75.55.65,1.28.97,2.2.97,1.01,0,2.17-.43,3.5-1.29,1.33-.86,2.68-2.04,4.04-3.54.04-.04.11-.06.2-.03.09.02.17.08.25.17.08.09.12.2.12.34,0,.76-.41,1.78-1.24,3.05-1.36,1.94-2.98,3.4-4.84,4.37-1.87.97-3.7,1.46-5.51,1.46-1.65,0-3.12-.73-4.41-2.2-1.29-1.46-1.93-3.37-1.93-5.72s.5-4.92,1.51-7.37c1.01-2.46,2.2-4.59,3.59-6.4,1.74-2.26,3.75-4.05,6.03-5.38,2.28-1.33,4.5-1.99,6.67-1.99ZM829.96,1104.46c-1.34,0-2.82,1.02-4.44,3.07-1.62,2.04-3,4.6-4.14,7.66-.07.09-.07.18,0,.27.07.09.16.13.27.13,2.01-.36,4.11-1.56,6.29-3.6,2.18-2.04,3.27-3.95,3.27-5.72,0-1.21-.41-1.81-1.24-1.81Z"/>
        <path class="cls-2" d="M863.99,1082.77c2.37,0,4.18.51,5.45,1.54,1.26,1.03,1.89,2.23,1.89,3.62,0,.85-.25,1.58-.74,2.18-.42.56-1.04.98-1.84,1.27-.8.29-1.5.44-2.08.44-.27,0-.54-.18-.82-.55-.28-.37-.42-.71-.42-1.02-.02-1.81-.35-3.22-.97-4.24-.63-1.02-1.44-1.52-2.45-1.52-2.39,0-4.48,1.9-6.27,5.7-1.43,3.13-2.96,7.6-4.59,13.41-.04.07-.05.18-.02.35.03.17.13.25.28.25l7.31-.13c5.12-.2,8.22-.48,9.32-.84.13-.04.25,0,.35.13.1.13.16.3.17.49.01.19-.03.4-.12.62-2.17,5.16-4.75,12.56-7.74,22.19-.16.45-.02.67.4.67.49,0,1.29-.38,2.38-1.14,1.1-.76,2.18-1.68,3.25-2.75.11-.16.28-.23.5-.23s.34.1.34.3c0,.42-.32,1.13-.97,2.11-1.43,1.99-3.22,3.58-5.36,4.76-2.15,1.18-3.98,1.78-5.5,1.78-.51,0-1.02-.34-1.51-1.01s-.74-1.4-.74-2.18c0-.38.04-.75.13-1.11.09-.36.26-.91.52-1.66s.45-1.31.59-1.69c3.55-10.68,5.52-16.54,5.9-17.57.07-.16.08-.37.05-.64-.03-.27-.12-.4-.25-.4-4.96,0-8.06.07-9.28.2-.52.07-.85.39-1.01.97-.18.65-.94,3.6-2.3,8.87s-2.51,9.7-3.49,13.31c-.97,3.61-1.7,6.13-2.2,7.56-1.72,4.69-4.95,8.42-9.69,11.2-1.97,1.18-3.87,1.78-5.7,1.78-1.21,0-2.42-.36-3.64-1.09s-1.82-1.67-1.79-2.83c0-.42.26-.99.79-1.69.53-.7,1.11-1.21,1.76-1.53.74-.4,1.59-.12,2.55.84.22.25.53.59.92,1.04.39.45.7.79.92,1.02.22.23.49.49.79.77.3.28.58.48.84.6.26.12.52.18.79.18.65,0,1.16-.37,1.54-1.12.38-.75.98-2.33,1.81-4.74.09-.25.16-.44.2-.57.36-1.05,1.81-6.41,4.36-16.07,2.55-9.67,4.12-15.5,4.73-17.51.07-.22.04-.41-.08-.57s-.28-.23-.49-.23h-3.08c-.18,0-.37-.05-.57-.15-.2-.1-.36-.21-.47-.32l-.13-.17c0-.13.13-.31.4-.52.27-.21.59-.39.97-.52.18-.07.54-.13,1.07-.18.54-.06,1.09-.1,1.68-.13.58-.03.93-.06,1.04-.08.36-.07.64-.33.84-.8.96-3.17,1.96-5.78,3-7.83,1.04-2.04,2.23-3.93,3.57-5.65,1.79-2.26,3.79-4.01,6-5.26,2.21-1.25,4.51-1.88,6.91-1.88Z"/>
        <path class="cls-2" d="M897.54,1103.08c1.05,0,1.84.36,2.36,1.07.53.72.77,1.51.72,2.38,0,1.23-.46,2.96-1.37,5.2-.74,1.63-1.82,4.15-3.25,7.56-1.43,3.41-2.16,5.15-2.18,5.21-.11.34-.13.58-.05.74.08.16.21.23.39.23.49,0,1.38-.4,2.65-1.19,1.27-.79,2.48-1.7,3.62-2.73.33-.27.57-.31.7-.13.04.04.06.11.03.2,0,.47-.27,1.14-.8,2.01-1.59,2.08-3.87,4.02-6.85,5.82-2.98,1.8-5.37,2.7-7.16,2.7-.58,0-1.02-.21-1.31-.64-.18-.22-.3-.58-.35-1.06-.06-.48,0-.92.15-1.32.02-.04,1.38-2.92,4.06-8.63,2.68-5.71,4.28-9.29,4.79-10.74.34-.83.54-1.53.62-2.11.08-.58.05-.99-.08-1.24-.13-.25-.33-.37-.6-.37-1.86,0-4.39,2.13-7.61,6.4-1.12,1.5-2.45,3.54-3.99,6.12-1.54,2.58-3.09,5.3-4.66,8.15-1.56,2.85-2.37,4.32-2.41,4.41-.51.74-1.06,1.11-1.64,1.11-.8,0-1.53-.21-2.18-.62-.65-.41-.97-.85-.97-1.32,0-.65.22-1.51.67-2.58,3.17-7.96,5.77-14,7.78-18.14.16-.29.15-.56-.03-.8-.18-.25-.43-.37-.74-.37-1.07,0-2.63.94-4.66,2.82-.31.31-.55.47-.7.47-.07,0-.15-.06-.25-.18-.1-.12-.15-.26-.15-.42.02-.29.18-.74.49-1.34s.75-1.29,1.36-2.06c.6-.77,1.3-1.49,2.08-2.16.78-.67,1.73-1.24,2.83-1.71,1.11-.47,2.24-.7,3.4-.7.92,0,1.68.43,2.28,1.29.6.86.76,1.67.47,2.43-.18.56-.96,2.37-2.35,5.43-.13.31-.19.53-.15.65.03.12.12.16.25.1s.27-.17.4-.35c2.77-3.13,5.31-5.44,7.61-6.94,2.53-1.74,4.79-2.61,6.8-2.61Z"/>
        <path class="cls-2" d="M922.11,1103.08c1.68,0,2.98.43,3.92,1.29.94.86,1.41,1.81,1.41,2.83,0,2.55-1.42,4.82-4.26,6.81-1.03.72-2.56,1.38-4.59,1.99-2.03.61-3.98.96-5.83,1.02-.04.02-.11.08-.2.17s-.18.19-.27.3l-.13.17c-.69,2.03-1.04,4.11-1.04,6.23,0,1.18.27,2.1.82,2.75.55.65,1.28.97,2.2.97,1.01,0,2.17-.43,3.5-1.29,1.33-.86,2.68-2.04,4.04-3.54.04-.04.11-.06.2-.03.09.02.17.08.25.17.08.09.12.2.12.34,0,.76-.41,1.78-1.24,3.05-1.36,1.94-2.98,3.4-4.84,4.37-1.87.97-3.7,1.46-5.51,1.46-1.65,0-3.12-.73-4.41-2.2-1.29-1.46-1.93-3.37-1.93-5.72s.5-4.92,1.51-7.37c1.01-2.46,2.2-4.59,3.59-6.4,1.74-2.26,3.75-4.05,6.03-5.38,2.28-1.33,4.5-1.99,6.67-1.99ZM921.48,1104.46c-1.34,0-2.82,1.02-4.44,3.07-1.62,2.04-3,4.6-4.14,7.66-.07.09-.07.18,0,.27.07.09.16.13.27.13,2.01-.36,4.11-1.56,6.29-3.6,2.18-2.04,3.27-3.95,3.27-5.72,0-1.21-.41-1.81-1.24-1.81Z"/>
        <path class="cls-2" d="M948.97,1103.08c2.55,0,4.29,2.13,5.23,6.4.27,1.16.44,2.52.52,4.07.08,1.55.1,2.88.05,3.97-.05,1.1-.11,2.48-.2,4.16-.09,1.68-.15,2.8-.17,3.39-.04.87.03,1.3.23,1.27.13-.02.32-.27.57-.74,1.72-3.08,3.18-6.62,4.39-10.59,1.21-3.98,1.88-7.65,2.01-11.03,0-.18.08-.37.24-.59.16-.21.3-.32.44-.32.65,0,1.24.32,1.76.97.53.65.79,1.36.79,2.15,0,2.28-.89,5.48-2.66,9.59-1.78,4.11-3.77,8.12-5.98,12.03-.49.83-.98,1.61-1.48,2.35-.49.74-.94,1.39-1.36,1.94-.41.56-.69.95-.82,1.17-1.41,2.26-3.01,4.52-4.79,6.79-1.79,2.27-3.51,4.06-5.16,5.38-1.68,1.36-3.1,2.27-4.27,2.73-1.17.46-2.35.69-3.54.69-1.03,0-1.88-.32-2.56-.97-.68-.65-1.02-1.4-1.02-2.25,0-1.12.39-2.08,1.16-2.9.77-.82,1.49-1.22,2.16-1.22.56,0,.95.39,1.17,1.17.42,1.52,1.41,2.28,2.95,2.28,1.85,0,3.71-1.04,5.56-3.12,1.81-2.26,3.11-5.32,3.89-9.19.38-1.88.67-4.09.87-6.64.2-2.55.24-5.22.12-8.01-.12-2.79-.45-5.07-.99-6.84-.34-1.03-.66-1.75-.97-2.18-.31-.42-.67-.64-1.07-.64-1.01,0-2.25,1.44-3.72,4.32-.29.65-.51.97-.67.97-.13,0-.26-.11-.39-.34-.12-.22-.18-.46-.18-.7,0-1.3.32-2.67.97-4.12.65-1.45,1.6-2.72,2.87-3.8,1.26-1.08,2.62-1.63,4.07-1.63Z"/>
        <path class="cls-2" d="M984.03,1103.08c1.25,0,2.38.28,3.39.85,1.01.57,1.8,1.31,2.4,2.21.59.91,1.04,1.88,1.36,2.93.31,1.05.47,2.1.47,3.15,0,1.94-.27,3.84-.8,5.7-.54,1.86-1.24,3.5-2.09,4.93-.86,1.43-1.74,2.67-2.63,3.72-.89,1.05-1.79,1.92-2.68,2.61-2.53,1.97-5.42,2.95-8.68,2.95-.78,0-1.57-.16-2.36-.47s-1.56-.79-2.3-1.44c-.74-.65-1.34-1.57-1.79-2.77-.46-1.2-.69-2.56-.69-4.11,0-2.12.44-4.48,1.32-7.06s2.14-4.9,3.77-6.96c1.65-2.03,3.51-3.59,5.58-4.66,2.07-1.07,3.98-1.61,5.75-1.61ZM984.5,1104.52c-.74,0-1.6.43-2.58,1.29-.98.86-1.98,2.08-2.98,3.67-1.36,2.21-2.59,5.06-3.69,8.55-1.1,3.49-1.64,6.4-1.64,8.75,0,1.32.17,2.29.52,2.92.35.63.77.94,1.26.94,1.01,0,2.25-.96,3.72-2.88,1.54-2.08,3.1-5.35,4.68-9.82,1.58-4.47,2.36-7.98,2.36-10.53,0-.96-.17-1.68-.52-2.16-.35-.48-.72-.72-1.12-.72Z"/>
        <path class="cls-2" d="M1008.8,1103.15c.58,0,1.08.31,1.49.94.41.63.42,1.51.02,2.65-.36,1.12-1.7,4.27-4.02,9.45-2.32,5.19-3.71,8.37-4.16,9.55-.22.76-.25,1.31-.08,1.64.17.34.43.5.79.5s1.07-.47,2.15-1.41c1.07-.94,2.23-2.15,3.49-3.62,1.21-1.34,2.53-3.02,3.96-5.03,1.43-2.01,2.62-3.78,3.57-5.31.95-1.53,1.93-3.14,2.93-4.83,1.01-1.69,1.56-2.62,1.68-2.8.31-.45.79-.87,1.44-1.27.65-.4,1.39-.6,2.21-.6.45,0,.77.18.97.55.2.37.3.73.3,1.09,0,.29-.03.61-.08.95-.06.35-.12.65-.19.92s-.17.61-.32,1.04c-.15.42-.26.74-.33.96-.08.21-.21.55-.39,1.02-.18.47-.29.77-.34.9-2.86,7.4-4.72,12.12-5.56,14.18-.09.16-.07.34.05.54.12.2.25.3.39.3,1.27,0,3.37-1.51,6.3-4.53.13-.11.28-.13.45-.07.17.07.25.16.25.27,0,.4-.28,1.08-.84,2.04-1.23,2.1-3.17,4.12-5.83,6.05-2.66,1.93-4.86,2.9-6.6,2.9-.4,0-.78-.19-1.12-.57-.35-.38-.52-.77-.52-1.17,0-.78.23-1.79.7-3.02.2-.56,1.23-3.18,3.08-7.88.04-.13.04-.27,0-.4-.04-.13-.12-.23-.22-.3-.1-.07-.2-.07-.29,0-1.5,1.97-3.3,4.02-5.41,6.15-2.11,2.13-3.87,3.73-5.28,4.78-2.23,1.61-4.27,2.41-6.1,2.41-.63,0-1.16-.26-1.61-.79-.45-.53-.67-1.13-.67-1.83,0-.87.28-2.13.84-3.79.87-2.52,3.04-7.81,6.5-15.86.09-.2.09-.38,0-.55-.09-.17-.2-.25-.34-.25-.29,0-.99.32-2.09.96-1.11.64-2.11,1.28-3,1.93-.11.11-.23.17-.35.18-.12.01-.23-.01-.32-.07-.09-.06-.13-.12-.13-.18,0-.49.35-1.14,1.04-1.94,1.34-1.54,3.11-3.06,5.31-4.56,2.2-1.5,4.3-2.25,6.29-2.25Z"/>
        <path class="cls-2" d="M1050.94,1102.88c1.01,0,1.75.34,2.23,1.01.48.67.72,1.46.72,2.38,0,1.72-.53,3.12-1.59,4.21-1.06,1.08-2.08,1.63-3.07,1.63-.27,0-.51-.16-.72-.47s-.32-.66-.32-1.04c.07-2.44-.26-3.65-.97-3.65-.36,0-.7.12-1.02.35-.33.23-.84.9-1.56,2.01-.72,1.11-1.59,2.72-2.62,4.84-4.89,9.92-7.71,15.51-8.45,16.76-.43.83-.95,1.24-1.58,1.24-.51,0-1.08-.12-1.69-.37-.62-.25-1.09-.65-1.43-1.21-.31-.49-.38-1.18-.2-2.08.02-.09.84-2.37,2.45-6.84,1.61-4.47,2.79-7.91,3.55-10.32.69-2.01.64-3.02-.17-3.02-.89,0-2.15.66-3.75,1.98-.69.69-1.15,1.04-1.38,1.04-.13,0-.23-.07-.3-.2-.07-.13-.08-.29-.03-.47.31-1.52,1.41-3.1,3.29-4.74,1.88-1.64,3.93-2.46,6.17-2.46.78,0,1.46.27,2.04.8.58.54.86,1.27.84,2.21,0,.36-.75,2.76-2.25,7.21,0,.13.07.23.2.3.13.07.27.01.4-.17.18-.27.51-.78,1.01-1.53.49-.75.88-1.34,1.17-1.78.29-.44.69-.99,1.19-1.66.5-.67,1-1.31,1.49-1.91,2.19-2.7,4.3-4.06,6.33-4.06Z"/>
        <path class="cls-2" d="M1088.52,1086.49c1.43,0,2.88.18,4.36.55,1.47.37,2.58.8,3.32,1.29.51.36,1.14.27,1.88-.27.29-.18.51-.27.67-.27.18,0,.31.13.39.4s.06.59-.05.97l-2.65,7.68c-.31,1.01-.68,1.51-1.11,1.51-.25,0-.4-.16-.47-.49-.07-.32-.08-.87-.03-1.63.04-2.41-.54-4.4-1.76-5.97-1.22-1.56-2.91-2.35-5.08-2.35s-3.72.7-4.93,2.09c-1.21,1.4-1.81,3.26-1.81,5.58,0,1.61.7,3.64,2.11,6.1,2.21,3.84,4.07,6.94,5.56,9.29.87,1.34,1.64,2.88,2.31,4.61.67,1.73,1.01,3.15,1.01,4.24,0,4.09-1.77,7.39-5.3,9.89-1.23.92-2.85,1.61-4.88,2.09-2.02.48-3.87.72-5.55.72-2.57,0-5.73-.59-9.49-1.78-.54-.18-1.15-.02-1.84.47-.13.07-.28.08-.44.05-.16-.03-.25-.12-.27-.25-.13-.18-.13-.48,0-.9.18-.34.64-1.75,1.39-4.26.75-2.5,1.25-4.38,1.49-5.63.31-1.09.7-1.64,1.17-1.64.36,0,.49.65.4,1.94-.13,1.86.03,3.49.49,4.91.46,1.42,1.1,2.51,1.93,3.29.83.77,1.68,1.35,2.56,1.73s1.75.57,2.6.57c2.19,0,4.12-.73,5.78-2.2,1.66-1.46,2.5-3.39,2.5-5.78,0-1.39-.52-3.12-1.56-5.21-1.04-2.09-2.78-5.07-5.21-8.93-1.43-2.37-2.41-4.35-2.93-5.95-.53-1.6-.79-3.13-.79-4.61,0-1.92.47-3.69,1.41-5.3.94-1.61,2.15-2.93,3.62-3.96,2.64-1.74,5.7-2.61,9.19-2.61Z"/>
        <path class="cls-2" d="M1110.54,1103.15c.58,0,1.08.31,1.49.94.41.63.42,1.51.02,2.65-.36,1.12-1.7,4.27-4.02,9.45-2.32,5.19-3.71,8.37-4.16,9.55-.22.76-.25,1.31-.08,1.64.17.34.43.5.79.5s1.07-.47,2.15-1.41c1.07-.94,2.23-2.15,3.49-3.62,1.21-1.34,2.53-3.02,3.96-5.03,1.43-2.01,2.62-3.78,3.57-5.31.95-1.53,1.93-3.14,2.93-4.83,1.01-1.69,1.56-2.62,1.68-2.8.31-.45.79-.87,1.44-1.27s1.39-.6,2.21-.6c.45,0,.77.18.97.55.2.37.3.73.3,1.09,0,.29-.03.61-.08.95-.06.35-.12.65-.19.92s-.17.61-.32,1.04c-.15.42-.26.74-.33.96-.08.21-.21.55-.39,1.02-.18.47-.29.77-.34.9-2.86,7.4-4.72,12.12-5.56,14.18-.09.16-.07.34.05.54.12.2.25.3.39.3,1.27,0,3.37-1.51,6.3-4.53.13-.11.28-.13.45-.07.17.07.25.16.25.27,0,.4-.28,1.08-.84,2.04-1.23,2.1-3.17,4.12-5.83,6.05-2.66,1.93-4.86,2.9-6.6,2.9-.4,0-.78-.19-1.12-.57-.35-.38-.52-.77-.52-1.17,0-.78.23-1.79.7-3.02.2-.56,1.23-3.18,3.08-7.88.04-.13.04-.27,0-.4-.04-.13-.12-.23-.22-.3-.1-.07-.2-.07-.29,0-1.5,1.97-3.3,4.02-5.41,6.15-2.11,2.13-3.87,3.73-5.28,4.78-2.23,1.61-4.27,2.41-6.1,2.41-.63,0-1.16-.26-1.61-.79-.45-.53-.67-1.13-.67-1.83,0-.87.28-2.13.84-3.79.87-2.52,3.04-7.81,6.5-15.86.09-.2.09-.38,0-.55-.09-.17-.2-.25-.34-.25-.29,0-.99.32-2.09.96s-2.11,1.28-3,1.93c-.11.11-.23.17-.35.18-.12.01-.23-.01-.32-.07-.09-.06-.13-.12-.13-.18,0-.49.35-1.14,1.04-1.94,1.34-1.54,3.11-3.06,5.31-4.56,2.2-1.5,4.3-2.25,6.29-2.25Z"/>
        <path class="cls-2" d="M1148.42,1103.08c1.48,0,2.64.3,3.49.9,1.14.87,1.71,1.77,1.71,2.68,0,.72-.37,1.47-1.11,2.28-.74.8-1.33,1.21-1.78,1.21-.67,0-1.42-.7-2.25-2.11-.65-1.03-1.19-1.79-1.63-2.28-.44-.49-.88-.74-1.32-.74-.67,0-1.32.31-1.96.94-.64.63-1.36,1.67-2.16,3.12-1.12,1.97-2.02,4.41-2.7,7.34-.68,2.93-1.02,5.55-1.02,7.88,0,.89.25,1.74.74,2.53.49.79,1.09,1.19,1.81,1.19.89,0,1.96-.35,3.2-1.04,1.24-.69,2.51-1.79,3.8-3.29.54-.54.92-.68,1.14-.44.07.07.1.17.1.3,0,.42-.23,1.08-.7,1.98-2.62,4.4-6.22,6.6-10.83,6.6-.56,0-1.17-.16-1.84-.47-.67-.31-1.34-.77-2.01-1.37-.67-.6-1.23-1.45-1.68-2.53-.45-1.08-.67-2.28-.67-3.6,0-3.13.71-6.29,2.15-9.49,1.27-2.66,2.72-4.83,4.32-6.5,1.41-1.39,3.17-2.58,5.3-3.59,2.12-1.01,4.09-1.51,5.9-1.51Z"/>
        <path class="cls-2" d="M1171.21,1103.08c1.48,0,2.64.3,3.49.9,1.14.87,1.71,1.77,1.71,2.68,0,.72-.37,1.47-1.11,2.28-.74.8-1.33,1.21-1.78,1.21-.67,0-1.42-.7-2.25-2.11-.65-1.03-1.19-1.79-1.63-2.28-.44-.49-.88-.74-1.32-.74-.67,0-1.32.31-1.96.94-.64.63-1.36,1.67-2.16,3.12-1.12,1.97-2.02,4.41-2.7,7.34-.68,2.93-1.02,5.55-1.02,7.88,0,.89.25,1.74.74,2.53.49.79,1.09,1.19,1.81,1.19.89,0,1.96-.35,3.2-1.04,1.24-.69,2.51-1.79,3.8-3.29.54-.54.92-.68,1.14-.44.07.07.1.17.1.3,0,.42-.23,1.08-.7,1.98-2.62,4.4-6.22,6.6-10.83,6.6-.56,0-1.17-.16-1.84-.47-.67-.31-1.34-.77-2.01-1.37-.67-.6-1.23-1.45-1.68-2.53-.45-1.08-.67-2.28-.67-3.6,0-3.13.71-6.29,2.15-9.49,1.27-2.66,2.72-4.83,4.32-6.5,1.41-1.39,3.17-2.58,5.3-3.59,2.12-1.01,4.09-1.51,5.9-1.51Z"/>
        <path class="cls-2" d="M1194.01,1103.08c1.68,0,2.98.43,3.92,1.29.94.86,1.41,1.81,1.41,2.83,0,2.55-1.42,4.82-4.26,6.81-1.03.72-2.56,1.38-4.59,1.99-2.03.61-3.98.96-5.83,1.02-.04.02-.11.08-.2.17s-.18.19-.27.3l-.13.17c-.69,2.03-1.04,4.11-1.04,6.23,0,1.18.27,2.1.82,2.75.55.65,1.28.97,2.2.97,1.01,0,2.17-.43,3.5-1.29,1.33-.86,2.68-2.04,4.04-3.54.04-.04.11-.06.2-.03.09.02.17.08.25.17.08.09.12.2.12.34,0,.76-.41,1.78-1.24,3.05-1.36,1.94-2.98,3.4-4.84,4.37-1.87.97-3.7,1.46-5.51,1.46-1.65,0-3.12-.73-4.41-2.2-1.29-1.46-1.93-3.37-1.93-5.72s.5-4.92,1.51-7.37c1.01-2.46,2.2-4.59,3.59-6.4,1.74-2.26,3.75-4.05,6.03-5.38,2.28-1.33,4.5-1.99,6.67-1.99ZM1193.37,1104.46c-1.34,0-2.82,1.02-4.44,3.07-1.62,2.04-3,4.6-4.14,7.66-.07.09-.07.18,0,.27.07.09.16.13.27.13,2.01-.36,4.11-1.56,6.29-3.6,2.18-2.04,3.27-3.95,3.27-5.72,0-1.21-.41-1.81-1.24-1.81Z"/>
        <path class="cls-2" d="M1214.09,1103.08c1.48,0,2.73.58,3.76,1.74.42.51.64,1.06.64,1.64.04.51-.27,1.16-.95,1.93-.68.77-1.28,1.16-1.79,1.16s-1.06-.32-1.71-.97c-.54-.6-1.21-1.15-2.01-1.64-.8-.49-1.44-.74-1.91-.74-.54,0-1.02.22-1.44.65-.43.44-.64.97-.64,1.59,0,.69.35,1.63,1.04,2.82.69,1.18,1.74,2.78,3.15,4.79,1.54,2.41,2.35,4.55,2.41,6.4.02,1.23-.45,2.48-1.43,3.75-.97,1.27-2.22,2.4-3.74,3.39-2.59,1.7-4.93,2.55-7.01,2.55-1.41,0-2.56-.4-3.45-1.19-.89-.79-1.36-1.79-1.41-3,0-.51.15-1.12.44-1.83.29-.7.63-1.2,1.01-1.49.49-.49.99-.41,1.51.23,2.48,2.79,4.54,4.19,6.17,4.19.83,0,1.49-.26,1.99-.79s.73-1.2.69-2.03c0-.56-.26-1.34-.79-2.35-.53-1.01-1.49-2.6-2.9-4.79-1.52-2.39-2.28-4.44-2.28-6.13,0-1.07.35-2.22,1.06-3.44.7-1.22,1.68-2.33,2.93-3.34.98-.85,2.11-1.58,3.37-2.2,1.26-.61,2.36-.92,3.3-.92Z"/>
        <path class="cls-2" d="M1232.96,1103.08c1.48,0,2.73.58,3.76,1.74.42.51.64,1.06.64,1.64.04.51-.27,1.16-.95,1.93-.68.77-1.28,1.16-1.79,1.16s-1.06-.32-1.71-.97c-.54-.6-1.21-1.15-2.01-1.64-.8-.49-1.44-.74-1.91-.74-.54,0-1.02.22-1.44.65-.43.44-.64.97-.64,1.59,0,.69.35,1.63,1.04,2.82.69,1.18,1.74,2.78,3.15,4.79,1.54,2.41,2.35,4.55,2.41,6.4.02,1.23-.45,2.48-1.43,3.75-.97,1.27-2.22,2.4-3.74,3.39-2.59,1.7-4.93,2.55-7.01,2.55-1.41,0-2.56-.4-3.45-1.19-.89-.79-1.36-1.79-1.41-3,0-.51.15-1.12.44-1.83.29-.7.63-1.2,1.01-1.49.49-.49.99-.41,1.51.23,2.48,2.79,4.54,4.19,6.17,4.19.83,0,1.49-.26,1.99-.79.5-.53.73-1.2.69-2.03,0-.56-.26-1.34-.79-2.35-.53-1.01-1.49-2.6-2.9-4.79-1.52-2.39-2.28-4.44-2.28-6.13,0-1.07.35-2.22,1.06-3.44.7-1.22,1.68-2.33,2.93-3.34.98-.85,2.11-1.58,3.37-2.2,1.26-.61,2.36-.92,3.3-.92Z"/>
      </g>
    </g>
  </g>
</svg>